<svg width="1141" height="263" viewBox="0 0 1141 263" fill="none" xmlns="http://www.w3.org/2000/svg">
<g clip-path="url(#clip0_3774_83312)">
<rect width="1141" height="263" fill="#F0F3FF"/>
<g opacity="0.24">
<ellipse cx="784.349" cy="2.29295" rx="0.963755" ry="0.955856" fill="#6C6CFF"/>
<ellipse cx="803.752" cy="2.29289" rx="0.963755" ry="0.955856" fill="#6C6CFF"/>
<ellipse cx="823.157" cy="2.29289" rx="0.963755" ry="0.955856" fill="#6C6CFF"/>
<ellipse cx="842.556" cy="2.29289" rx="0.963755" ry="0.955856" fill="#6C6CFF"/>
<ellipse cx="861.96" cy="2.29289" rx="0.963755" ry="0.955856" fill="#6C6CFF"/>
<ellipse cx="881.36" cy="2.29289" rx="0.963755" ry="0.955856" fill="#6C6CFF"/>
<ellipse cx="900.765" cy="2.29289" rx="0.963755" ry="0.955856" fill="#6C6CFF"/>
<ellipse cx="920.162" cy="2.29289" rx="0.963755" ry="0.955856" fill="#6C6CFF"/>
<ellipse cx="939.567" cy="2.29295" rx="0.963755" ry="0.955856" fill="#6C6CFF"/>
<ellipse cx="958.97" cy="2.29289" rx="0.963755" ry="0.955856" fill="#6C6CFF"/>
<ellipse cx="978.373" cy="2.29289" rx="0.963755" ry="0.955856" fill="#6C6CFF"/>
<ellipse cx="997.773" cy="2.29289" rx="0.963755" ry="0.955856" fill="#6C6CFF"/>
<ellipse cx="1017.17" cy="2.29289" rx="0.963755" ry="0.955856" fill="#6C6CFF"/>
<ellipse cx="1036.58" cy="2.29289" rx="0.963755" ry="0.955856" fill="#6C6CFF"/>
<ellipse cx="1055.98" cy="2.29289" rx="0.963755" ry="0.955856" fill="#6C6CFF"/>
<ellipse cx="1075.38" cy="2.29289" rx="0.963755" ry="0.955856" fill="#6C6CFF"/>
<ellipse cx="1094.78" cy="2.29289" rx="0.963755" ry="0.955856" fill="#6C6CFF"/>
<ellipse cx="1114.18" cy="2.29289" rx="0.963755" ry="0.955856" fill="#6C6CFF"/>
<ellipse cx="1133.59" cy="2.29289" rx="0.963755" ry="0.955856" fill="#6C6CFF"/>
<ellipse cx="784.349" cy="21.5362" rx="0.963755" ry="0.955856" fill="#6C6CFF"/>
<ellipse cx="803.752" cy="21.5362" rx="0.963755" ry="0.955856" fill="#6C6CFF"/>
<ellipse cx="823.157" cy="21.5362" rx="0.963755" ry="0.955856" fill="#6C6CFF"/>
<ellipse cx="842.556" cy="21.5362" rx="0.963755" ry="0.955856" fill="#6C6CFF"/>
<ellipse cx="861.96" cy="21.5362" rx="0.963755" ry="0.955856" fill="#6C6CFF"/>
<ellipse cx="881.36" cy="21.5362" rx="0.963755" ry="0.955856" fill="#6C6CFF"/>
<ellipse cx="900.765" cy="21.5362" rx="0.963755" ry="0.955856" fill="#6C6CFF"/>
<ellipse cx="920.162" cy="21.5362" rx="0.963755" ry="0.955856" fill="#6C6CFF"/>
<ellipse cx="939.567" cy="21.5362" rx="0.963755" ry="0.955856" fill="#6C6CFF"/>
<ellipse cx="958.97" cy="21.5362" rx="0.963755" ry="0.955856" fill="#6C6CFF"/>
<ellipse cx="978.373" cy="21.5362" rx="0.963755" ry="0.955856" fill="#6C6CFF"/>
<ellipse cx="997.773" cy="21.5362" rx="0.963755" ry="0.955856" fill="#6C6CFF"/>
<ellipse cx="1017.17" cy="21.5362" rx="0.963755" ry="0.955856" fill="#6C6CFF"/>
<ellipse cx="1036.58" cy="21.5362" rx="0.963755" ry="0.955856" fill="#6C6CFF"/>
<ellipse cx="1055.98" cy="21.5362" rx="0.963755" ry="0.955856" fill="#6C6CFF"/>
<ellipse cx="1075.38" cy="21.5362" rx="0.963755" ry="0.955856" fill="#6C6CFF"/>
<ellipse cx="1094.78" cy="21.5362" rx="0.963755" ry="0.955856" fill="#6C6CFF"/>
<ellipse cx="1114.18" cy="21.5362" rx="0.963755" ry="0.955856" fill="#6C6CFF"/>
<ellipse cx="1133.59" cy="21.5362" rx="0.963755" ry="0.955856" fill="#6C6CFF"/>
<ellipse cx="784.349" cy="40.7792" rx="0.963755" ry="0.955856" fill="#6C6CFF"/>
<ellipse cx="803.752" cy="40.7792" rx="0.963755" ry="0.955856" fill="#6C6CFF"/>
<ellipse cx="823.157" cy="40.7792" rx="0.963755" ry="0.955856" fill="#6C6CFF"/>
<ellipse cx="842.556" cy="40.7792" rx="0.963755" ry="0.955856" fill="#6C6CFF"/>
<ellipse cx="861.96" cy="40.7792" rx="0.963755" ry="0.955856" fill="#6C6CFF"/>
<ellipse cx="881.36" cy="40.7792" rx="0.963755" ry="0.955856" fill="#6C6CFF"/>
<ellipse cx="900.765" cy="40.7792" rx="0.963755" ry="0.955856" fill="#6C6CFF"/>
<ellipse cx="920.162" cy="40.7792" rx="0.963755" ry="0.955856" fill="#6C6CFF"/>
<ellipse cx="939.567" cy="40.7792" rx="0.963755" ry="0.955856" fill="#6C6CFF"/>
<ellipse cx="958.97" cy="40.7792" rx="0.963755" ry="0.955856" fill="#6C6CFF"/>
<ellipse cx="978.373" cy="40.7792" rx="0.963755" ry="0.955856" fill="#6C6CFF"/>
<ellipse cx="997.773" cy="40.7792" rx="0.963755" ry="0.955856" fill="#6C6CFF"/>
<ellipse cx="1017.17" cy="40.7792" rx="0.963755" ry="0.955856" fill="#6C6CFF"/>
<ellipse cx="1036.58" cy="40.7792" rx="0.963755" ry="0.955856" fill="#6C6CFF"/>
<ellipse cx="1055.98" cy="40.7792" rx="0.963755" ry="0.955856" fill="#6C6CFF"/>
<ellipse cx="1075.38" cy="40.7792" rx="0.963755" ry="0.955856" fill="#6C6CFF"/>
<ellipse cx="1094.78" cy="40.7792" rx="0.963755" ry="0.955856" fill="#6C6CFF"/>
<ellipse cx="1114.18" cy="40.7792" rx="0.963755" ry="0.955856" fill="#6C6CFF"/>
<ellipse cx="1133.59" cy="40.7792" rx="0.963755" ry="0.955856" fill="#6C6CFF"/>
<ellipse cx="784.349" cy="60.0228" rx="0.963755" ry="0.955856" fill="#6C6CFF"/>
<ellipse cx="803.752" cy="60.0228" rx="0.963755" ry="0.955856" fill="#6C6CFF"/>
<ellipse cx="823.157" cy="60.0228" rx="0.963755" ry="0.955856" fill="#6C6CFF"/>
<ellipse cx="842.556" cy="60.0228" rx="0.963755" ry="0.955856" fill="#6C6CFF"/>
<ellipse cx="861.96" cy="60.0228" rx="0.963755" ry="0.955856" fill="#6C6CFF"/>
<ellipse cx="881.36" cy="60.0228" rx="0.963755" ry="0.955856" fill="#6C6CFF"/>
<ellipse cx="900.765" cy="60.0228" rx="0.963755" ry="0.955856" fill="#6C6CFF"/>
<ellipse cx="920.162" cy="60.0228" rx="0.963755" ry="0.955856" fill="#6C6CFF"/>
<ellipse cx="939.567" cy="60.0228" rx="0.963755" ry="0.955856" fill="#6C6CFF"/>
<ellipse cx="958.97" cy="60.0228" rx="0.963755" ry="0.955856" fill="#6C6CFF"/>
<ellipse cx="978.373" cy="60.0228" rx="0.963755" ry="0.955856" fill="#6C6CFF"/>
<ellipse cx="997.773" cy="60.0228" rx="0.963755" ry="0.955856" fill="#6C6CFF"/>
<ellipse cx="1017.17" cy="60.0228" rx="0.963755" ry="0.955856" fill="#6C6CFF"/>
<ellipse cx="1036.58" cy="60.0228" rx="0.963755" ry="0.955856" fill="#6C6CFF"/>
<ellipse cx="1055.98" cy="60.0228" rx="0.963755" ry="0.955856" fill="#6C6CFF"/>
<ellipse cx="1075.38" cy="60.0228" rx="0.963755" ry="0.955856" fill="#6C6CFF"/>
<ellipse cx="1094.78" cy="60.0228" rx="0.963755" ry="0.955856" fill="#6C6CFF"/>
<ellipse cx="1114.18" cy="60.0228" rx="0.963755" ry="0.955856" fill="#6C6CFF"/>
<ellipse cx="1133.59" cy="60.0228" rx="0.963755" ry="0.955856" fill="#6C6CFF"/>
<ellipse cx="784.349" cy="79.2662" rx="0.963755" ry="0.955856" fill="#6C6CFF"/>
<ellipse cx="803.752" cy="79.2662" rx="0.963755" ry="0.955856" fill="#6C6CFF"/>
<ellipse cx="823.157" cy="79.2662" rx="0.963755" ry="0.955856" fill="#6C6CFF"/>
<ellipse cx="842.556" cy="79.2662" rx="0.963755" ry="0.955856" fill="#6C6CFF"/>
<ellipse cx="861.96" cy="79.2662" rx="0.963755" ry="0.955856" fill="#6C6CFF"/>
<ellipse cx="881.36" cy="79.2662" rx="0.963755" ry="0.955856" fill="#6C6CFF"/>
<ellipse cx="900.765" cy="79.2662" rx="0.963755" ry="0.955856" fill="#6C6CFF"/>
<ellipse cx="920.162" cy="79.2662" rx="0.963755" ry="0.955856" fill="#6C6CFF"/>
<ellipse cx="939.567" cy="79.2662" rx="0.963755" ry="0.955856" fill="#6C6CFF"/>
<ellipse cx="958.97" cy="79.2662" rx="0.963755" ry="0.955856" fill="#6C6CFF"/>
<ellipse cx="978.373" cy="79.2662" rx="0.963755" ry="0.955856" fill="#6C6CFF"/>
<ellipse cx="997.773" cy="79.2662" rx="0.963755" ry="0.955856" fill="#6C6CFF"/>
<ellipse cx="1017.17" cy="79.2662" rx="0.963755" ry="0.955856" fill="#6C6CFF"/>
<ellipse cx="1036.58" cy="79.2662" rx="0.963755" ry="0.955856" fill="#6C6CFF"/>
<ellipse cx="1055.98" cy="79.2662" rx="0.963755" ry="0.955856" fill="#6C6CFF"/>
<ellipse cx="1075.38" cy="79.2662" rx="0.963755" ry="0.955856" fill="#6C6CFF"/>
<ellipse cx="1094.78" cy="79.2662" rx="0.963755" ry="0.955856" fill="#6C6CFF"/>
<ellipse cx="1114.18" cy="79.2662" rx="0.963755" ry="0.955856" fill="#6C6CFF"/>
<ellipse cx="1133.59" cy="79.2662" rx="0.963755" ry="0.955856" fill="#6C6CFF"/>
<ellipse cx="784.349" cy="98.5087" rx="0.963755" ry="0.955856" fill="#6C6CFF"/>
<ellipse cx="803.752" cy="98.5087" rx="0.963755" ry="0.955856" fill="#6C6CFF"/>
<ellipse cx="823.157" cy="98.5087" rx="0.963755" ry="0.955856" fill="#6C6CFF"/>
<ellipse cx="842.556" cy="98.5087" rx="0.963755" ry="0.955856" fill="#6C6CFF"/>
<ellipse cx="861.96" cy="98.5087" rx="0.963755" ry="0.955856" fill="#6C6CFF"/>
<ellipse cx="881.36" cy="98.5087" rx="0.963755" ry="0.955856" fill="#6C6CFF"/>
<ellipse cx="900.765" cy="98.5087" rx="0.963755" ry="0.955856" fill="#6C6CFF"/>
<ellipse cx="920.162" cy="98.5087" rx="0.963755" ry="0.955856" fill="#6C6CFF"/>
<ellipse cx="939.567" cy="98.5087" rx="0.963755" ry="0.955856" fill="#6C6CFF"/>
<ellipse cx="958.97" cy="98.5087" rx="0.963755" ry="0.955856" fill="#6C6CFF"/>
<ellipse cx="978.373" cy="98.5087" rx="0.963755" ry="0.955856" fill="#6C6CFF"/>
<ellipse cx="997.773" cy="98.5087" rx="0.963755" ry="0.955856" fill="#6C6CFF"/>
<ellipse cx="1017.17" cy="98.5087" rx="0.963755" ry="0.955856" fill="#6C6CFF"/>
<ellipse cx="1036.58" cy="98.5087" rx="0.963755" ry="0.955856" fill="#6C6CFF"/>
<ellipse cx="1055.98" cy="98.5087" rx="0.963755" ry="0.955856" fill="#6C6CFF"/>
<ellipse cx="1075.38" cy="98.5087" rx="0.963755" ry="0.955856" fill="#6C6CFF"/>
<ellipse cx="1094.78" cy="98.5087" rx="0.963755" ry="0.955856" fill="#6C6CFF"/>
<ellipse cx="1114.18" cy="98.5087" rx="0.963755" ry="0.955856" fill="#6C6CFF"/>
<ellipse cx="1133.59" cy="98.5087" rx="0.963755" ry="0.955856" fill="#6C6CFF"/>
<ellipse cx="784.349" cy="117.751" rx="0.963755" ry="0.955856" fill="#6C6CFF"/>
<ellipse cx="803.752" cy="117.751" rx="0.963755" ry="0.955856" fill="#6C6CFF"/>
<ellipse cx="823.157" cy="117.751" rx="0.963755" ry="0.955856" fill="#6C6CFF"/>
<ellipse cx="842.556" cy="117.751" rx="0.963755" ry="0.955856" fill="#6C6CFF"/>
<ellipse cx="861.96" cy="117.751" rx="0.963755" ry="0.955856" fill="#6C6CFF"/>
<ellipse cx="881.36" cy="117.751" rx="0.963755" ry="0.955856" fill="#6C6CFF"/>
<ellipse cx="900.765" cy="117.751" rx="0.963755" ry="0.955856" fill="#6C6CFF"/>
<ellipse cx="920.162" cy="117.751" rx="0.963755" ry="0.955856" fill="#6C6CFF"/>
<ellipse cx="939.567" cy="117.751" rx="0.963755" ry="0.955856" fill="#6C6CFF"/>
<ellipse cx="958.97" cy="117.751" rx="0.963755" ry="0.955856" fill="#6C6CFF"/>
<ellipse cx="978.373" cy="117.751" rx="0.963755" ry="0.955856" fill="#6C6CFF"/>
<ellipse cx="997.773" cy="117.751" rx="0.963755" ry="0.955856" fill="#6C6CFF"/>
<ellipse cx="1017.17" cy="117.751" rx="0.963755" ry="0.955856" fill="#6C6CFF"/>
<ellipse cx="1036.58" cy="117.751" rx="0.963755" ry="0.955856" fill="#6C6CFF"/>
<ellipse cx="1055.98" cy="117.751" rx="0.963755" ry="0.955856" fill="#6C6CFF"/>
<ellipse cx="1075.38" cy="117.751" rx="0.963755" ry="0.955856" fill="#6C6CFF"/>
<ellipse cx="1094.78" cy="117.751" rx="0.963755" ry="0.955856" fill="#6C6CFF"/>
<ellipse cx="1114.18" cy="117.751" rx="0.963755" ry="0.955856" fill="#6C6CFF"/>
<ellipse cx="1133.59" cy="117.751" rx="0.963755" ry="0.955856" fill="#6C6CFF"/>
<ellipse cx="784.349" cy="136.995" rx="0.963755" ry="0.955856" fill="#6C6CFF"/>
<ellipse cx="803.752" cy="136.995" rx="0.963755" ry="0.955856" fill="#6C6CFF"/>
<ellipse cx="823.157" cy="136.995" rx="0.963755" ry="0.955856" fill="#6C6CFF"/>
<ellipse cx="842.556" cy="136.995" rx="0.963755" ry="0.955856" fill="#6C6CFF"/>
<ellipse cx="861.96" cy="136.995" rx="0.963755" ry="0.955856" fill="#6C6CFF"/>
<ellipse cx="881.36" cy="136.995" rx="0.963755" ry="0.955856" fill="#6C6CFF"/>
<ellipse cx="900.765" cy="136.995" rx="0.963755" ry="0.955856" fill="#6C6CFF"/>
<ellipse cx="920.162" cy="136.995" rx="0.963755" ry="0.955856" fill="#6C6CFF"/>
<ellipse cx="939.567" cy="136.995" rx="0.963755" ry="0.955856" fill="#6C6CFF"/>
<ellipse cx="958.97" cy="136.995" rx="0.963755" ry="0.955856" fill="#6C6CFF"/>
<ellipse cx="978.373" cy="136.995" rx="0.963755" ry="0.955856" fill="#6C6CFF"/>
<ellipse cx="997.773" cy="136.995" rx="0.963755" ry="0.955856" fill="#6C6CFF"/>
<ellipse cx="1017.17" cy="136.995" rx="0.963755" ry="0.955856" fill="#6C6CFF"/>
<ellipse cx="1036.58" cy="136.995" rx="0.963755" ry="0.955856" fill="#6C6CFF"/>
<ellipse cx="1055.98" cy="136.995" rx="0.963755" ry="0.955856" fill="#6C6CFF"/>
<ellipse cx="1075.38" cy="136.995" rx="0.963755" ry="0.955856" fill="#6C6CFF"/>
<ellipse cx="1094.78" cy="136.995" rx="0.963755" ry="0.955856" fill="#6C6CFF"/>
<ellipse cx="1114.18" cy="136.995" rx="0.963755" ry="0.955856" fill="#6C6CFF"/>
<ellipse cx="1133.59" cy="136.995" rx="0.963755" ry="0.955856" fill="#6C6CFF"/>
<ellipse cx="784.349" cy="156.238" rx="0.963755" ry="0.955856" fill="#6C6CFF"/>
<ellipse cx="803.752" cy="156.238" rx="0.963755" ry="0.955856" fill="#6C6CFF"/>
<ellipse cx="823.157" cy="156.238" rx="0.963755" ry="0.955856" fill="#6C6CFF"/>
<ellipse cx="842.556" cy="156.238" rx="0.963755" ry="0.955856" fill="#6C6CFF"/>
<ellipse cx="861.96" cy="156.238" rx="0.963755" ry="0.955856" fill="#6C6CFF"/>
<ellipse cx="881.36" cy="156.238" rx="0.963755" ry="0.955856" fill="#6C6CFF"/>
<ellipse cx="900.765" cy="156.238" rx="0.963755" ry="0.955856" fill="#6C6CFF"/>
<ellipse cx="920.162" cy="156.238" rx="0.963755" ry="0.955856" fill="#6C6CFF"/>
<ellipse cx="939.566" cy="156.238" rx="0.963755" ry="0.955856" fill="#6C6CFF"/>
<ellipse cx="958.97" cy="156.238" rx="0.963755" ry="0.955856" fill="#6C6CFF"/>
<ellipse cx="978.373" cy="156.238" rx="0.963755" ry="0.955856" fill="#6C6CFF"/>
<ellipse cx="997.773" cy="156.238" rx="0.963755" ry="0.955856" fill="#6C6CFF"/>
<ellipse cx="1017.17" cy="156.238" rx="0.963755" ry="0.955856" fill="#6C6CFF"/>
<ellipse cx="1036.58" cy="156.238" rx="0.963755" ry="0.955856" fill="#6C6CFF"/>
<ellipse cx="1055.98" cy="156.238" rx="0.963755" ry="0.955856" fill="#6C6CFF"/>
<ellipse cx="1075.38" cy="156.238" rx="0.963755" ry="0.955856" fill="#6C6CFF"/>
<ellipse cx="1094.78" cy="156.238" rx="0.963755" ry="0.955856" fill="#6C6CFF"/>
<ellipse cx="1114.18" cy="156.238" rx="0.963755" ry="0.955856" fill="#6C6CFF"/>
<ellipse cx="1133.59" cy="156.238" rx="0.963755" ry="0.955856" fill="#6C6CFF"/>
<ellipse cx="784.349" cy="175.481" rx="0.963755" ry="0.955856" fill="#6C6CFF"/>
<ellipse cx="803.752" cy="175.481" rx="0.963755" ry="0.955856" fill="#6C6CFF"/>
<ellipse cx="823.157" cy="175.481" rx="0.963755" ry="0.955856" fill="#6C6CFF"/>
<ellipse cx="842.556" cy="175.481" rx="0.963755" ry="0.955856" fill="#6C6CFF"/>
<ellipse cx="861.96" cy="175.481" rx="0.963755" ry="0.955856" fill="#6C6CFF"/>
<ellipse cx="881.36" cy="175.481" rx="0.963755" ry="0.955856" fill="#6C6CFF"/>
<ellipse cx="900.765" cy="175.481" rx="0.963755" ry="0.955856" fill="#6C6CFF"/>
<ellipse cx="920.162" cy="175.481" rx="0.963755" ry="0.955856" fill="#6C6CFF"/>
<ellipse cx="939.566" cy="175.481" rx="0.963755" ry="0.955856" fill="#6C6CFF"/>
<ellipse cx="958.97" cy="175.481" rx="0.963755" ry="0.955856" fill="#6C6CFF"/>
<ellipse cx="978.373" cy="175.481" rx="0.963755" ry="0.955856" fill="#6C6CFF"/>
<ellipse cx="997.773" cy="175.481" rx="0.963755" ry="0.955856" fill="#6C6CFF"/>
<ellipse cx="1017.17" cy="175.481" rx="0.963755" ry="0.955856" fill="#6C6CFF"/>
<ellipse cx="1036.58" cy="175.481" rx="0.963755" ry="0.955856" fill="#6C6CFF"/>
<ellipse cx="1055.98" cy="175.481" rx="0.963755" ry="0.955856" fill="#6C6CFF"/>
<ellipse cx="1075.38" cy="175.481" rx="0.963755" ry="0.955856" fill="#6C6CFF"/>
<ellipse cx="1094.78" cy="175.481" rx="0.963755" ry="0.955856" fill="#6C6CFF"/>
<ellipse cx="1114.18" cy="175.481" rx="0.963755" ry="0.955856" fill="#6C6CFF"/>
<ellipse cx="1133.59" cy="175.481" rx="0.963755" ry="0.955856" fill="#6C6CFF"/>
<ellipse cx="784.349" cy="194.724" rx="0.963755" ry="0.955856" fill="#6C6CFF"/>
<ellipse cx="803.752" cy="194.724" rx="0.963755" ry="0.955856" fill="#6C6CFF"/>
<ellipse cx="823.157" cy="194.724" rx="0.963755" ry="0.955856" fill="#6C6CFF"/>
<ellipse cx="842.556" cy="194.724" rx="0.963755" ry="0.955856" fill="#6C6CFF"/>
<ellipse cx="861.96" cy="194.724" rx="0.963755" ry="0.955856" fill="#6C6CFF"/>
<ellipse cx="881.36" cy="194.724" rx="0.963755" ry="0.955856" fill="#6C6CFF"/>
<ellipse cx="900.765" cy="194.724" rx="0.963755" ry="0.955856" fill="#6C6CFF"/>
<ellipse cx="920.162" cy="194.724" rx="0.963755" ry="0.955856" fill="#6C6CFF"/>
<ellipse cx="939.566" cy="194.724" rx="0.963755" ry="0.955856" fill="#6C6CFF"/>
<ellipse cx="958.97" cy="194.724" rx="0.963755" ry="0.955856" fill="#6C6CFF"/>
<ellipse cx="978.373" cy="194.724" rx="0.963755" ry="0.955856" fill="#6C6CFF"/>
<ellipse cx="997.773" cy="194.724" rx="0.963755" ry="0.955856" fill="#6C6CFF"/>
<ellipse cx="1017.17" cy="194.724" rx="0.963755" ry="0.955856" fill="#6C6CFF"/>
<ellipse cx="1036.58" cy="194.724" rx="0.963755" ry="0.955856" fill="#6C6CFF"/>
<ellipse cx="1055.98" cy="194.724" rx="0.963755" ry="0.955856" fill="#6C6CFF"/>
<ellipse cx="1075.38" cy="194.724" rx="0.963755" ry="0.955856" fill="#6C6CFF"/>
<ellipse cx="1094.78" cy="194.724" rx="0.963755" ry="0.955856" fill="#6C6CFF"/>
<ellipse cx="1114.18" cy="194.724" rx="0.963755" ry="0.955856" fill="#6C6CFF"/>
<ellipse cx="1133.59" cy="194.724" rx="0.963755" ry="0.955856" fill="#6C6CFF"/>
<ellipse cx="784.349" cy="213.968" rx="0.963755" ry="0.955856" fill="#6C6CFF"/>
<ellipse cx="803.752" cy="213.968" rx="0.963755" ry="0.955856" fill="#6C6CFF"/>
<ellipse cx="823.157" cy="213.968" rx="0.963755" ry="0.955856" fill="#6C6CFF"/>
<ellipse cx="842.556" cy="213.968" rx="0.963755" ry="0.955856" fill="#6C6CFF"/>
<ellipse cx="861.96" cy="213.968" rx="0.963755" ry="0.955856" fill="#6C6CFF"/>
<ellipse cx="881.36" cy="213.968" rx="0.963755" ry="0.955856" fill="#6C6CFF"/>
<ellipse cx="900.765" cy="213.968" rx="0.963755" ry="0.955856" fill="#6C6CFF"/>
<ellipse cx="920.162" cy="213.968" rx="0.963755" ry="0.955856" fill="#6C6CFF"/>
<ellipse cx="939.566" cy="213.968" rx="0.963755" ry="0.955856" fill="#6C6CFF"/>
<ellipse cx="958.97" cy="213.968" rx="0.963755" ry="0.955856" fill="#6C6CFF"/>
<ellipse cx="978.373" cy="213.968" rx="0.963755" ry="0.955856" fill="#6C6CFF"/>
<ellipse cx="997.773" cy="213.968" rx="0.963755" ry="0.955856" fill="#6C6CFF"/>
<ellipse cx="1017.17" cy="213.968" rx="0.963755" ry="0.955856" fill="#6C6CFF"/>
<ellipse cx="1036.58" cy="213.968" rx="0.963755" ry="0.955856" fill="#6C6CFF"/>
<ellipse cx="1055.98" cy="213.968" rx="0.963755" ry="0.955856" fill="#6C6CFF"/>
<ellipse cx="1075.38" cy="213.968" rx="0.963755" ry="0.955856" fill="#6C6CFF"/>
<ellipse cx="1094.78" cy="213.968" rx="0.963755" ry="0.955856" fill="#6C6CFF"/>
<ellipse cx="1114.18" cy="213.968" rx="0.963755" ry="0.955856" fill="#6C6CFF"/>
<ellipse cx="1133.59" cy="213.968" rx="0.963755" ry="0.955856" fill="#6C6CFF"/>
<ellipse cx="784.349" cy="233.21" rx="0.963755" ry="0.955856" fill="#6C6CFF"/>
<ellipse cx="803.752" cy="233.21" rx="0.963755" ry="0.955856" fill="#6C6CFF"/>
<ellipse cx="823.157" cy="233.21" rx="0.963755" ry="0.955856" fill="#6C6CFF"/>
<ellipse cx="842.556" cy="233.21" rx="0.963755" ry="0.955856" fill="#6C6CFF"/>
<ellipse cx="861.96" cy="233.21" rx="0.963755" ry="0.955856" fill="#6C6CFF"/>
<ellipse cx="881.36" cy="233.21" rx="0.963755" ry="0.955856" fill="#6C6CFF"/>
<ellipse cx="900.765" cy="233.21" rx="0.963755" ry="0.955856" fill="#6C6CFF"/>
<ellipse cx="920.162" cy="233.21" rx="0.963755" ry="0.955856" fill="#6C6CFF"/>
<ellipse cx="939.566" cy="233.21" rx="0.963755" ry="0.955856" fill="#6C6CFF"/>
<ellipse cx="958.97" cy="233.21" rx="0.963755" ry="0.955856" fill="#6C6CFF"/>
<ellipse cx="978.373" cy="233.21" rx="0.963755" ry="0.955856" fill="#6C6CFF"/>
<ellipse cx="997.773" cy="233.21" rx="0.963755" ry="0.955856" fill="#6C6CFF"/>
<ellipse cx="1017.17" cy="233.21" rx="0.963755" ry="0.955856" fill="#6C6CFF"/>
<ellipse cx="1036.58" cy="233.21" rx="0.963755" ry="0.955856" fill="#6C6CFF"/>
<ellipse cx="1055.98" cy="233.21" rx="0.963755" ry="0.955856" fill="#6C6CFF"/>
<ellipse cx="1075.38" cy="233.21" rx="0.963755" ry="0.955856" fill="#6C6CFF"/>
<ellipse cx="1094.78" cy="233.21" rx="0.963755" ry="0.955856" fill="#6C6CFF"/>
<ellipse cx="1114.18" cy="233.21" rx="0.963755" ry="0.955856" fill="#6C6CFF"/>
<ellipse cx="1133.59" cy="233.21" rx="0.963755" ry="0.955856" fill="#6C6CFF"/>
<ellipse cx="784.349" cy="252.452" rx="0.963755" ry="0.955856" fill="#6C6CFF"/>
<ellipse cx="803.752" cy="252.452" rx="0.963755" ry="0.955856" fill="#6C6CFF"/>
<ellipse cx="823.157" cy="252.452" rx="0.963755" ry="0.955856" fill="#6C6CFF"/>
<ellipse cx="842.556" cy="252.452" rx="0.963755" ry="0.955856" fill="#6C6CFF"/>
<ellipse cx="861.96" cy="252.452" rx="0.963755" ry="0.955856" fill="#6C6CFF"/>
<ellipse cx="881.36" cy="252.452" rx="0.963755" ry="0.955856" fill="#6C6CFF"/>
<ellipse cx="900.765" cy="252.452" rx="0.963755" ry="0.955856" fill="#6C6CFF"/>
<ellipse cx="920.162" cy="252.452" rx="0.963755" ry="0.955856" fill="#6C6CFF"/>
<ellipse cx="939.566" cy="252.452" rx="0.963755" ry="0.955856" fill="#6C6CFF"/>
<ellipse cx="958.97" cy="252.452" rx="0.963755" ry="0.955856" fill="#6C6CFF"/>
<ellipse cx="978.373" cy="252.452" rx="0.963755" ry="0.955856" fill="#6C6CFF"/>
<ellipse cx="997.773" cy="252.452" rx="0.963755" ry="0.955856" fill="#6C6CFF"/>
<ellipse cx="1017.17" cy="252.452" rx="0.963755" ry="0.955856" fill="#6C6CFF"/>
<ellipse cx="1036.58" cy="252.452" rx="0.963755" ry="0.955856" fill="#6C6CFF"/>
<ellipse cx="1055.98" cy="252.452" rx="0.963755" ry="0.955856" fill="#6C6CFF"/>
<ellipse cx="1075.38" cy="252.452" rx="0.963755" ry="0.955856" fill="#6C6CFF"/>
<ellipse cx="1094.78" cy="252.452" rx="0.963755" ry="0.955856" fill="#6C6CFF"/>
<ellipse cx="1114.18" cy="252.452" rx="0.963755" ry="0.955856" fill="#6C6CFF"/>
<ellipse cx="1133.59" cy="252.452" rx="0.963755" ry="0.955856" fill="#6C6CFF"/>
</g>
<g opacity="0.24">
<ellipse cx="8.34852" cy="2.29295" rx="0.963755" ry="0.955856" fill="#6C6CFF"/>
<ellipse cx="27.7518" cy="2.29289" rx="0.963755" ry="0.955856" fill="#6C6CFF"/>
<ellipse cx="47.1571" cy="2.29289" rx="0.963755" ry="0.955856" fill="#6C6CFF"/>
<ellipse cx="66.5555" cy="2.29289" rx="0.963755" ry="0.955856" fill="#6C6CFF"/>
<ellipse cx="85.9598" cy="2.29289" rx="0.963755" ry="0.955856" fill="#6C6CFF"/>
<ellipse cx="105.36" cy="2.29289" rx="0.963755" ry="0.955856" fill="#6C6CFF"/>
<ellipse cx="124.765" cy="2.29289" rx="0.963755" ry="0.955856" fill="#6C6CFF"/>
<ellipse cx="144.162" cy="2.29289" rx="0.963755" ry="0.955856" fill="#6C6CFF"/>
<ellipse cx="163.567" cy="2.29295" rx="0.963755" ry="0.955856" fill="#6C6CFF"/>
<ellipse cx="182.97" cy="2.29289" rx="0.963755" ry="0.955856" fill="#6C6CFF"/>
<ellipse cx="202.373" cy="2.29289" rx="0.963755" ry="0.955856" fill="#6C6CFF"/>
<ellipse cx="221.773" cy="2.29289" rx="0.963755" ry="0.955856" fill="#6C6CFF"/>
<ellipse cx="241.175" cy="2.29289" rx="0.963755" ry="0.955856" fill="#6C6CFF"/>
<ellipse cx="260.576" cy="2.29289" rx="0.963755" ry="0.955856" fill="#6C6CFF"/>
<ellipse cx="279.982" cy="2.29289" rx="0.963755" ry="0.955856" fill="#6C6CFF"/>
<ellipse cx="299.38" cy="2.29289" rx="0.963755" ry="0.955856" fill="#6C6CFF"/>
<ellipse cx="318.783" cy="2.29289" rx="0.963755" ry="0.955856" fill="#6C6CFF"/>
<ellipse cx="338.184" cy="2.29289" rx="0.963755" ry="0.955856" fill="#6C6CFF"/>
<ellipse cx="357.589" cy="2.29289" rx="0.963755" ry="0.955856" fill="#6C6CFF"/>
<ellipse cx="376.989" cy="2.29289" rx="0.963755" ry="0.955856" fill="#6C6CFF"/>
<ellipse cx="8.34852" cy="21.5362" rx="0.963755" ry="0.955856" fill="#6C6CFF"/>
<ellipse cx="27.7518" cy="21.5362" rx="0.963755" ry="0.955856" fill="#6C6CFF"/>
<ellipse cx="47.1571" cy="21.5362" rx="0.963755" ry="0.955856" fill="#6C6CFF"/>
<ellipse cx="66.5555" cy="21.5362" rx="0.963755" ry="0.955856" fill="#6C6CFF"/>
<ellipse cx="85.9598" cy="21.5362" rx="0.963755" ry="0.955856" fill="#6C6CFF"/>
<ellipse cx="105.36" cy="21.5362" rx="0.963755" ry="0.955856" fill="#6C6CFF"/>
<ellipse cx="124.765" cy="21.5362" rx="0.963755" ry="0.955856" fill="#6C6CFF"/>
<ellipse cx="144.162" cy="21.5362" rx="0.963755" ry="0.955856" fill="#6C6CFF"/>
<ellipse cx="163.567" cy="21.5362" rx="0.963755" ry="0.955856" fill="#6C6CFF"/>
<ellipse cx="182.97" cy="21.5362" rx="0.963755" ry="0.955856" fill="#6C6CFF"/>
<ellipse cx="202.373" cy="21.5362" rx="0.963755" ry="0.955856" fill="#6C6CFF"/>
<ellipse cx="221.773" cy="21.5362" rx="0.963755" ry="0.955856" fill="#6C6CFF"/>
<ellipse cx="241.175" cy="21.5362" rx="0.963755" ry="0.955856" fill="#6C6CFF"/>
<ellipse cx="260.576" cy="21.5362" rx="0.963755" ry="0.955856" fill="#6C6CFF"/>
<ellipse cx="279.982" cy="21.5362" rx="0.963755" ry="0.955856" fill="#6C6CFF"/>
<ellipse cx="299.38" cy="21.5362" rx="0.963755" ry="0.955856" fill="#6C6CFF"/>
<ellipse cx="318.783" cy="21.5362" rx="0.963755" ry="0.955856" fill="#6C6CFF"/>
<ellipse cx="338.184" cy="21.5362" rx="0.963755" ry="0.955856" fill="#6C6CFF"/>
<ellipse cx="357.589" cy="21.5362" rx="0.963755" ry="0.955856" fill="#6C6CFF"/>
<ellipse cx="376.989" cy="21.5362" rx="0.963755" ry="0.955856" fill="#6C6CFF"/>
<ellipse cx="8.34852" cy="40.7792" rx="0.963755" ry="0.955856" fill="#6C6CFF"/>
<ellipse cx="27.7518" cy="40.7792" rx="0.963755" ry="0.955856" fill="#6C6CFF"/>
<ellipse cx="47.1571" cy="40.7792" rx="0.963755" ry="0.955856" fill="#6C6CFF"/>
<ellipse cx="66.5555" cy="40.7792" rx="0.963755" ry="0.955856" fill="#6C6CFF"/>
<ellipse cx="85.9598" cy="40.7792" rx="0.963755" ry="0.955856" fill="#6C6CFF"/>
<ellipse cx="105.36" cy="40.7792" rx="0.963755" ry="0.955856" fill="#6C6CFF"/>
<ellipse cx="124.765" cy="40.7792" rx="0.963755" ry="0.955856" fill="#6C6CFF"/>
<ellipse cx="144.162" cy="40.7792" rx="0.963755" ry="0.955856" fill="#6C6CFF"/>
<ellipse cx="163.567" cy="40.7792" rx="0.963755" ry="0.955856" fill="#6C6CFF"/>
<ellipse cx="182.97" cy="40.7792" rx="0.963755" ry="0.955856" fill="#6C6CFF"/>
<ellipse cx="202.373" cy="40.7792" rx="0.963755" ry="0.955856" fill="#6C6CFF"/>
<ellipse cx="221.773" cy="40.7792" rx="0.963755" ry="0.955856" fill="#6C6CFF"/>
<ellipse cx="241.175" cy="40.7792" rx="0.963755" ry="0.955856" fill="#6C6CFF"/>
<ellipse cx="260.576" cy="40.7792" rx="0.963755" ry="0.955856" fill="#6C6CFF"/>
<ellipse cx="279.982" cy="40.7792" rx="0.963755" ry="0.955856" fill="#6C6CFF"/>
<ellipse cx="299.38" cy="40.7792" rx="0.963755" ry="0.955856" fill="#6C6CFF"/>
<ellipse cx="318.783" cy="40.7792" rx="0.963755" ry="0.955856" fill="#6C6CFF"/>
<ellipse cx="338.184" cy="40.7792" rx="0.963755" ry="0.955856" fill="#6C6CFF"/>
<ellipse cx="357.589" cy="40.7792" rx="0.963755" ry="0.955856" fill="#6C6CFF"/>
<ellipse cx="376.989" cy="40.7792" rx="0.963755" ry="0.955856" fill="#6C6CFF"/>
<ellipse cx="8.34852" cy="60.0228" rx="0.963755" ry="0.955856" fill="#6C6CFF"/>
<ellipse cx="27.7518" cy="60.0228" rx="0.963755" ry="0.955856" fill="#6C6CFF"/>
<ellipse cx="47.1571" cy="60.0228" rx="0.963755" ry="0.955856" fill="#6C6CFF"/>
<ellipse cx="66.5555" cy="60.0228" rx="0.963755" ry="0.955856" fill="#6C6CFF"/>
<ellipse cx="85.9598" cy="60.0228" rx="0.963755" ry="0.955856" fill="#6C6CFF"/>
<ellipse cx="105.36" cy="60.0228" rx="0.963755" ry="0.955856" fill="#6C6CFF"/>
<ellipse cx="124.765" cy="60.0228" rx="0.963755" ry="0.955856" fill="#6C6CFF"/>
<ellipse cx="144.162" cy="60.0228" rx="0.963755" ry="0.955856" fill="#6C6CFF"/>
<ellipse cx="163.567" cy="60.0228" rx="0.963755" ry="0.955856" fill="#6C6CFF"/>
<ellipse cx="182.97" cy="60.0228" rx="0.963755" ry="0.955856" fill="#6C6CFF"/>
<ellipse cx="202.373" cy="60.0228" rx="0.963755" ry="0.955856" fill="#6C6CFF"/>
<ellipse cx="221.773" cy="60.0228" rx="0.963755" ry="0.955856" fill="#6C6CFF"/>
<ellipse cx="241.175" cy="60.0228" rx="0.963755" ry="0.955856" fill="#6C6CFF"/>
<ellipse cx="260.576" cy="60.0228" rx="0.963755" ry="0.955856" fill="#6C6CFF"/>
<ellipse cx="279.982" cy="60.0228" rx="0.963755" ry="0.955856" fill="#6C6CFF"/>
<ellipse cx="299.38" cy="60.0228" rx="0.963755" ry="0.955856" fill="#6C6CFF"/>
<ellipse cx="318.783" cy="60.0228" rx="0.963755" ry="0.955856" fill="#6C6CFF"/>
<ellipse cx="338.184" cy="60.0228" rx="0.963755" ry="0.955856" fill="#6C6CFF"/>
<ellipse cx="357.589" cy="60.0228" rx="0.963755" ry="0.955856" fill="#6C6CFF"/>
<ellipse cx="376.989" cy="60.0228" rx="0.963755" ry="0.955856" fill="#6C6CFF"/>
<ellipse cx="8.34852" cy="79.2662" rx="0.963755" ry="0.955856" fill="#6C6CFF"/>
<ellipse cx="27.7518" cy="79.2662" rx="0.963755" ry="0.955856" fill="#6C6CFF"/>
<ellipse cx="47.1571" cy="79.2662" rx="0.963755" ry="0.955856" fill="#6C6CFF"/>
<ellipse cx="66.5555" cy="79.2662" rx="0.963755" ry="0.955856" fill="#6C6CFF"/>
<ellipse cx="85.9598" cy="79.2662" rx="0.963755" ry="0.955856" fill="#6C6CFF"/>
<ellipse cx="105.36" cy="79.2662" rx="0.963755" ry="0.955856" fill="#6C6CFF"/>
<ellipse cx="124.765" cy="79.2662" rx="0.963755" ry="0.955856" fill="#6C6CFF"/>
<ellipse cx="144.162" cy="79.2662" rx="0.963755" ry="0.955856" fill="#6C6CFF"/>
<ellipse cx="163.567" cy="79.2662" rx="0.963755" ry="0.955856" fill="#6C6CFF"/>
<ellipse cx="182.97" cy="79.2662" rx="0.963755" ry="0.955856" fill="#6C6CFF"/>
<ellipse cx="202.373" cy="79.2662" rx="0.963755" ry="0.955856" fill="#6C6CFF"/>
<ellipse cx="221.773" cy="79.2662" rx="0.963755" ry="0.955856" fill="#6C6CFF"/>
<ellipse cx="241.175" cy="79.2662" rx="0.963755" ry="0.955856" fill="#6C6CFF"/>
<ellipse cx="260.576" cy="79.2662" rx="0.963755" ry="0.955856" fill="#6C6CFF"/>
<ellipse cx="279.982" cy="79.2662" rx="0.963755" ry="0.955856" fill="#6C6CFF"/>
<ellipse cx="299.38" cy="79.2662" rx="0.963755" ry="0.955856" fill="#6C6CFF"/>
<ellipse cx="318.783" cy="79.2662" rx="0.963755" ry="0.955856" fill="#6C6CFF"/>
<ellipse cx="338.184" cy="79.2662" rx="0.963755" ry="0.955856" fill="#6C6CFF"/>
<ellipse cx="357.589" cy="79.2662" rx="0.963755" ry="0.955856" fill="#6C6CFF"/>
<ellipse cx="376.989" cy="79.2662" rx="0.963755" ry="0.955856" fill="#6C6CFF"/>
<ellipse cx="8.34852" cy="98.5087" rx="0.963755" ry="0.955856" fill="#6C6CFF"/>
<ellipse cx="27.7518" cy="98.5087" rx="0.963755" ry="0.955856" fill="#6C6CFF"/>
<ellipse cx="47.1571" cy="98.5087" rx="0.963755" ry="0.955856" fill="#6C6CFF"/>
<ellipse cx="66.5555" cy="98.5087" rx="0.963755" ry="0.955856" fill="#6C6CFF"/>
<ellipse cx="85.9598" cy="98.5087" rx="0.963755" ry="0.955856" fill="#6C6CFF"/>
<ellipse cx="105.36" cy="98.5087" rx="0.963755" ry="0.955856" fill="#6C6CFF"/>
<ellipse cx="124.765" cy="98.5087" rx="0.963755" ry="0.955856" fill="#6C6CFF"/>
<ellipse cx="144.162" cy="98.5087" rx="0.963755" ry="0.955856" fill="#6C6CFF"/>
<ellipse cx="163.567" cy="98.5087" rx="0.963755" ry="0.955856" fill="#6C6CFF"/>
<ellipse cx="182.97" cy="98.5087" rx="0.963755" ry="0.955856" fill="#6C6CFF"/>
<ellipse cx="202.373" cy="98.5087" rx="0.963755" ry="0.955856" fill="#6C6CFF"/>
<ellipse cx="221.773" cy="98.5087" rx="0.963755" ry="0.955856" fill="#6C6CFF"/>
<ellipse cx="241.175" cy="98.5087" rx="0.963755" ry="0.955856" fill="#6C6CFF"/>
<ellipse cx="260.576" cy="98.5087" rx="0.963755" ry="0.955856" fill="#6C6CFF"/>
<ellipse cx="279.982" cy="98.5087" rx="0.963755" ry="0.955856" fill="#6C6CFF"/>
<ellipse cx="299.38" cy="98.5087" rx="0.963755" ry="0.955856" fill="#6C6CFF"/>
<ellipse cx="318.783" cy="98.5087" rx="0.963755" ry="0.955856" fill="#6C6CFF"/>
<ellipse cx="338.184" cy="98.5087" rx="0.963755" ry="0.955856" fill="#6C6CFF"/>
<ellipse cx="357.589" cy="98.5087" rx="0.963755" ry="0.955856" fill="#6C6CFF"/>
<ellipse cx="376.989" cy="98.5087" rx="0.963755" ry="0.955856" fill="#6C6CFF"/>
<ellipse cx="8.34852" cy="117.751" rx="0.963755" ry="0.955856" fill="#6C6CFF"/>
<ellipse cx="27.7518" cy="117.751" rx="0.963755" ry="0.955856" fill="#6C6CFF"/>
<ellipse cx="47.1571" cy="117.751" rx="0.963755" ry="0.955856" fill="#6C6CFF"/>
<ellipse cx="66.5555" cy="117.751" rx="0.963755" ry="0.955856" fill="#6C6CFF"/>
<ellipse cx="85.9598" cy="117.751" rx="0.963755" ry="0.955856" fill="#6C6CFF"/>
<ellipse cx="105.36" cy="117.751" rx="0.963755" ry="0.955856" fill="#6C6CFF"/>
<ellipse cx="124.765" cy="117.751" rx="0.963755" ry="0.955856" fill="#6C6CFF"/>
<ellipse cx="144.162" cy="117.751" rx="0.963755" ry="0.955856" fill="#6C6CFF"/>
<ellipse cx="163.567" cy="117.751" rx="0.963755" ry="0.955856" fill="#6C6CFF"/>
<ellipse cx="182.97" cy="117.751" rx="0.963755" ry="0.955856" fill="#6C6CFF"/>
<ellipse cx="202.373" cy="117.751" rx="0.963755" ry="0.955856" fill="#6C6CFF"/>
<ellipse cx="221.773" cy="117.751" rx="0.963755" ry="0.955856" fill="#6C6CFF"/>
<ellipse cx="241.175" cy="117.751" rx="0.963755" ry="0.955856" fill="#6C6CFF"/>
<ellipse cx="260.576" cy="117.751" rx="0.963755" ry="0.955856" fill="#6C6CFF"/>
<ellipse cx="279.982" cy="117.751" rx="0.963755" ry="0.955856" fill="#6C6CFF"/>
<ellipse cx="299.38" cy="117.751" rx="0.963755" ry="0.955856" fill="#6C6CFF"/>
<ellipse cx="318.783" cy="117.751" rx="0.963755" ry="0.955856" fill="#6C6CFF"/>
<ellipse cx="338.184" cy="117.751" rx="0.963755" ry="0.955856" fill="#6C6CFF"/>
<ellipse cx="357.589" cy="117.751" rx="0.963755" ry="0.955856" fill="#6C6CFF"/>
<ellipse cx="376.989" cy="117.751" rx="0.963755" ry="0.955856" fill="#6C6CFF"/>
<ellipse cx="8.34852" cy="136.995" rx="0.963755" ry="0.955856" fill="#6C6CFF"/>
<ellipse cx="27.7518" cy="136.995" rx="0.963755" ry="0.955856" fill="#6C6CFF"/>
<ellipse cx="47.1571" cy="136.995" rx="0.963755" ry="0.955856" fill="#6C6CFF"/>
<ellipse cx="66.5555" cy="136.995" rx="0.963755" ry="0.955856" fill="#6C6CFF"/>
<ellipse cx="85.9598" cy="136.995" rx="0.963755" ry="0.955856" fill="#6C6CFF"/>
<ellipse cx="105.36" cy="136.995" rx="0.963755" ry="0.955856" fill="#6C6CFF"/>
<ellipse cx="124.765" cy="136.995" rx="0.963755" ry="0.955856" fill="#6C6CFF"/>
<ellipse cx="144.162" cy="136.995" rx="0.963755" ry="0.955856" fill="#6C6CFF"/>
<ellipse cx="163.567" cy="136.995" rx="0.963755" ry="0.955856" fill="#6C6CFF"/>
<ellipse cx="182.97" cy="136.995" rx="0.963755" ry="0.955856" fill="#6C6CFF"/>
<ellipse cx="202.373" cy="136.995" rx="0.963755" ry="0.955856" fill="#6C6CFF"/>
<ellipse cx="221.773" cy="136.995" rx="0.963755" ry="0.955856" fill="#6C6CFF"/>
<ellipse cx="241.175" cy="136.995" rx="0.963755" ry="0.955856" fill="#6C6CFF"/>
<ellipse cx="260.576" cy="136.995" rx="0.963755" ry="0.955856" fill="#6C6CFF"/>
<ellipse cx="279.982" cy="136.995" rx="0.963755" ry="0.955856" fill="#6C6CFF"/>
<ellipse cx="299.38" cy="136.995" rx="0.963755" ry="0.955856" fill="#6C6CFF"/>
<ellipse cx="318.783" cy="136.995" rx="0.963755" ry="0.955856" fill="#6C6CFF"/>
<ellipse cx="338.184" cy="136.995" rx="0.963755" ry="0.955856" fill="#6C6CFF"/>
<ellipse cx="357.589" cy="136.995" rx="0.963755" ry="0.955856" fill="#6C6CFF"/>
<ellipse cx="376.989" cy="136.995" rx="0.963755" ry="0.955856" fill="#6C6CFF"/>
<ellipse cx="8.34852" cy="156.238" rx="0.963755" ry="0.955856" fill="#6C6CFF"/>
<ellipse cx="27.7518" cy="156.238" rx="0.963755" ry="0.955856" fill="#6C6CFF"/>
<ellipse cx="47.1571" cy="156.238" rx="0.963755" ry="0.955856" fill="#6C6CFF"/>
<ellipse cx="66.5555" cy="156.238" rx="0.963755" ry="0.955856" fill="#6C6CFF"/>
<ellipse cx="85.9598" cy="156.238" rx="0.963755" ry="0.955856" fill="#6C6CFF"/>
<ellipse cx="105.36" cy="156.238" rx="0.963755" ry="0.955856" fill="#6C6CFF"/>
<ellipse cx="124.765" cy="156.238" rx="0.963755" ry="0.955856" fill="#6C6CFF"/>
<ellipse cx="144.162" cy="156.238" rx="0.963755" ry="0.955856" fill="#6C6CFF"/>
<ellipse cx="163.566" cy="156.238" rx="0.963755" ry="0.955856" fill="#6C6CFF"/>
<ellipse cx="182.97" cy="156.238" rx="0.963755" ry="0.955856" fill="#6C6CFF"/>
<ellipse cx="202.373" cy="156.238" rx="0.963755" ry="0.955856" fill="#6C6CFF"/>
<ellipse cx="221.773" cy="156.238" rx="0.963755" ry="0.955856" fill="#6C6CFF"/>
<ellipse cx="241.175" cy="156.238" rx="0.963755" ry="0.955856" fill="#6C6CFF"/>
<ellipse cx="260.576" cy="156.238" rx="0.963755" ry="0.955856" fill="#6C6CFF"/>
<ellipse cx="279.982" cy="156.238" rx="0.963755" ry="0.955856" fill="#6C6CFF"/>
<ellipse cx="299.38" cy="156.238" rx="0.963755" ry="0.955856" fill="#6C6CFF"/>
<ellipse cx="318.783" cy="156.238" rx="0.963755" ry="0.955856" fill="#6C6CFF"/>
<ellipse cx="338.184" cy="156.238" rx="0.963755" ry="0.955856" fill="#6C6CFF"/>
<ellipse cx="357.589" cy="156.238" rx="0.963755" ry="0.955856" fill="#6C6CFF"/>
<ellipse cx="376.989" cy="156.238" rx="0.963755" ry="0.955856" fill="#6C6CFF"/>
<ellipse cx="8.34852" cy="175.481" rx="0.963755" ry="0.955856" fill="#6C6CFF"/>
<ellipse cx="27.7518" cy="175.481" rx="0.963755" ry="0.955856" fill="#6C6CFF"/>
<ellipse cx="47.1571" cy="175.481" rx="0.963755" ry="0.955856" fill="#6C6CFF"/>
<ellipse cx="66.5555" cy="175.481" rx="0.963755" ry="0.955856" fill="#6C6CFF"/>
<ellipse cx="85.9598" cy="175.481" rx="0.963755" ry="0.955856" fill="#6C6CFF"/>
<ellipse cx="105.36" cy="175.481" rx="0.963755" ry="0.955856" fill="#6C6CFF"/>
<ellipse cx="124.765" cy="175.481" rx="0.963755" ry="0.955856" fill="#6C6CFF"/>
<ellipse cx="144.162" cy="175.481" rx="0.963755" ry="0.955856" fill="#6C6CFF"/>
<ellipse cx="163.566" cy="175.481" rx="0.963755" ry="0.955856" fill="#6C6CFF"/>
<ellipse cx="182.97" cy="175.481" rx="0.963755" ry="0.955856" fill="#6C6CFF"/>
<ellipse cx="202.373" cy="175.481" rx="0.963755" ry="0.955856" fill="#6C6CFF"/>
<ellipse cx="221.773" cy="175.481" rx="0.963755" ry="0.955856" fill="#6C6CFF"/>
<ellipse cx="241.175" cy="175.481" rx="0.963755" ry="0.955856" fill="#6C6CFF"/>
<ellipse cx="260.576" cy="175.481" rx="0.963755" ry="0.955856" fill="#6C6CFF"/>
<ellipse cx="279.982" cy="175.481" rx="0.963755" ry="0.955856" fill="#6C6CFF"/>
<ellipse cx="299.38" cy="175.481" rx="0.963755" ry="0.955856" fill="#6C6CFF"/>
<ellipse cx="318.783" cy="175.481" rx="0.963755" ry="0.955856" fill="#6C6CFF"/>
<ellipse cx="338.184" cy="175.481" rx="0.963755" ry="0.955856" fill="#6C6CFF"/>
<ellipse cx="357.589" cy="175.481" rx="0.963755" ry="0.955856" fill="#6C6CFF"/>
<ellipse cx="376.989" cy="175.481" rx="0.963755" ry="0.955856" fill="#6C6CFF"/>
<ellipse cx="8.34852" cy="194.724" rx="0.963755" ry="0.955856" fill="#6C6CFF"/>
<ellipse cx="27.7518" cy="194.724" rx="0.963755" ry="0.955856" fill="#6C6CFF"/>
<ellipse cx="47.1571" cy="194.724" rx="0.963755" ry="0.955856" fill="#6C6CFF"/>
<ellipse cx="66.5555" cy="194.724" rx="0.963755" ry="0.955856" fill="#6C6CFF"/>
<ellipse cx="85.9598" cy="194.724" rx="0.963755" ry="0.955856" fill="#6C6CFF"/>
<ellipse cx="105.36" cy="194.724" rx="0.963755" ry="0.955856" fill="#6C6CFF"/>
<ellipse cx="124.765" cy="194.724" rx="0.963755" ry="0.955856" fill="#6C6CFF"/>
<ellipse cx="144.162" cy="194.724" rx="0.963755" ry="0.955856" fill="#6C6CFF"/>
<ellipse cx="163.566" cy="194.724" rx="0.963755" ry="0.955856" fill="#6C6CFF"/>
<ellipse cx="182.97" cy="194.724" rx="0.963755" ry="0.955856" fill="#6C6CFF"/>
<ellipse cx="202.373" cy="194.724" rx="0.963755" ry="0.955856" fill="#6C6CFF"/>
<ellipse cx="221.773" cy="194.724" rx="0.963755" ry="0.955856" fill="#6C6CFF"/>
<ellipse cx="241.175" cy="194.724" rx="0.963755" ry="0.955856" fill="#6C6CFF"/>
<ellipse cx="260.576" cy="194.724" rx="0.963755" ry="0.955856" fill="#6C6CFF"/>
<ellipse cx="279.982" cy="194.724" rx="0.963755" ry="0.955856" fill="#6C6CFF"/>
<ellipse cx="299.38" cy="194.724" rx="0.963755" ry="0.955856" fill="#6C6CFF"/>
<ellipse cx="318.783" cy="194.724" rx="0.963755" ry="0.955856" fill="#6C6CFF"/>
<ellipse cx="338.184" cy="194.724" rx="0.963755" ry="0.955856" fill="#6C6CFF"/>
<ellipse cx="357.589" cy="194.724" rx="0.963755" ry="0.955856" fill="#6C6CFF"/>
<ellipse cx="376.989" cy="194.724" rx="0.963755" ry="0.955856" fill="#6C6CFF"/>
<ellipse cx="8.34852" cy="213.968" rx="0.963755" ry="0.955856" fill="#6C6CFF"/>
<ellipse cx="27.7518" cy="213.968" rx="0.963755" ry="0.955856" fill="#6C6CFF"/>
<ellipse cx="47.1571" cy="213.968" rx="0.963755" ry="0.955856" fill="#6C6CFF"/>
<ellipse cx="66.5555" cy="213.968" rx="0.963755" ry="0.955856" fill="#6C6CFF"/>
<ellipse cx="85.9598" cy="213.968" rx="0.963755" ry="0.955856" fill="#6C6CFF"/>
<ellipse cx="105.36" cy="213.968" rx="0.963755" ry="0.955856" fill="#6C6CFF"/>
<ellipse cx="124.765" cy="213.968" rx="0.963755" ry="0.955856" fill="#6C6CFF"/>
<ellipse cx="144.162" cy="213.968" rx="0.963755" ry="0.955856" fill="#6C6CFF"/>
<ellipse cx="163.566" cy="213.968" rx="0.963755" ry="0.955856" fill="#6C6CFF"/>
<ellipse cx="182.97" cy="213.968" rx="0.963755" ry="0.955856" fill="#6C6CFF"/>
<ellipse cx="202.373" cy="213.968" rx="0.963755" ry="0.955856" fill="#6C6CFF"/>
<ellipse cx="221.773" cy="213.968" rx="0.963755" ry="0.955856" fill="#6C6CFF"/>
<ellipse cx="241.175" cy="213.968" rx="0.963755" ry="0.955856" fill="#6C6CFF"/>
<ellipse cx="260.576" cy="213.968" rx="0.963755" ry="0.955856" fill="#6C6CFF"/>
<ellipse cx="279.982" cy="213.968" rx="0.963755" ry="0.955856" fill="#6C6CFF"/>
<ellipse cx="299.38" cy="213.968" rx="0.963755" ry="0.955856" fill="#6C6CFF"/>
<ellipse cx="318.783" cy="213.968" rx="0.963755" ry="0.955856" fill="#6C6CFF"/>
<ellipse cx="338.184" cy="213.968" rx="0.963755" ry="0.955856" fill="#6C6CFF"/>
<ellipse cx="357.589" cy="213.968" rx="0.963755" ry="0.955856" fill="#6C6CFF"/>
<ellipse cx="376.989" cy="213.968" rx="0.963755" ry="0.955856" fill="#6C6CFF"/>
<ellipse cx="8.34852" cy="233.21" rx="0.963755" ry="0.955856" fill="#6C6CFF"/>
<ellipse cx="27.7518" cy="233.21" rx="0.963755" ry="0.955856" fill="#6C6CFF"/>
<ellipse cx="47.1571" cy="233.21" rx="0.963755" ry="0.955856" fill="#6C6CFF"/>
<ellipse cx="66.5555" cy="233.21" rx="0.963755" ry="0.955856" fill="#6C6CFF"/>
<ellipse cx="85.9598" cy="233.21" rx="0.963755" ry="0.955856" fill="#6C6CFF"/>
<ellipse cx="105.36" cy="233.21" rx="0.963755" ry="0.955856" fill="#6C6CFF"/>
<ellipse cx="124.765" cy="233.21" rx="0.963755" ry="0.955856" fill="#6C6CFF"/>
<ellipse cx="144.162" cy="233.21" rx="0.963755" ry="0.955856" fill="#6C6CFF"/>
<ellipse cx="163.566" cy="233.21" rx="0.963755" ry="0.955856" fill="#6C6CFF"/>
<ellipse cx="182.97" cy="233.21" rx="0.963755" ry="0.955856" fill="#6C6CFF"/>
<ellipse cx="202.373" cy="233.21" rx="0.963755" ry="0.955856" fill="#6C6CFF"/>
<ellipse cx="221.773" cy="233.21" rx="0.963755" ry="0.955856" fill="#6C6CFF"/>
<ellipse cx="241.175" cy="233.21" rx="0.963755" ry="0.955856" fill="#6C6CFF"/>
<ellipse cx="260.576" cy="233.21" rx="0.963755" ry="0.955856" fill="#6C6CFF"/>
<ellipse cx="279.982" cy="233.21" rx="0.963755" ry="0.955856" fill="#6C6CFF"/>
<ellipse cx="299.38" cy="233.21" rx="0.963755" ry="0.955856" fill="#6C6CFF"/>
<ellipse cx="318.783" cy="233.21" rx="0.963755" ry="0.955856" fill="#6C6CFF"/>
<ellipse cx="338.184" cy="233.21" rx="0.963755" ry="0.955856" fill="#6C6CFF"/>
<ellipse cx="357.589" cy="233.21" rx="0.963755" ry="0.955856" fill="#6C6CFF"/>
<ellipse cx="376.989" cy="233.21" rx="0.963755" ry="0.955856" fill="#6C6CFF"/>
<ellipse cx="8.34852" cy="252.452" rx="0.963755" ry="0.955856" fill="#6C6CFF"/>
<ellipse cx="27.7518" cy="252.452" rx="0.963755" ry="0.955856" fill="#6C6CFF"/>
<ellipse cx="47.1571" cy="252.452" rx="0.963755" ry="0.955856" fill="#6C6CFF"/>
<ellipse cx="66.5555" cy="252.452" rx="0.963755" ry="0.955856" fill="#6C6CFF"/>
<ellipse cx="85.9598" cy="252.452" rx="0.963755" ry="0.955856" fill="#6C6CFF"/>
<ellipse cx="105.36" cy="252.452" rx="0.963755" ry="0.955856" fill="#6C6CFF"/>
<ellipse cx="124.765" cy="252.452" rx="0.963755" ry="0.955856" fill="#6C6CFF"/>
<ellipse cx="144.162" cy="252.452" rx="0.963755" ry="0.955856" fill="#6C6CFF"/>
<ellipse cx="163.566" cy="252.452" rx="0.963755" ry="0.955856" fill="#6C6CFF"/>
<ellipse cx="182.97" cy="252.452" rx="0.963755" ry="0.955856" fill="#6C6CFF"/>
<ellipse cx="202.373" cy="252.452" rx="0.963755" ry="0.955856" fill="#6C6CFF"/>
<ellipse cx="221.773" cy="252.452" rx="0.963755" ry="0.955856" fill="#6C6CFF"/>
<ellipse cx="241.175" cy="252.452" rx="0.963755" ry="0.955856" fill="#6C6CFF"/>
<ellipse cx="260.576" cy="252.452" rx="0.963755" ry="0.955856" fill="#6C6CFF"/>
<ellipse cx="279.982" cy="252.452" rx="0.963755" ry="0.955856" fill="#6C6CFF"/>
<ellipse cx="299.38" cy="252.452" rx="0.963755" ry="0.955856" fill="#6C6CFF"/>
<ellipse cx="318.783" cy="252.452" rx="0.963755" ry="0.955856" fill="#6C6CFF"/>
<ellipse cx="338.184" cy="252.452" rx="0.963755" ry="0.955856" fill="#6C6CFF"/>
<ellipse cx="357.589" cy="252.452" rx="0.963755" ry="0.955856" fill="#6C6CFF"/>
<ellipse cx="376.989" cy="252.452" rx="0.963755" ry="0.955856" fill="#6C6CFF"/>
</g>
<g opacity="0.24">
<ellipse cx="396.276" cy="2.29289" rx="0.963755" ry="0.955856" fill="#6C6CFF"/>
<ellipse cx="415.68" cy="2.29289" rx="0.963755" ry="0.955856" fill="#6C6CFF"/>
<ellipse cx="435.085" cy="2.29289" rx="0.963755" ry="0.955856" fill="#6C6CFF"/>
<ellipse cx="454.483" cy="2.29289" rx="0.963755" ry="0.955856" fill="#6C6CFF"/>
<ellipse cx="473.888" cy="2.29289" rx="0.963755" ry="0.955856" fill="#6C6CFF"/>
<ellipse cx="493.288" cy="2.29289" rx="0.963755" ry="0.955856" fill="#6C6CFF"/>
<ellipse cx="512.692" cy="2.29289" rx="0.963755" ry="0.955856" fill="#6C6CFF"/>
<ellipse cx="532.09" cy="2.29289" rx="0.963755" ry="0.955856" fill="#6C6CFF"/>
<ellipse cx="551.495" cy="2.29289" rx="0.963755" ry="0.955856" fill="#6C6CFF"/>
<ellipse cx="570.897" cy="2.29289" rx="0.963755" ry="0.955856" fill="#6C6CFF"/>
<ellipse cx="590.301" cy="2.29289" rx="0.963755" ry="0.955856" fill="#6C6CFF"/>
<ellipse cx="609.701" cy="2.29289" rx="0.963755" ry="0.955856" fill="#6C6CFF"/>
<ellipse cx="629.102" cy="2.29289" rx="0.963755" ry="0.955856" fill="#6C6CFF"/>
<ellipse cx="648.504" cy="2.29289" rx="0.963755" ry="0.955856" fill="#6C6CFF"/>
<ellipse cx="667.91" cy="2.29289" rx="0.963755" ry="0.955856" fill="#6C6CFF"/>
<ellipse cx="687.307" cy="2.29289" rx="0.963755" ry="0.955856" fill="#6C6CFF"/>
<ellipse cx="706.711" cy="2.29289" rx="0.963755" ry="0.955856" fill="#6C6CFF"/>
<ellipse cx="726.112" cy="2.29289" rx="0.963755" ry="0.955856" fill="#6C6CFF"/>
<ellipse cx="745.516" cy="2.29289" rx="0.963755" ry="0.955856" fill="#6C6CFF"/>
<ellipse cx="764.917" cy="2.29289" rx="0.963755" ry="0.955856" fill="#6C6CFF"/>
<ellipse cx="396.276" cy="21.5362" rx="0.963755" ry="0.955856" fill="#6C6CFF"/>
<ellipse cx="415.68" cy="21.5362" rx="0.963755" ry="0.955856" fill="#6C6CFF"/>
<ellipse cx="435.085" cy="21.5362" rx="0.963755" ry="0.955856" fill="#6C6CFF"/>
<ellipse cx="454.483" cy="21.5362" rx="0.963755" ry="0.955856" fill="#6C6CFF"/>
<ellipse cx="473.888" cy="21.5362" rx="0.963755" ry="0.955856" fill="#6C6CFF"/>
<ellipse cx="493.288" cy="21.5362" rx="0.963755" ry="0.955856" fill="#6C6CFF"/>
<ellipse cx="512.692" cy="21.5362" rx="0.963755" ry="0.955856" fill="#6C6CFF"/>
<ellipse cx="532.09" cy="21.5362" rx="0.963755" ry="0.955856" fill="#6C6CFF"/>
<ellipse cx="551.495" cy="21.5362" rx="0.963755" ry="0.955856" fill="#6C6CFF"/>
<ellipse cx="570.897" cy="21.5362" rx="0.963755" ry="0.955856" fill="#6C6CFF"/>
<ellipse cx="590.301" cy="21.5362" rx="0.963755" ry="0.955856" fill="#6C6CFF"/>
<ellipse cx="609.701" cy="21.5362" rx="0.963755" ry="0.955856" fill="#6C6CFF"/>
<ellipse cx="629.102" cy="21.5362" rx="0.963755" ry="0.955856" fill="#6C6CFF"/>
<ellipse cx="648.504" cy="21.5362" rx="0.963755" ry="0.955856" fill="#6C6CFF"/>
<ellipse cx="667.91" cy="21.5362" rx="0.963755" ry="0.955856" fill="#6C6CFF"/>
<ellipse cx="687.307" cy="21.5362" rx="0.963755" ry="0.955856" fill="#6C6CFF"/>
<ellipse cx="706.711" cy="21.5362" rx="0.963755" ry="0.955856" fill="#6C6CFF"/>
<ellipse cx="726.112" cy="21.5362" rx="0.963755" ry="0.955856" fill="#6C6CFF"/>
<ellipse cx="745.516" cy="21.5362" rx="0.963755" ry="0.955856" fill="#6C6CFF"/>
<ellipse cx="764.917" cy="21.5362" rx="0.963755" ry="0.955856" fill="#6C6CFF"/>
<ellipse cx="396.276" cy="40.7792" rx="0.963755" ry="0.955856" fill="#6C6CFF"/>
<ellipse cx="415.68" cy="40.7792" rx="0.963755" ry="0.955856" fill="#6C6CFF"/>
<ellipse cx="435.085" cy="40.7792" rx="0.963755" ry="0.955856" fill="#6C6CFF"/>
<ellipse cx="454.483" cy="40.7792" rx="0.963755" ry="0.955856" fill="#6C6CFF"/>
<ellipse cx="473.888" cy="40.7792" rx="0.963755" ry="0.955856" fill="#6C6CFF"/>
<ellipse cx="493.288" cy="40.7792" rx="0.963755" ry="0.955856" fill="#6C6CFF"/>
<ellipse cx="512.692" cy="40.7792" rx="0.963755" ry="0.955856" fill="#6C6CFF"/>
<ellipse cx="532.09" cy="40.7792" rx="0.963755" ry="0.955856" fill="#6C6CFF"/>
<ellipse cx="551.495" cy="40.7792" rx="0.963755" ry="0.955856" fill="#6C6CFF"/>
<ellipse cx="570.897" cy="40.7792" rx="0.963755" ry="0.955856" fill="#6C6CFF"/>
<ellipse cx="590.301" cy="40.7792" rx="0.963755" ry="0.955856" fill="#6C6CFF"/>
<ellipse cx="609.701" cy="40.7792" rx="0.963755" ry="0.955856" fill="#6C6CFF"/>
<ellipse cx="629.102" cy="40.7792" rx="0.963755" ry="0.955856" fill="#6C6CFF"/>
<ellipse cx="648.504" cy="40.7792" rx="0.963755" ry="0.955856" fill="#6C6CFF"/>
<ellipse cx="667.91" cy="40.7792" rx="0.963755" ry="0.955856" fill="#6C6CFF"/>
<ellipse cx="687.307" cy="40.7792" rx="0.963755" ry="0.955856" fill="#6C6CFF"/>
<ellipse cx="706.711" cy="40.7792" rx="0.963755" ry="0.955856" fill="#6C6CFF"/>
<ellipse cx="726.112" cy="40.7792" rx="0.963755" ry="0.955856" fill="#6C6CFF"/>
<ellipse cx="745.516" cy="40.7792" rx="0.963755" ry="0.955856" fill="#6C6CFF"/>
<ellipse cx="764.917" cy="40.7792" rx="0.963755" ry="0.955856" fill="#6C6CFF"/>
<ellipse cx="396.276" cy="60.0228" rx="0.963755" ry="0.955856" fill="#6C6CFF"/>
<ellipse cx="415.68" cy="60.0228" rx="0.963755" ry="0.955856" fill="#6C6CFF"/>
<ellipse cx="435.085" cy="60.0228" rx="0.963755" ry="0.955856" fill="#6C6CFF"/>
<ellipse cx="454.483" cy="60.0228" rx="0.963755" ry="0.955856" fill="#6C6CFF"/>
<ellipse cx="473.888" cy="60.0228" rx="0.963755" ry="0.955856" fill="#6C6CFF"/>
<ellipse cx="493.288" cy="60.0228" rx="0.963755" ry="0.955856" fill="#6C6CFF"/>
<ellipse cx="512.692" cy="60.0228" rx="0.963755" ry="0.955856" fill="#6C6CFF"/>
<ellipse cx="532.09" cy="60.0228" rx="0.963755" ry="0.955856" fill="#6C6CFF"/>
<ellipse cx="551.495" cy="60.0228" rx="0.963755" ry="0.955856" fill="#6C6CFF"/>
<ellipse cx="570.897" cy="60.0228" rx="0.963755" ry="0.955856" fill="#6C6CFF"/>
<ellipse cx="590.301" cy="60.0228" rx="0.963755" ry="0.955856" fill="#6C6CFF"/>
<ellipse cx="609.701" cy="60.0228" rx="0.963755" ry="0.955856" fill="#6C6CFF"/>
<ellipse cx="629.102" cy="60.0228" rx="0.963755" ry="0.955856" fill="#6C6CFF"/>
<ellipse cx="648.504" cy="60.0228" rx="0.963755" ry="0.955856" fill="#6C6CFF"/>
<ellipse cx="667.91" cy="60.0228" rx="0.963755" ry="0.955856" fill="#6C6CFF"/>
<ellipse cx="687.307" cy="60.0228" rx="0.963755" ry="0.955856" fill="#6C6CFF"/>
<ellipse cx="706.711" cy="60.0228" rx="0.963755" ry="0.955856" fill="#6C6CFF"/>
<ellipse cx="726.112" cy="60.0228" rx="0.963755" ry="0.955856" fill="#6C6CFF"/>
<ellipse cx="745.516" cy="60.0228" rx="0.963755" ry="0.955856" fill="#6C6CFF"/>
<ellipse cx="764.917" cy="60.0228" rx="0.963755" ry="0.955856" fill="#6C6CFF"/>
<ellipse cx="396.276" cy="79.2662" rx="0.963755" ry="0.955856" fill="#6C6CFF"/>
<ellipse cx="415.68" cy="79.2662" rx="0.963755" ry="0.955856" fill="#6C6CFF"/>
<ellipse cx="435.085" cy="79.2662" rx="0.963755" ry="0.955856" fill="#6C6CFF"/>
<ellipse cx="454.483" cy="79.2662" rx="0.963755" ry="0.955856" fill="#6C6CFF"/>
<ellipse cx="473.888" cy="79.2662" rx="0.963755" ry="0.955856" fill="#6C6CFF"/>
<ellipse cx="493.288" cy="79.2662" rx="0.963755" ry="0.955856" fill="#6C6CFF"/>
<ellipse cx="512.692" cy="79.2662" rx="0.963755" ry="0.955856" fill="#6C6CFF"/>
<ellipse cx="532.09" cy="79.2662" rx="0.963755" ry="0.955856" fill="#6C6CFF"/>
<ellipse cx="551.495" cy="79.2662" rx="0.963755" ry="0.955856" fill="#6C6CFF"/>
<ellipse cx="570.897" cy="79.2662" rx="0.963755" ry="0.955856" fill="#6C6CFF"/>
<ellipse cx="590.301" cy="79.2662" rx="0.963755" ry="0.955856" fill="#6C6CFF"/>
<ellipse cx="609.701" cy="79.2662" rx="0.963755" ry="0.955856" fill="#6C6CFF"/>
<ellipse cx="629.102" cy="79.2662" rx="0.963755" ry="0.955856" fill="#6C6CFF"/>
<ellipse cx="648.504" cy="79.2662" rx="0.963755" ry="0.955856" fill="#6C6CFF"/>
<ellipse cx="667.91" cy="79.2662" rx="0.963755" ry="0.955856" fill="#6C6CFF"/>
<ellipse cx="687.307" cy="79.2662" rx="0.963755" ry="0.955856" fill="#6C6CFF"/>
<ellipse cx="706.711" cy="79.2662" rx="0.963755" ry="0.955856" fill="#6C6CFF"/>
<ellipse cx="726.112" cy="79.2662" rx="0.963755" ry="0.955856" fill="#6C6CFF"/>
<ellipse cx="745.516" cy="79.2662" rx="0.963755" ry="0.955856" fill="#6C6CFF"/>
<ellipse cx="764.917" cy="79.2662" rx="0.963755" ry="0.955856" fill="#6C6CFF"/>
<ellipse cx="396.276" cy="98.5087" rx="0.963755" ry="0.955856" fill="#6C6CFF"/>
<ellipse cx="415.68" cy="98.5087" rx="0.963755" ry="0.955856" fill="#6C6CFF"/>
<ellipse cx="435.085" cy="98.5087" rx="0.963755" ry="0.955856" fill="#6C6CFF"/>
<ellipse cx="454.483" cy="98.5087" rx="0.963755" ry="0.955856" fill="#6C6CFF"/>
<ellipse cx="473.888" cy="98.5087" rx="0.963755" ry="0.955856" fill="#6C6CFF"/>
<ellipse cx="493.288" cy="98.5087" rx="0.963755" ry="0.955856" fill="#6C6CFF"/>
<ellipse cx="512.692" cy="98.5087" rx="0.963755" ry="0.955856" fill="#6C6CFF"/>
<ellipse cx="532.09" cy="98.5087" rx="0.963755" ry="0.955856" fill="#6C6CFF"/>
<ellipse cx="551.495" cy="98.5087" rx="0.963755" ry="0.955856" fill="#6C6CFF"/>
<ellipse cx="570.897" cy="98.5087" rx="0.963755" ry="0.955856" fill="#6C6CFF"/>
<ellipse cx="590.301" cy="98.5087" rx="0.963755" ry="0.955856" fill="#6C6CFF"/>
<ellipse cx="609.701" cy="98.5087" rx="0.963755" ry="0.955856" fill="#6C6CFF"/>
<ellipse cx="629.102" cy="98.5087" rx="0.963755" ry="0.955856" fill="#6C6CFF"/>
<ellipse cx="648.504" cy="98.5087" rx="0.963755" ry="0.955856" fill="#6C6CFF"/>
<ellipse cx="667.91" cy="98.5087" rx="0.963755" ry="0.955856" fill="#6C6CFF"/>
<ellipse cx="687.307" cy="98.5087" rx="0.963755" ry="0.955856" fill="#6C6CFF"/>
<ellipse cx="706.711" cy="98.5087" rx="0.963755" ry="0.955856" fill="#6C6CFF"/>
<ellipse cx="726.112" cy="98.5087" rx="0.963755" ry="0.955856" fill="#6C6CFF"/>
<ellipse cx="745.516" cy="98.5087" rx="0.963755" ry="0.955856" fill="#6C6CFF"/>
<ellipse cx="764.917" cy="98.5087" rx="0.963755" ry="0.955856" fill="#6C6CFF"/>
<ellipse cx="396.276" cy="117.751" rx="0.963755" ry="0.955856" fill="#6C6CFF"/>
<ellipse cx="415.68" cy="117.751" rx="0.963755" ry="0.955856" fill="#6C6CFF"/>
<ellipse cx="435.085" cy="117.751" rx="0.963755" ry="0.955856" fill="#6C6CFF"/>
<ellipse cx="454.483" cy="117.751" rx="0.963755" ry="0.955856" fill="#6C6CFF"/>
<ellipse cx="473.888" cy="117.751" rx="0.963755" ry="0.955856" fill="#6C6CFF"/>
<ellipse cx="493.288" cy="117.751" rx="0.963755" ry="0.955856" fill="#6C6CFF"/>
<ellipse cx="512.692" cy="117.751" rx="0.963755" ry="0.955856" fill="#6C6CFF"/>
<ellipse cx="532.09" cy="117.751" rx="0.963755" ry="0.955856" fill="#6C6CFF"/>
<ellipse cx="551.495" cy="117.751" rx="0.963755" ry="0.955856" fill="#6C6CFF"/>
<ellipse cx="570.897" cy="117.751" rx="0.963755" ry="0.955856" fill="#6C6CFF"/>
<ellipse cx="590.301" cy="117.751" rx="0.963755" ry="0.955856" fill="#6C6CFF"/>
<ellipse cx="609.701" cy="117.751" rx="0.963755" ry="0.955856" fill="#6C6CFF"/>
<ellipse cx="629.102" cy="117.751" rx="0.963755" ry="0.955856" fill="#6C6CFF"/>
<ellipse cx="648.504" cy="117.751" rx="0.963755" ry="0.955856" fill="#6C6CFF"/>
<ellipse cx="667.91" cy="117.751" rx="0.963755" ry="0.955856" fill="#6C6CFF"/>
<ellipse cx="687.307" cy="117.751" rx="0.963755" ry="0.955856" fill="#6C6CFF"/>
<ellipse cx="706.711" cy="117.751" rx="0.963755" ry="0.955856" fill="#6C6CFF"/>
<ellipse cx="726.112" cy="117.751" rx="0.963755" ry="0.955856" fill="#6C6CFF"/>
<ellipse cx="745.516" cy="117.751" rx="0.963755" ry="0.955856" fill="#6C6CFF"/>
<ellipse cx="764.917" cy="117.751" rx="0.963755" ry="0.955856" fill="#6C6CFF"/>
<ellipse cx="396.276" cy="136.995" rx="0.963755" ry="0.955856" fill="#6C6CFF"/>
<ellipse cx="415.68" cy="136.995" rx="0.963755" ry="0.955856" fill="#6C6CFF"/>
<ellipse cx="435.085" cy="136.995" rx="0.963755" ry="0.955856" fill="#6C6CFF"/>
<ellipse cx="454.483" cy="136.995" rx="0.963755" ry="0.955856" fill="#6C6CFF"/>
<ellipse cx="473.888" cy="136.995" rx="0.963755" ry="0.955856" fill="#6C6CFF"/>
<ellipse cx="493.288" cy="136.995" rx="0.963755" ry="0.955856" fill="#6C6CFF"/>
<ellipse cx="512.692" cy="136.995" rx="0.963755" ry="0.955856" fill="#6C6CFF"/>
<ellipse cx="532.09" cy="136.995" rx="0.963755" ry="0.955856" fill="#6C6CFF"/>
<ellipse cx="551.495" cy="136.995" rx="0.963755" ry="0.955856" fill="#6C6CFF"/>
<ellipse cx="570.897" cy="136.995" rx="0.963755" ry="0.955856" fill="#6C6CFF"/>
<ellipse cx="590.301" cy="136.995" rx="0.963755" ry="0.955856" fill="#6C6CFF"/>
<ellipse cx="609.701" cy="136.995" rx="0.963755" ry="0.955856" fill="#6C6CFF"/>
<ellipse cx="629.102" cy="136.995" rx="0.963755" ry="0.955856" fill="#6C6CFF"/>
<ellipse cx="648.504" cy="136.995" rx="0.963755" ry="0.955856" fill="#6C6CFF"/>
<ellipse cx="667.91" cy="136.995" rx="0.963755" ry="0.955856" fill="#6C6CFF"/>
<ellipse cx="687.307" cy="136.995" rx="0.963755" ry="0.955856" fill="#6C6CFF"/>
<ellipse cx="706.711" cy="136.995" rx="0.963755" ry="0.955856" fill="#6C6CFF"/>
<ellipse cx="726.112" cy="136.995" rx="0.963755" ry="0.955856" fill="#6C6CFF"/>
<ellipse cx="745.516" cy="136.995" rx="0.963755" ry="0.955856" fill="#6C6CFF"/>
<ellipse cx="764.917" cy="136.995" rx="0.963755" ry="0.955856" fill="#6C6CFF"/>
<ellipse cx="396.276" cy="156.238" rx="0.963755" ry="0.955856" fill="#6C6CFF"/>
<ellipse cx="415.68" cy="156.238" rx="0.963755" ry="0.955856" fill="#6C6CFF"/>
<ellipse cx="435.085" cy="156.238" rx="0.963755" ry="0.955856" fill="#6C6CFF"/>
<ellipse cx="454.483" cy="156.238" rx="0.963755" ry="0.955856" fill="#6C6CFF"/>
<ellipse cx="473.888" cy="156.238" rx="0.963755" ry="0.955856" fill="#6C6CFF"/>
<ellipse cx="493.288" cy="156.238" rx="0.963755" ry="0.955856" fill="#6C6CFF"/>
<ellipse cx="512.692" cy="156.238" rx="0.963755" ry="0.955856" fill="#6C6CFF"/>
<ellipse cx="532.09" cy="156.238" rx="0.963755" ry="0.955856" fill="#6C6CFF"/>
<ellipse cx="551.494" cy="156.238" rx="0.963755" ry="0.955856" fill="#6C6CFF"/>
<ellipse cx="570.897" cy="156.238" rx="0.963755" ry="0.955856" fill="#6C6CFF"/>
<ellipse cx="590.301" cy="156.238" rx="0.963755" ry="0.955856" fill="#6C6CFF"/>
<ellipse cx="609.701" cy="156.238" rx="0.963755" ry="0.955856" fill="#6C6CFF"/>
<ellipse cx="629.102" cy="156.238" rx="0.963755" ry="0.955856" fill="#6C6CFF"/>
<ellipse cx="648.504" cy="156.238" rx="0.963755" ry="0.955856" fill="#6C6CFF"/>
<ellipse cx="667.91" cy="156.238" rx="0.963755" ry="0.955856" fill="#6C6CFF"/>
<ellipse cx="687.307" cy="156.238" rx="0.963755" ry="0.955856" fill="#6C6CFF"/>
<ellipse cx="706.711" cy="156.238" rx="0.963755" ry="0.955856" fill="#6C6CFF"/>
<ellipse cx="726.112" cy="156.238" rx="0.963755" ry="0.955856" fill="#6C6CFF"/>
<ellipse cx="745.516" cy="156.238" rx="0.963755" ry="0.955856" fill="#6C6CFF"/>
<ellipse cx="764.917" cy="156.238" rx="0.963755" ry="0.955856" fill="#6C6CFF"/>
<ellipse cx="396.276" cy="175.481" rx="0.963755" ry="0.955856" fill="#6C6CFF"/>
<ellipse cx="415.68" cy="175.481" rx="0.963755" ry="0.955856" fill="#6C6CFF"/>
<ellipse cx="435.085" cy="175.481" rx="0.963755" ry="0.955856" fill="#6C6CFF"/>
<ellipse cx="454.483" cy="175.481" rx="0.963755" ry="0.955856" fill="#6C6CFF"/>
<ellipse cx="473.888" cy="175.481" rx="0.963755" ry="0.955856" fill="#6C6CFF"/>
<ellipse cx="493.288" cy="175.481" rx="0.963755" ry="0.955856" fill="#6C6CFF"/>
<ellipse cx="512.692" cy="175.481" rx="0.963755" ry="0.955856" fill="#6C6CFF"/>
<ellipse cx="532.09" cy="175.481" rx="0.963755" ry="0.955856" fill="#6C6CFF"/>
<ellipse cx="551.494" cy="175.481" rx="0.963755" ry="0.955856" fill="#6C6CFF"/>
<ellipse cx="570.897" cy="175.481" rx="0.963755" ry="0.955856" fill="#6C6CFF"/>
<ellipse cx="590.301" cy="175.481" rx="0.963755" ry="0.955856" fill="#6C6CFF"/>
<ellipse cx="609.701" cy="175.481" rx="0.963755" ry="0.955856" fill="#6C6CFF"/>
<ellipse cx="629.102" cy="175.481" rx="0.963755" ry="0.955856" fill="#6C6CFF"/>
<ellipse cx="648.504" cy="175.481" rx="0.963755" ry="0.955856" fill="#6C6CFF"/>
<ellipse cx="667.91" cy="175.481" rx="0.963755" ry="0.955856" fill="#6C6CFF"/>
<ellipse cx="687.307" cy="175.481" rx="0.963755" ry="0.955856" fill="#6C6CFF"/>
<ellipse cx="706.711" cy="175.481" rx="0.963755" ry="0.955856" fill="#6C6CFF"/>
<ellipse cx="726.112" cy="175.481" rx="0.963755" ry="0.955856" fill="#6C6CFF"/>
<ellipse cx="745.516" cy="175.481" rx="0.963755" ry="0.955856" fill="#6C6CFF"/>
<ellipse cx="764.917" cy="175.481" rx="0.963755" ry="0.955856" fill="#6C6CFF"/>
<ellipse cx="396.276" cy="194.724" rx="0.963755" ry="0.955856" fill="#6C6CFF"/>
<ellipse cx="415.68" cy="194.724" rx="0.963755" ry="0.955856" fill="#6C6CFF"/>
<ellipse cx="435.085" cy="194.724" rx="0.963755" ry="0.955856" fill="#6C6CFF"/>
<ellipse cx="454.483" cy="194.724" rx="0.963755" ry="0.955856" fill="#6C6CFF"/>
<ellipse cx="473.888" cy="194.724" rx="0.963755" ry="0.955856" fill="#6C6CFF"/>
<ellipse cx="493.288" cy="194.724" rx="0.963755" ry="0.955856" fill="#6C6CFF"/>
<ellipse cx="512.692" cy="194.724" rx="0.963755" ry="0.955856" fill="#6C6CFF"/>
<ellipse cx="532.09" cy="194.724" rx="0.963755" ry="0.955856" fill="#6C6CFF"/>
<ellipse cx="551.494" cy="194.724" rx="0.963755" ry="0.955856" fill="#6C6CFF"/>
<ellipse cx="570.897" cy="194.724" rx="0.963755" ry="0.955856" fill="#6C6CFF"/>
<ellipse cx="590.301" cy="194.724" rx="0.963755" ry="0.955856" fill="#6C6CFF"/>
<ellipse cx="609.701" cy="194.724" rx="0.963755" ry="0.955856" fill="#6C6CFF"/>
<ellipse cx="629.102" cy="194.724" rx="0.963755" ry="0.955856" fill="#6C6CFF"/>
<ellipse cx="648.504" cy="194.724" rx="0.963755" ry="0.955856" fill="#6C6CFF"/>
<ellipse cx="667.91" cy="194.724" rx="0.963755" ry="0.955856" fill="#6C6CFF"/>
<ellipse cx="687.307" cy="194.724" rx="0.963755" ry="0.955856" fill="#6C6CFF"/>
<ellipse cx="706.711" cy="194.724" rx="0.963755" ry="0.955856" fill="#6C6CFF"/>
<ellipse cx="726.112" cy="194.724" rx="0.963755" ry="0.955856" fill="#6C6CFF"/>
<ellipse cx="745.516" cy="194.724" rx="0.963755" ry="0.955856" fill="#6C6CFF"/>
<ellipse cx="764.917" cy="194.724" rx="0.963755" ry="0.955856" fill="#6C6CFF"/>
<ellipse cx="396.276" cy="213.968" rx="0.963755" ry="0.955856" fill="#6C6CFF"/>
<ellipse cx="415.68" cy="213.968" rx="0.963755" ry="0.955856" fill="#6C6CFF"/>
<ellipse cx="435.085" cy="213.968" rx="0.963755" ry="0.955856" fill="#6C6CFF"/>
<ellipse cx="454.483" cy="213.968" rx="0.963755" ry="0.955856" fill="#6C6CFF"/>
<ellipse cx="473.888" cy="213.968" rx="0.963755" ry="0.955856" fill="#6C6CFF"/>
<ellipse cx="493.288" cy="213.968" rx="0.963755" ry="0.955856" fill="#6C6CFF"/>
<ellipse cx="512.692" cy="213.968" rx="0.963755" ry="0.955856" fill="#6C6CFF"/>
<ellipse cx="532.09" cy="213.968" rx="0.963755" ry="0.955856" fill="#6C6CFF"/>
<ellipse cx="551.494" cy="213.968" rx="0.963755" ry="0.955856" fill="#6C6CFF"/>
<ellipse cx="570.897" cy="213.968" rx="0.963755" ry="0.955856" fill="#6C6CFF"/>
<ellipse cx="590.301" cy="213.968" rx="0.963755" ry="0.955856" fill="#6C6CFF"/>
<ellipse cx="609.701" cy="213.968" rx="0.963755" ry="0.955856" fill="#6C6CFF"/>
<ellipse cx="629.102" cy="213.968" rx="0.963755" ry="0.955856" fill="#6C6CFF"/>
<ellipse cx="648.504" cy="213.968" rx="0.963755" ry="0.955856" fill="#6C6CFF"/>
<ellipse cx="667.91" cy="213.968" rx="0.963755" ry="0.955856" fill="#6C6CFF"/>
<ellipse cx="687.307" cy="213.968" rx="0.963755" ry="0.955856" fill="#6C6CFF"/>
<ellipse cx="706.711" cy="213.968" rx="0.963755" ry="0.955856" fill="#6C6CFF"/>
<ellipse cx="726.112" cy="213.968" rx="0.963755" ry="0.955856" fill="#6C6CFF"/>
<ellipse cx="745.516" cy="213.968" rx="0.963755" ry="0.955856" fill="#6C6CFF"/>
<ellipse cx="764.917" cy="213.968" rx="0.963755" ry="0.955856" fill="#6C6CFF"/>
<ellipse cx="396.276" cy="233.21" rx="0.963755" ry="0.955856" fill="#6C6CFF"/>
<ellipse cx="415.68" cy="233.21" rx="0.963755" ry="0.955856" fill="#6C6CFF"/>
<ellipse cx="435.085" cy="233.21" rx="0.963755" ry="0.955856" fill="#6C6CFF"/>
<ellipse cx="454.483" cy="233.21" rx="0.963755" ry="0.955856" fill="#6C6CFF"/>
<ellipse cx="473.888" cy="233.21" rx="0.963755" ry="0.955856" fill="#6C6CFF"/>
<ellipse cx="493.288" cy="233.21" rx="0.963755" ry="0.955856" fill="#6C6CFF"/>
<ellipse cx="512.692" cy="233.21" rx="0.963755" ry="0.955856" fill="#6C6CFF"/>
<ellipse cx="532.09" cy="233.21" rx="0.963755" ry="0.955856" fill="#6C6CFF"/>
<ellipse cx="551.494" cy="233.21" rx="0.963755" ry="0.955856" fill="#6C6CFF"/>
<ellipse cx="570.897" cy="233.21" rx="0.963755" ry="0.955856" fill="#6C6CFF"/>
<ellipse cx="590.301" cy="233.21" rx="0.963755" ry="0.955856" fill="#6C6CFF"/>
<ellipse cx="609.701" cy="233.21" rx="0.963755" ry="0.955856" fill="#6C6CFF"/>
<ellipse cx="629.102" cy="233.21" rx="0.963755" ry="0.955856" fill="#6C6CFF"/>
<ellipse cx="648.504" cy="233.21" rx="0.963755" ry="0.955856" fill="#6C6CFF"/>
<ellipse cx="667.91" cy="233.21" rx="0.963755" ry="0.955856" fill="#6C6CFF"/>
<ellipse cx="687.307" cy="233.21" rx="0.963755" ry="0.955856" fill="#6C6CFF"/>
<ellipse cx="706.711" cy="233.21" rx="0.963755" ry="0.955856" fill="#6C6CFF"/>
<ellipse cx="726.112" cy="233.21" rx="0.963755" ry="0.955856" fill="#6C6CFF"/>
<ellipse cx="745.516" cy="233.21" rx="0.963755" ry="0.955856" fill="#6C6CFF"/>
<ellipse cx="764.917" cy="233.21" rx="0.963755" ry="0.955856" fill="#6C6CFF"/>
<ellipse cx="396.276" cy="252.452" rx="0.963755" ry="0.955856" fill="#6C6CFF"/>
<ellipse cx="415.68" cy="252.452" rx="0.963755" ry="0.955856" fill="#6C6CFF"/>
<ellipse cx="435.085" cy="252.452" rx="0.963755" ry="0.955856" fill="#6C6CFF"/>
<ellipse cx="454.483" cy="252.452" rx="0.963755" ry="0.955856" fill="#6C6CFF"/>
<ellipse cx="473.888" cy="252.452" rx="0.963755" ry="0.955856" fill="#6C6CFF"/>
<ellipse cx="493.288" cy="252.452" rx="0.963755" ry="0.955856" fill="#6C6CFF"/>
<ellipse cx="512.692" cy="252.452" rx="0.963755" ry="0.955856" fill="#6C6CFF"/>
<ellipse cx="532.09" cy="252.452" rx="0.963755" ry="0.955856" fill="#6C6CFF"/>
<ellipse cx="551.494" cy="252.452" rx="0.963755" ry="0.955856" fill="#6C6CFF"/>
<ellipse cx="570.897" cy="252.452" rx="0.963755" ry="0.955856" fill="#6C6CFF"/>
<ellipse cx="590.301" cy="252.452" rx="0.963755" ry="0.955856" fill="#6C6CFF"/>
<ellipse cx="609.701" cy="252.452" rx="0.963755" ry="0.955856" fill="#6C6CFF"/>
<ellipse cx="629.102" cy="252.452" rx="0.963755" ry="0.955856" fill="#6C6CFF"/>
<ellipse cx="648.504" cy="252.452" rx="0.963755" ry="0.955856" fill="#6C6CFF"/>
<ellipse cx="667.91" cy="252.452" rx="0.963755" ry="0.955856" fill="#6C6CFF"/>
<ellipse cx="687.307" cy="252.452" rx="0.963755" ry="0.955856" fill="#6C6CFF"/>
<ellipse cx="706.711" cy="252.452" rx="0.963755" ry="0.955856" fill="#6C6CFF"/>
<ellipse cx="726.112" cy="252.452" rx="0.963755" ry="0.955856" fill="#6C6CFF"/>
<ellipse cx="745.516" cy="252.452" rx="0.963755" ry="0.955856" fill="#6C6CFF"/>
<ellipse cx="764.917" cy="252.452" rx="0.963755" ry="0.955856" fill="#6C6CFF"/>
</g>
</g>
<defs>
<clipPath id="clip0_3774_83312">
<rect width="1141" height="263" fill="white"/>
</clipPath>
</defs>
</svg>
