<svg width="1141" height="264" viewBox="0 0 1141 264" fill="none" xmlns="http://www.w3.org/2000/svg">
<g clip-path="url(#clip0_2960_76672)">
<rect width="1141" height="263" transform="translate(0 0.566986)" fill="#F0F3FF"/>
<rect x="1000.32" y="178.203" width="250.196" height="49" rx="24.5" fill="#595AD4"/>
<g opacity="0.24">
<ellipse cx="784.349" cy="2.85991" rx="0.963755" ry="0.955856" fill="#6C6CFF"/>
<ellipse cx="803.752" cy="2.85991" rx="0.963755" ry="0.955856" fill="#6C6CFF"/>
<ellipse cx="823.157" cy="2.85991" rx="0.963755" ry="0.955856" fill="#6C6CFF"/>
<ellipse cx="842.556" cy="2.85991" rx="0.963755" ry="0.955856" fill="#6C6CFF"/>
<ellipse cx="861.96" cy="2.85991" rx="0.963755" ry="0.955856" fill="#6C6CFF"/>
<ellipse cx="881.36" cy="2.85991" rx="0.963755" ry="0.955856" fill="#6C6CFF"/>
<ellipse cx="900.765" cy="2.85991" rx="0.963755" ry="0.955856" fill="#6C6CFF"/>
<ellipse cx="920.162" cy="2.85991" rx="0.963755" ry="0.955856" fill="#6C6CFF"/>
<ellipse cx="939.567" cy="2.85991" rx="0.963755" ry="0.955856" fill="#6C6CFF"/>
<ellipse cx="958.97" cy="2.85991" rx="0.963755" ry="0.955856" fill="#6C6CFF"/>
<ellipse cx="978.373" cy="2.85991" rx="0.963755" ry="0.955856" fill="#6C6CFF"/>
<ellipse cx="997.773" cy="2.85991" rx="0.963755" ry="0.955856" fill="#6C6CFF"/>
<ellipse cx="1017.17" cy="2.85991" rx="0.963755" ry="0.955856" fill="#6C6CFF"/>
<ellipse cx="1036.58" cy="2.85991" rx="0.963755" ry="0.955856" fill="#6C6CFF"/>
<ellipse cx="1055.98" cy="2.85991" rx="0.963755" ry="0.955856" fill="#6C6CFF"/>
<ellipse cx="1075.38" cy="2.85991" rx="0.963755" ry="0.955856" fill="#6C6CFF"/>
<ellipse cx="1094.78" cy="2.85991" rx="0.963755" ry="0.955856" fill="#6C6CFF"/>
<ellipse cx="1114.18" cy="2.85991" rx="0.963755" ry="0.955856" fill="#6C6CFF"/>
<ellipse cx="1133.59" cy="2.85991" rx="0.963755" ry="0.955856" fill="#6C6CFF"/>
<ellipse cx="784.349" cy="22.1032" rx="0.963755" ry="0.955856" fill="#6C6CFF"/>
<ellipse cx="803.752" cy="22.1032" rx="0.963755" ry="0.955856" fill="#6C6CFF"/>
<ellipse cx="823.157" cy="22.1032" rx="0.963755" ry="0.955856" fill="#6C6CFF"/>
<ellipse cx="842.556" cy="22.1032" rx="0.963755" ry="0.955856" fill="#6C6CFF"/>
<ellipse cx="861.96" cy="22.1032" rx="0.963755" ry="0.955856" fill="#6C6CFF"/>
<ellipse cx="881.36" cy="22.1032" rx="0.963755" ry="0.955856" fill="#6C6CFF"/>
<ellipse cx="900.765" cy="22.1032" rx="0.963755" ry="0.955856" fill="#6C6CFF"/>
<ellipse cx="920.162" cy="22.1032" rx="0.963755" ry="0.955856" fill="#6C6CFF"/>
<ellipse cx="939.567" cy="22.1032" rx="0.963755" ry="0.955856" fill="#6C6CFF"/>
<ellipse cx="958.97" cy="22.1032" rx="0.963755" ry="0.955856" fill="#6C6CFF"/>
<ellipse cx="978.373" cy="22.1032" rx="0.963755" ry="0.955856" fill="#6C6CFF"/>
<ellipse cx="997.773" cy="22.1032" rx="0.963755" ry="0.955856" fill="#6C6CFF"/>
<ellipse cx="1017.17" cy="22.1032" rx="0.963755" ry="0.955856" fill="#6C6CFF"/>
<ellipse cx="1036.58" cy="22.1032" rx="0.963755" ry="0.955856" fill="#6C6CFF"/>
<ellipse cx="1055.98" cy="22.1032" rx="0.963755" ry="0.955856" fill="#6C6CFF"/>
<ellipse cx="1075.38" cy="22.1032" rx="0.963755" ry="0.955856" fill="#6C6CFF"/>
<ellipse cx="1094.78" cy="22.1032" rx="0.963755" ry="0.955856" fill="#6C6CFF"/>
<ellipse cx="1114.18" cy="22.1032" rx="0.963755" ry="0.955856" fill="#6C6CFF"/>
<ellipse cx="1133.59" cy="22.1032" rx="0.963755" ry="0.955856" fill="#6C6CFF"/>
<ellipse cx="784.349" cy="41.3462" rx="0.963755" ry="0.955856" fill="#6C6CFF"/>
<ellipse cx="803.752" cy="41.3462" rx="0.963755" ry="0.955856" fill="#6C6CFF"/>
<ellipse cx="823.157" cy="41.3462" rx="0.963755" ry="0.955856" fill="#6C6CFF"/>
<ellipse cx="842.556" cy="41.3462" rx="0.963755" ry="0.955856" fill="#6C6CFF"/>
<ellipse cx="861.96" cy="41.3462" rx="0.963755" ry="0.955856" fill="#6C6CFF"/>
<ellipse cx="881.36" cy="41.3462" rx="0.963755" ry="0.955856" fill="#6C6CFF"/>
<ellipse cx="900.765" cy="41.3462" rx="0.963755" ry="0.955856" fill="#6C6CFF"/>
<ellipse cx="920.162" cy="41.3462" rx="0.963755" ry="0.955856" fill="#6C6CFF"/>
<ellipse cx="939.567" cy="41.3462" rx="0.963755" ry="0.955856" fill="#6C6CFF"/>
<ellipse cx="958.97" cy="41.3462" rx="0.963755" ry="0.955856" fill="#6C6CFF"/>
<ellipse cx="978.373" cy="41.3462" rx="0.963755" ry="0.955856" fill="#6C6CFF"/>
<ellipse cx="997.773" cy="41.3462" rx="0.963755" ry="0.955856" fill="#6C6CFF"/>
<ellipse cx="1017.17" cy="41.3462" rx="0.963755" ry="0.955856" fill="#6C6CFF"/>
<ellipse cx="1036.58" cy="41.3462" rx="0.963755" ry="0.955856" fill="#6C6CFF"/>
<ellipse cx="1055.98" cy="41.3462" rx="0.963755" ry="0.955856" fill="#6C6CFF"/>
<ellipse cx="1075.38" cy="41.3462" rx="0.963755" ry="0.955856" fill="#6C6CFF"/>
<ellipse cx="1094.78" cy="41.3462" rx="0.963755" ry="0.955856" fill="#6C6CFF"/>
<ellipse cx="1114.18" cy="41.3462" rx="0.963755" ry="0.955856" fill="#6C6CFF"/>
<ellipse cx="1133.59" cy="41.3462" rx="0.963755" ry="0.955856" fill="#6C6CFF"/>
<ellipse cx="784.349" cy="60.5898" rx="0.963755" ry="0.955856" fill="#6C6CFF"/>
<ellipse cx="803.752" cy="60.5898" rx="0.963755" ry="0.955856" fill="#6C6CFF"/>
<ellipse cx="823.157" cy="60.5898" rx="0.963755" ry="0.955856" fill="#6C6CFF"/>
<ellipse cx="842.556" cy="60.5898" rx="0.963755" ry="0.955856" fill="#6C6CFF"/>
<ellipse cx="861.96" cy="60.5898" rx="0.963755" ry="0.955856" fill="#6C6CFF"/>
<ellipse cx="881.36" cy="60.5898" rx="0.963755" ry="0.955856" fill="#6C6CFF"/>
<ellipse cx="900.765" cy="60.5898" rx="0.963755" ry="0.955856" fill="#6C6CFF"/>
<ellipse cx="920.162" cy="60.5898" rx="0.963755" ry="0.955856" fill="#6C6CFF"/>
<ellipse cx="939.567" cy="60.5898" rx="0.963755" ry="0.955856" fill="#6C6CFF"/>
<ellipse cx="958.97" cy="60.5898" rx="0.963755" ry="0.955856" fill="#6C6CFF"/>
<ellipse cx="978.373" cy="60.5898" rx="0.963755" ry="0.955856" fill="#6C6CFF"/>
<ellipse cx="997.773" cy="60.5898" rx="0.963755" ry="0.955856" fill="#6C6CFF"/>
<ellipse cx="1017.17" cy="60.5898" rx="0.963755" ry="0.955856" fill="#6C6CFF"/>
<ellipse cx="1036.58" cy="60.5898" rx="0.963755" ry="0.955856" fill="#6C6CFF"/>
<ellipse cx="1055.98" cy="60.5898" rx="0.963755" ry="0.955856" fill="#6C6CFF"/>
<ellipse cx="1075.38" cy="60.5898" rx="0.963755" ry="0.955856" fill="#6C6CFF"/>
<ellipse cx="1094.78" cy="60.5898" rx="0.963755" ry="0.955856" fill="#6C6CFF"/>
<ellipse cx="1114.18" cy="60.5898" rx="0.963755" ry="0.955856" fill="#6C6CFF"/>
<ellipse cx="1133.59" cy="60.5898" rx="0.963755" ry="0.955856" fill="#6C6CFF"/>
<ellipse cx="784.349" cy="79.8331" rx="0.963755" ry="0.955856" fill="#6C6CFF"/>
<ellipse cx="803.752" cy="79.8331" rx="0.963755" ry="0.955856" fill="#6C6CFF"/>
<ellipse cx="823.157" cy="79.8331" rx="0.963755" ry="0.955856" fill="#6C6CFF"/>
<ellipse cx="842.556" cy="79.8331" rx="0.963755" ry="0.955856" fill="#6C6CFF"/>
<ellipse cx="861.96" cy="79.8331" rx="0.963755" ry="0.955856" fill="#6C6CFF"/>
<ellipse cx="881.36" cy="79.8331" rx="0.963755" ry="0.955856" fill="#6C6CFF"/>
<ellipse cx="900.765" cy="79.8331" rx="0.963755" ry="0.955856" fill="#6C6CFF"/>
<ellipse cx="920.162" cy="79.8331" rx="0.963755" ry="0.955856" fill="#6C6CFF"/>
<ellipse cx="939.567" cy="79.8331" rx="0.963755" ry="0.955856" fill="#6C6CFF"/>
<ellipse cx="958.97" cy="79.8331" rx="0.963755" ry="0.955856" fill="#6C6CFF"/>
<ellipse cx="978.373" cy="79.8331" rx="0.963755" ry="0.955856" fill="#6C6CFF"/>
<ellipse cx="997.773" cy="79.8331" rx="0.963755" ry="0.955856" fill="#6C6CFF"/>
<ellipse cx="1017.17" cy="79.8331" rx="0.963755" ry="0.955856" fill="#6C6CFF"/>
<ellipse cx="1036.58" cy="79.8331" rx="0.963755" ry="0.955856" fill="#6C6CFF"/>
<ellipse cx="1055.98" cy="79.8331" rx="0.963755" ry="0.955856" fill="#6C6CFF"/>
<ellipse cx="1075.38" cy="79.8331" rx="0.963755" ry="0.955856" fill="#6C6CFF"/>
<ellipse cx="1094.78" cy="79.8331" rx="0.963755" ry="0.955856" fill="#6C6CFF"/>
<ellipse cx="1114.18" cy="79.8331" rx="0.963755" ry="0.955856" fill="#6C6CFF"/>
<ellipse cx="1133.59" cy="79.8331" rx="0.963755" ry="0.955856" fill="#6C6CFF"/>
<ellipse cx="784.349" cy="99.0757" rx="0.963755" ry="0.955856" fill="#6C6CFF"/>
<ellipse cx="803.752" cy="99.0757" rx="0.963755" ry="0.955856" fill="#6C6CFF"/>
<ellipse cx="823.157" cy="99.0757" rx="0.963755" ry="0.955856" fill="#6C6CFF"/>
<ellipse cx="842.556" cy="99.0757" rx="0.963755" ry="0.955856" fill="#6C6CFF"/>
<ellipse cx="861.96" cy="99.0757" rx="0.963755" ry="0.955856" fill="#6C6CFF"/>
<ellipse cx="881.36" cy="99.0757" rx="0.963755" ry="0.955856" fill="#6C6CFF"/>
<ellipse cx="900.765" cy="99.0757" rx="0.963755" ry="0.955856" fill="#6C6CFF"/>
<ellipse cx="920.162" cy="99.0757" rx="0.963755" ry="0.955856" fill="#6C6CFF"/>
<ellipse cx="939.567" cy="99.0757" rx="0.963755" ry="0.955856" fill="#6C6CFF"/>
<ellipse cx="958.97" cy="99.0757" rx="0.963755" ry="0.955856" fill="#6C6CFF"/>
<ellipse cx="978.373" cy="99.0757" rx="0.963755" ry="0.955856" fill="#6C6CFF"/>
<ellipse cx="997.773" cy="99.0757" rx="0.963755" ry="0.955856" fill="#6C6CFF"/>
<ellipse cx="1017.17" cy="99.0757" rx="0.963755" ry="0.955856" fill="#6C6CFF"/>
<ellipse cx="1036.58" cy="99.0757" rx="0.963755" ry="0.955856" fill="#6C6CFF"/>
<ellipse cx="1055.98" cy="99.0757" rx="0.963755" ry="0.955856" fill="#6C6CFF"/>
<ellipse cx="1075.38" cy="99.0757" rx="0.963755" ry="0.955856" fill="#6C6CFF"/>
<ellipse cx="1094.78" cy="99.0757" rx="0.963755" ry="0.955856" fill="#6C6CFF"/>
<ellipse cx="1114.18" cy="99.0757" rx="0.963755" ry="0.955856" fill="#6C6CFF"/>
<ellipse cx="1133.59" cy="99.0757" rx="0.963755" ry="0.955856" fill="#6C6CFF"/>
<ellipse cx="784.349" cy="118.318" rx="0.963755" ry="0.955856" fill="#6C6CFF"/>
<ellipse cx="803.752" cy="118.318" rx="0.963755" ry="0.955856" fill="#6C6CFF"/>
<ellipse cx="823.157" cy="118.318" rx="0.963755" ry="0.955856" fill="#6C6CFF"/>
<ellipse cx="842.556" cy="118.318" rx="0.963755" ry="0.955856" fill="#6C6CFF"/>
<ellipse cx="861.96" cy="118.318" rx="0.963755" ry="0.955856" fill="#6C6CFF"/>
<ellipse cx="881.36" cy="118.318" rx="0.963755" ry="0.955856" fill="#6C6CFF"/>
<ellipse cx="900.765" cy="118.318" rx="0.963755" ry="0.955856" fill="#6C6CFF"/>
<ellipse cx="920.162" cy="118.318" rx="0.963755" ry="0.955856" fill="#6C6CFF"/>
<ellipse cx="939.567" cy="118.318" rx="0.963755" ry="0.955856" fill="#6C6CFF"/>
<ellipse cx="958.97" cy="118.318" rx="0.963755" ry="0.955856" fill="#6C6CFF"/>
<ellipse cx="978.373" cy="118.318" rx="0.963755" ry="0.955856" fill="#6C6CFF"/>
<ellipse cx="997.773" cy="118.318" rx="0.963755" ry="0.955856" fill="#6C6CFF"/>
<ellipse cx="1017.17" cy="118.318" rx="0.963755" ry="0.955856" fill="#6C6CFF"/>
<ellipse cx="1036.58" cy="118.318" rx="0.963755" ry="0.955856" fill="#6C6CFF"/>
<ellipse cx="1055.98" cy="118.318" rx="0.963755" ry="0.955856" fill="#6C6CFF"/>
<ellipse cx="1075.38" cy="118.318" rx="0.963755" ry="0.955856" fill="#6C6CFF"/>
<ellipse cx="1094.78" cy="118.318" rx="0.963755" ry="0.955856" fill="#6C6CFF"/>
<ellipse cx="1114.18" cy="118.318" rx="0.963755" ry="0.955856" fill="#6C6CFF"/>
<ellipse cx="1133.59" cy="118.318" rx="0.963755" ry="0.955856" fill="#6C6CFF"/>
<ellipse cx="784.349" cy="137.562" rx="0.963755" ry="0.955856" fill="#6C6CFF"/>
<ellipse cx="803.752" cy="137.562" rx="0.963755" ry="0.955856" fill="#6C6CFF"/>
<ellipse cx="823.157" cy="137.562" rx="0.963755" ry="0.955856" fill="#6C6CFF"/>
<ellipse cx="842.556" cy="137.562" rx="0.963755" ry="0.955856" fill="#6C6CFF"/>
<ellipse cx="861.96" cy="137.562" rx="0.963755" ry="0.955856" fill="#6C6CFF"/>
<ellipse cx="881.36" cy="137.562" rx="0.963755" ry="0.955856" fill="#6C6CFF"/>
<ellipse cx="900.765" cy="137.562" rx="0.963755" ry="0.955856" fill="#6C6CFF"/>
<ellipse cx="920.162" cy="137.562" rx="0.963755" ry="0.955856" fill="#6C6CFF"/>
<ellipse cx="939.567" cy="137.562" rx="0.963755" ry="0.955856" fill="#6C6CFF"/>
<ellipse cx="958.97" cy="137.562" rx="0.963755" ry="0.955856" fill="#6C6CFF"/>
<ellipse cx="978.373" cy="137.562" rx="0.963755" ry="0.955856" fill="#6C6CFF"/>
<ellipse cx="997.773" cy="137.562" rx="0.963755" ry="0.955856" fill="#6C6CFF"/>
<ellipse cx="1017.17" cy="137.562" rx="0.963755" ry="0.955856" fill="#6C6CFF"/>
<ellipse cx="1036.58" cy="137.562" rx="0.963755" ry="0.955856" fill="#6C6CFF"/>
<ellipse cx="1055.98" cy="137.562" rx="0.963755" ry="0.955856" fill="#6C6CFF"/>
<ellipse cx="1075.38" cy="137.562" rx="0.963755" ry="0.955856" fill="#6C6CFF"/>
<ellipse cx="1094.78" cy="137.562" rx="0.963755" ry="0.955856" fill="#6C6CFF"/>
<ellipse cx="1114.18" cy="137.562" rx="0.963755" ry="0.955856" fill="#6C6CFF"/>
<ellipse cx="1133.59" cy="137.562" rx="0.963755" ry="0.955856" fill="#6C6CFF"/>
<ellipse cx="784.349" cy="156.805" rx="0.963755" ry="0.955856" fill="#6C6CFF"/>
<ellipse cx="803.752" cy="156.805" rx="0.963755" ry="0.955856" fill="#6C6CFF"/>
<ellipse cx="823.157" cy="156.805" rx="0.963755" ry="0.955856" fill="#6C6CFF"/>
<ellipse cx="842.556" cy="156.805" rx="0.963755" ry="0.955856" fill="#6C6CFF"/>
<ellipse cx="861.96" cy="156.805" rx="0.963755" ry="0.955856" fill="#6C6CFF"/>
<ellipse cx="881.36" cy="156.805" rx="0.963755" ry="0.955856" fill="#6C6CFF"/>
<ellipse cx="900.765" cy="156.805" rx="0.963755" ry="0.955856" fill="#6C6CFF"/>
<ellipse cx="920.162" cy="156.805" rx="0.963755" ry="0.955856" fill="#6C6CFF"/>
<ellipse cx="939.566" cy="156.805" rx="0.963755" ry="0.955856" fill="#6C6CFF"/>
<ellipse cx="958.97" cy="156.805" rx="0.963755" ry="0.955856" fill="#6C6CFF"/>
<ellipse cx="978.373" cy="156.805" rx="0.963755" ry="0.955856" fill="#6C6CFF"/>
<ellipse cx="997.773" cy="156.805" rx="0.963755" ry="0.955856" fill="#6C6CFF"/>
<ellipse cx="1017.17" cy="156.805" rx="0.963755" ry="0.955856" fill="#6C6CFF"/>
<ellipse cx="1036.58" cy="156.805" rx="0.963755" ry="0.955856" fill="#6C6CFF"/>
<ellipse cx="1055.98" cy="156.805" rx="0.963755" ry="0.955856" fill="#6C6CFF"/>
<ellipse cx="1075.38" cy="156.805" rx="0.963755" ry="0.955856" fill="#6C6CFF"/>
<ellipse cx="1094.78" cy="156.805" rx="0.963755" ry="0.955856" fill="#6C6CFF"/>
<ellipse cx="1114.18" cy="156.805" rx="0.963755" ry="0.955856" fill="#6C6CFF"/>
<ellipse cx="1133.59" cy="156.805" rx="0.963755" ry="0.955856" fill="#6C6CFF"/>
<ellipse cx="784.349" cy="176.048" rx="0.963755" ry="0.955856" fill="#6C6CFF"/>
<ellipse cx="803.752" cy="176.048" rx="0.963755" ry="0.955856" fill="#6C6CFF"/>
<ellipse cx="823.157" cy="176.048" rx="0.963755" ry="0.955856" fill="#6C6CFF"/>
<ellipse cx="842.556" cy="176.048" rx="0.963755" ry="0.955856" fill="#6C6CFF"/>
<ellipse cx="861.96" cy="176.048" rx="0.963755" ry="0.955856" fill="#6C6CFF"/>
<ellipse cx="881.36" cy="176.048" rx="0.963755" ry="0.955856" fill="#6C6CFF"/>
<ellipse cx="900.765" cy="176.048" rx="0.963755" ry="0.955856" fill="#6C6CFF"/>
<ellipse cx="920.162" cy="176.048" rx="0.963755" ry="0.955856" fill="#6C6CFF"/>
<ellipse cx="939.566" cy="176.048" rx="0.963755" ry="0.955856" fill="#6C6CFF"/>
<ellipse cx="958.97" cy="176.048" rx="0.963755" ry="0.955856" fill="#6C6CFF"/>
<ellipse cx="978.373" cy="176.048" rx="0.963755" ry="0.955856" fill="#6C6CFF"/>
<ellipse cx="997.773" cy="176.048" rx="0.963755" ry="0.955856" fill="#6C6CFF"/>
<ellipse cx="1017.17" cy="176.048" rx="0.963755" ry="0.955856" fill="#6C6CFF"/>
<ellipse cx="1036.58" cy="176.048" rx="0.963755" ry="0.955856" fill="#6C6CFF"/>
<ellipse cx="1055.98" cy="176.048" rx="0.963755" ry="0.955856" fill="#6C6CFF"/>
<ellipse cx="1075.38" cy="176.048" rx="0.963755" ry="0.955856" fill="#6C6CFF"/>
<ellipse cx="1094.78" cy="176.048" rx="0.963755" ry="0.955856" fill="#6C6CFF"/>
<ellipse cx="1114.18" cy="176.048" rx="0.963755" ry="0.955856" fill="#6C6CFF"/>
<ellipse cx="1133.59" cy="176.048" rx="0.963755" ry="0.955856" fill="#6C6CFF"/>
<ellipse cx="784.349" cy="195.291" rx="0.963755" ry="0.955856" fill="#6C6CFF"/>
<ellipse cx="803.752" cy="195.291" rx="0.963755" ry="0.955856" fill="#6C6CFF"/>
<ellipse cx="823.157" cy="195.291" rx="0.963755" ry="0.955856" fill="#6C6CFF"/>
<ellipse cx="842.556" cy="195.291" rx="0.963755" ry="0.955856" fill="#6C6CFF"/>
<ellipse cx="861.96" cy="195.291" rx="0.963755" ry="0.955856" fill="#6C6CFF"/>
<ellipse cx="881.36" cy="195.291" rx="0.963755" ry="0.955856" fill="#6C6CFF"/>
<ellipse cx="900.765" cy="195.291" rx="0.963755" ry="0.955856" fill="#6C6CFF"/>
<ellipse cx="920.162" cy="195.291" rx="0.963755" ry="0.955856" fill="#6C6CFF"/>
<ellipse cx="939.566" cy="195.291" rx="0.963755" ry="0.955856" fill="#6C6CFF"/>
<ellipse cx="958.97" cy="195.291" rx="0.963755" ry="0.955856" fill="#6C6CFF"/>
<ellipse cx="978.373" cy="195.291" rx="0.963755" ry="0.955856" fill="#6C6CFF"/>
<ellipse cx="997.773" cy="195.291" rx="0.963755" ry="0.955856" fill="#6C6CFF"/>
<ellipse cx="1017.17" cy="195.291" rx="0.963755" ry="0.955856" fill="#6C6CFF"/>
<ellipse cx="1036.58" cy="195.291" rx="0.963755" ry="0.955856" fill="#6C6CFF"/>
<ellipse cx="1055.98" cy="195.291" rx="0.963755" ry="0.955856" fill="#6C6CFF"/>
<ellipse cx="1075.38" cy="195.291" rx="0.963755" ry="0.955856" fill="#6C6CFF"/>
<ellipse cx="1094.78" cy="195.291" rx="0.963755" ry="0.955856" fill="#6C6CFF"/>
<ellipse cx="1114.18" cy="195.291" rx="0.963755" ry="0.955856" fill="#6C6CFF"/>
<ellipse cx="1133.59" cy="195.291" rx="0.963755" ry="0.955856" fill="#6C6CFF"/>
<ellipse cx="784.349" cy="214.535" rx="0.963755" ry="0.955856" fill="#6C6CFF"/>
<ellipse cx="803.752" cy="214.535" rx="0.963755" ry="0.955856" fill="#6C6CFF"/>
<ellipse cx="823.157" cy="214.535" rx="0.963755" ry="0.955856" fill="#6C6CFF"/>
<ellipse cx="842.556" cy="214.535" rx="0.963755" ry="0.955856" fill="#6C6CFF"/>
<ellipse cx="861.96" cy="214.535" rx="0.963755" ry="0.955856" fill="#6C6CFF"/>
<ellipse cx="881.36" cy="214.535" rx="0.963755" ry="0.955856" fill="#6C6CFF"/>
<ellipse cx="900.765" cy="214.535" rx="0.963755" ry="0.955856" fill="#6C6CFF"/>
<ellipse cx="920.162" cy="214.535" rx="0.963755" ry="0.955856" fill="#6C6CFF"/>
<ellipse cx="939.566" cy="214.535" rx="0.963755" ry="0.955856" fill="#6C6CFF"/>
<ellipse cx="958.97" cy="214.535" rx="0.963755" ry="0.955856" fill="#6C6CFF"/>
<ellipse cx="978.373" cy="214.535" rx="0.963755" ry="0.955856" fill="#6C6CFF"/>
<ellipse cx="997.773" cy="214.535" rx="0.963755" ry="0.955856" fill="#6C6CFF"/>
<ellipse cx="1017.17" cy="214.535" rx="0.963755" ry="0.955856" fill="#6C6CFF"/>
<ellipse cx="1036.58" cy="214.535" rx="0.963755" ry="0.955856" fill="#6C6CFF"/>
<ellipse cx="1055.98" cy="214.535" rx="0.963755" ry="0.955856" fill="#6C6CFF"/>
<ellipse cx="1075.38" cy="214.535" rx="0.963755" ry="0.955856" fill="#6C6CFF"/>
<ellipse cx="1094.78" cy="214.535" rx="0.963755" ry="0.955856" fill="#6C6CFF"/>
<ellipse cx="1114.18" cy="214.535" rx="0.963755" ry="0.955856" fill="#6C6CFF"/>
<ellipse cx="1133.59" cy="214.535" rx="0.963755" ry="0.955856" fill="#6C6CFF"/>
<ellipse cx="784.349" cy="233.777" rx="0.963755" ry="0.955856" fill="#6C6CFF"/>
<ellipse cx="803.752" cy="233.777" rx="0.963755" ry="0.955856" fill="#6C6CFF"/>
<ellipse cx="823.157" cy="233.777" rx="0.963755" ry="0.955856" fill="#6C6CFF"/>
<ellipse cx="842.556" cy="233.777" rx="0.963755" ry="0.955856" fill="#6C6CFF"/>
<ellipse cx="861.96" cy="233.777" rx="0.963755" ry="0.955856" fill="#6C6CFF"/>
<ellipse cx="881.36" cy="233.777" rx="0.963755" ry="0.955856" fill="#6C6CFF"/>
<ellipse cx="900.765" cy="233.777" rx="0.963755" ry="0.955856" fill="#6C6CFF"/>
<ellipse cx="920.162" cy="233.777" rx="0.963755" ry="0.955856" fill="#6C6CFF"/>
<ellipse cx="939.566" cy="233.777" rx="0.963755" ry="0.955856" fill="#6C6CFF"/>
<ellipse cx="958.97" cy="233.777" rx="0.963755" ry="0.955856" fill="#6C6CFF"/>
<ellipse cx="978.373" cy="233.777" rx="0.963755" ry="0.955856" fill="#6C6CFF"/>
<ellipse cx="997.773" cy="233.777" rx="0.963755" ry="0.955856" fill="#6C6CFF"/>
<ellipse cx="1017.17" cy="233.777" rx="0.963755" ry="0.955856" fill="#6C6CFF"/>
<ellipse cx="1036.58" cy="233.777" rx="0.963755" ry="0.955856" fill="#6C6CFF"/>
<ellipse cx="1055.98" cy="233.777" rx="0.963755" ry="0.955856" fill="#6C6CFF"/>
<ellipse cx="1075.38" cy="233.777" rx="0.963755" ry="0.955856" fill="#6C6CFF"/>
<ellipse cx="1094.78" cy="233.777" rx="0.963755" ry="0.955856" fill="#6C6CFF"/>
<ellipse cx="1114.18" cy="233.777" rx="0.963755" ry="0.955856" fill="#6C6CFF"/>
<ellipse cx="1133.59" cy="233.777" rx="0.963755" ry="0.955856" fill="#6C6CFF"/>
<ellipse cx="784.349" cy="253.019" rx="0.963755" ry="0.955856" fill="#6C6CFF"/>
<ellipse cx="803.752" cy="253.019" rx="0.963755" ry="0.955856" fill="#6C6CFF"/>
<ellipse cx="823.157" cy="253.019" rx="0.963755" ry="0.955856" fill="#6C6CFF"/>
<ellipse cx="842.556" cy="253.019" rx="0.963755" ry="0.955856" fill="#6C6CFF"/>
<ellipse cx="861.96" cy="253.019" rx="0.963755" ry="0.955856" fill="#6C6CFF"/>
<ellipse cx="881.36" cy="253.019" rx="0.963755" ry="0.955856" fill="#6C6CFF"/>
<ellipse cx="900.765" cy="253.019" rx="0.963755" ry="0.955856" fill="#6C6CFF"/>
<ellipse cx="920.162" cy="253.019" rx="0.963755" ry="0.955856" fill="#6C6CFF"/>
<ellipse cx="939.566" cy="253.019" rx="0.963755" ry="0.955856" fill="#6C6CFF"/>
<ellipse cx="958.97" cy="253.019" rx="0.963755" ry="0.955856" fill="#6C6CFF"/>
<ellipse cx="978.373" cy="253.019" rx="0.963755" ry="0.955856" fill="#6C6CFF"/>
<ellipse cx="997.773" cy="253.019" rx="0.963755" ry="0.955856" fill="#6C6CFF"/>
<ellipse cx="1017.17" cy="253.019" rx="0.963755" ry="0.955856" fill="#6C6CFF"/>
<ellipse cx="1036.58" cy="253.019" rx="0.963755" ry="0.955856" fill="#6C6CFF"/>
<ellipse cx="1055.98" cy="253.019" rx="0.963755" ry="0.955856" fill="#6C6CFF"/>
<ellipse cx="1075.38" cy="253.019" rx="0.963755" ry="0.955856" fill="#6C6CFF"/>
<ellipse cx="1094.78" cy="253.019" rx="0.963755" ry="0.955856" fill="#6C6CFF"/>
<ellipse cx="1114.18" cy="253.019" rx="0.963755" ry="0.955856" fill="#6C6CFF"/>
<ellipse cx="1133.59" cy="253.019" rx="0.963755" ry="0.955856" fill="#6C6CFF"/>
</g>
<g opacity="0.24">
<ellipse cx="8.34852" cy="2.85991" rx="0.963755" ry="0.955856" fill="#6C6CFF"/>
<ellipse cx="27.7518" cy="2.85991" rx="0.963755" ry="0.955856" fill="#6C6CFF"/>
<ellipse cx="47.1571" cy="2.85991" rx="0.963755" ry="0.955856" fill="#6C6CFF"/>
<ellipse cx="66.5555" cy="2.85991" rx="0.963755" ry="0.955856" fill="#6C6CFF"/>
<ellipse cx="85.9598" cy="2.85991" rx="0.963755" ry="0.955856" fill="#6C6CFF"/>
<ellipse cx="105.36" cy="2.85991" rx="0.963755" ry="0.955856" fill="#6C6CFF"/>
<ellipse cx="124.765" cy="2.85991" rx="0.963755" ry="0.955856" fill="#6C6CFF"/>
<ellipse cx="144.162" cy="2.85991" rx="0.963755" ry="0.955856" fill="#6C6CFF"/>
<ellipse cx="163.567" cy="2.85991" rx="0.963755" ry="0.955856" fill="#6C6CFF"/>
<ellipse cx="182.97" cy="2.85991" rx="0.963755" ry="0.955856" fill="#6C6CFF"/>
<ellipse cx="202.373" cy="2.85991" rx="0.963755" ry="0.955856" fill="#6C6CFF"/>
<ellipse cx="221.773" cy="2.85991" rx="0.963755" ry="0.955856" fill="#6C6CFF"/>
<ellipse cx="241.175" cy="2.85991" rx="0.963755" ry="0.955856" fill="#6C6CFF"/>
<ellipse cx="260.576" cy="2.85991" rx="0.963755" ry="0.955856" fill="#6C6CFF"/>
<ellipse cx="279.982" cy="2.85991" rx="0.963755" ry="0.955856" fill="#6C6CFF"/>
<ellipse cx="299.38" cy="2.85991" rx="0.963755" ry="0.955856" fill="#6C6CFF"/>
<ellipse cx="318.783" cy="2.85991" rx="0.963755" ry="0.955856" fill="#6C6CFF"/>
<ellipse cx="338.184" cy="2.85991" rx="0.963755" ry="0.955856" fill="#6C6CFF"/>
<ellipse cx="357.589" cy="2.85991" rx="0.963755" ry="0.955856" fill="#6C6CFF"/>
<ellipse cx="376.989" cy="2.85991" rx="0.963755" ry="0.955856" fill="#6C6CFF"/>
<ellipse cx="8.34852" cy="22.1032" rx="0.963755" ry="0.955856" fill="#6C6CFF"/>
<ellipse cx="27.7518" cy="22.1032" rx="0.963755" ry="0.955856" fill="#6C6CFF"/>
<ellipse cx="47.1571" cy="22.1032" rx="0.963755" ry="0.955856" fill="#6C6CFF"/>
<ellipse cx="66.5555" cy="22.1032" rx="0.963755" ry="0.955856" fill="#6C6CFF"/>
<ellipse cx="85.9598" cy="22.1032" rx="0.963755" ry="0.955856" fill="#6C6CFF"/>
<ellipse cx="105.36" cy="22.1032" rx="0.963755" ry="0.955856" fill="#6C6CFF"/>
<ellipse cx="124.765" cy="22.1032" rx="0.963755" ry="0.955856" fill="#6C6CFF"/>
<ellipse cx="144.162" cy="22.1032" rx="0.963755" ry="0.955856" fill="#6C6CFF"/>
<ellipse cx="163.567" cy="22.1032" rx="0.963755" ry="0.955856" fill="#6C6CFF"/>
<ellipse cx="182.97" cy="22.1032" rx="0.963755" ry="0.955856" fill="#6C6CFF"/>
<ellipse cx="202.373" cy="22.1032" rx="0.963755" ry="0.955856" fill="#6C6CFF"/>
<ellipse cx="221.773" cy="22.1032" rx="0.963755" ry="0.955856" fill="#6C6CFF"/>
<ellipse cx="241.175" cy="22.1032" rx="0.963755" ry="0.955856" fill="#6C6CFF"/>
<ellipse cx="260.576" cy="22.1032" rx="0.963755" ry="0.955856" fill="#6C6CFF"/>
<ellipse cx="279.982" cy="22.1032" rx="0.963755" ry="0.955856" fill="#6C6CFF"/>
<ellipse cx="299.38" cy="22.1032" rx="0.963755" ry="0.955856" fill="#6C6CFF"/>
<ellipse cx="318.783" cy="22.1032" rx="0.963755" ry="0.955856" fill="#6C6CFF"/>
<ellipse cx="338.184" cy="22.1032" rx="0.963755" ry="0.955856" fill="#6C6CFF"/>
<ellipse cx="357.589" cy="22.1032" rx="0.963755" ry="0.955856" fill="#6C6CFF"/>
<ellipse cx="376.989" cy="22.1032" rx="0.963755" ry="0.955856" fill="#6C6CFF"/>
<ellipse cx="8.34852" cy="41.3462" rx="0.963755" ry="0.955856" fill="#6C6CFF"/>
<ellipse cx="27.7518" cy="41.3462" rx="0.963755" ry="0.955856" fill="#6C6CFF"/>
<ellipse cx="47.1571" cy="41.3462" rx="0.963755" ry="0.955856" fill="#6C6CFF"/>
<ellipse cx="66.5555" cy="41.3462" rx="0.963755" ry="0.955856" fill="#6C6CFF"/>
<ellipse cx="85.9598" cy="41.3462" rx="0.963755" ry="0.955856" fill="#6C6CFF"/>
<ellipse cx="105.36" cy="41.3462" rx="0.963755" ry="0.955856" fill="#6C6CFF"/>
<ellipse cx="124.765" cy="41.3462" rx="0.963755" ry="0.955856" fill="#6C6CFF"/>
<ellipse cx="144.162" cy="41.3462" rx="0.963755" ry="0.955856" fill="#6C6CFF"/>
<ellipse cx="163.567" cy="41.3462" rx="0.963755" ry="0.955856" fill="#6C6CFF"/>
<ellipse cx="182.97" cy="41.3462" rx="0.963755" ry="0.955856" fill="#6C6CFF"/>
<ellipse cx="202.373" cy="41.3462" rx="0.963755" ry="0.955856" fill="#6C6CFF"/>
<ellipse cx="221.773" cy="41.3462" rx="0.963755" ry="0.955856" fill="#6C6CFF"/>
<ellipse cx="241.175" cy="41.3462" rx="0.963755" ry="0.955856" fill="#6C6CFF"/>
<ellipse cx="260.576" cy="41.3462" rx="0.963755" ry="0.955856" fill="#6C6CFF"/>
<ellipse cx="279.982" cy="41.3462" rx="0.963755" ry="0.955856" fill="#6C6CFF"/>
<ellipse cx="299.38" cy="41.3462" rx="0.963755" ry="0.955856" fill="#6C6CFF"/>
<ellipse cx="318.783" cy="41.3462" rx="0.963755" ry="0.955856" fill="#6C6CFF"/>
<ellipse cx="338.184" cy="41.3462" rx="0.963755" ry="0.955856" fill="#6C6CFF"/>
<ellipse cx="357.589" cy="41.3462" rx="0.963755" ry="0.955856" fill="#6C6CFF"/>
<ellipse cx="376.989" cy="41.3462" rx="0.963755" ry="0.955856" fill="#6C6CFF"/>
<ellipse cx="8.34852" cy="60.5898" rx="0.963755" ry="0.955856" fill="#6C6CFF"/>
<ellipse cx="27.7518" cy="60.5898" rx="0.963755" ry="0.955856" fill="#6C6CFF"/>
<ellipse cx="47.1571" cy="60.5898" rx="0.963755" ry="0.955856" fill="#6C6CFF"/>
<ellipse cx="66.5555" cy="60.5898" rx="0.963755" ry="0.955856" fill="#6C6CFF"/>
<ellipse cx="85.9598" cy="60.5898" rx="0.963755" ry="0.955856" fill="#6C6CFF"/>
<ellipse cx="105.36" cy="60.5898" rx="0.963755" ry="0.955856" fill="#6C6CFF"/>
<ellipse cx="124.765" cy="60.5898" rx="0.963755" ry="0.955856" fill="#6C6CFF"/>
<ellipse cx="144.162" cy="60.5898" rx="0.963755" ry="0.955856" fill="#6C6CFF"/>
<ellipse cx="163.567" cy="60.5898" rx="0.963755" ry="0.955856" fill="#6C6CFF"/>
<ellipse cx="182.97" cy="60.5898" rx="0.963755" ry="0.955856" fill="#6C6CFF"/>
<ellipse cx="202.373" cy="60.5898" rx="0.963755" ry="0.955856" fill="#6C6CFF"/>
<ellipse cx="221.773" cy="60.5898" rx="0.963755" ry="0.955856" fill="#6C6CFF"/>
<ellipse cx="241.175" cy="60.5898" rx="0.963755" ry="0.955856" fill="#6C6CFF"/>
<ellipse cx="260.576" cy="60.5898" rx="0.963755" ry="0.955856" fill="#6C6CFF"/>
<ellipse cx="279.982" cy="60.5898" rx="0.963755" ry="0.955856" fill="#6C6CFF"/>
<ellipse cx="299.38" cy="60.5898" rx="0.963755" ry="0.955856" fill="#6C6CFF"/>
<ellipse cx="318.783" cy="60.5898" rx="0.963755" ry="0.955856" fill="#6C6CFF"/>
<ellipse cx="338.184" cy="60.5898" rx="0.963755" ry="0.955856" fill="#6C6CFF"/>
<ellipse cx="357.589" cy="60.5898" rx="0.963755" ry="0.955856" fill="#6C6CFF"/>
<ellipse cx="376.989" cy="60.5898" rx="0.963755" ry="0.955856" fill="#6C6CFF"/>
<ellipse cx="8.34852" cy="79.8331" rx="0.963755" ry="0.955856" fill="#6C6CFF"/>
<ellipse cx="27.7518" cy="79.8331" rx="0.963755" ry="0.955856" fill="#6C6CFF"/>
<ellipse cx="47.1571" cy="79.8331" rx="0.963755" ry="0.955856" fill="#6C6CFF"/>
<ellipse cx="66.5555" cy="79.8331" rx="0.963755" ry="0.955856" fill="#6C6CFF"/>
<ellipse cx="85.9598" cy="79.8331" rx="0.963755" ry="0.955856" fill="#6C6CFF"/>
<ellipse cx="105.36" cy="79.8331" rx="0.963755" ry="0.955856" fill="#6C6CFF"/>
<ellipse cx="124.765" cy="79.8331" rx="0.963755" ry="0.955856" fill="#6C6CFF"/>
<ellipse cx="144.162" cy="79.8331" rx="0.963755" ry="0.955856" fill="#6C6CFF"/>
<ellipse cx="163.567" cy="79.8331" rx="0.963755" ry="0.955856" fill="#6C6CFF"/>
<ellipse cx="182.97" cy="79.8331" rx="0.963755" ry="0.955856" fill="#6C6CFF"/>
<ellipse cx="202.373" cy="79.8331" rx="0.963755" ry="0.955856" fill="#6C6CFF"/>
<ellipse cx="221.773" cy="79.8331" rx="0.963755" ry="0.955856" fill="#6C6CFF"/>
<ellipse cx="241.175" cy="79.8331" rx="0.963755" ry="0.955856" fill="#6C6CFF"/>
<ellipse cx="260.576" cy="79.8331" rx="0.963755" ry="0.955856" fill="#6C6CFF"/>
<ellipse cx="279.982" cy="79.8331" rx="0.963755" ry="0.955856" fill="#6C6CFF"/>
<ellipse cx="299.38" cy="79.8331" rx="0.963755" ry="0.955856" fill="#6C6CFF"/>
<ellipse cx="318.783" cy="79.8331" rx="0.963755" ry="0.955856" fill="#6C6CFF"/>
<ellipse cx="338.184" cy="79.8331" rx="0.963755" ry="0.955856" fill="#6C6CFF"/>
<ellipse cx="357.589" cy="79.8331" rx="0.963755" ry="0.955856" fill="#6C6CFF"/>
<ellipse cx="376.989" cy="79.8331" rx="0.963755" ry="0.955856" fill="#6C6CFF"/>
<ellipse cx="8.34852" cy="99.0757" rx="0.963755" ry="0.955856" fill="#6C6CFF"/>
<ellipse cx="27.7518" cy="99.0757" rx="0.963755" ry="0.955856" fill="#6C6CFF"/>
<ellipse cx="47.1571" cy="99.0757" rx="0.963755" ry="0.955856" fill="#6C6CFF"/>
<ellipse cx="66.5555" cy="99.0757" rx="0.963755" ry="0.955856" fill="#6C6CFF"/>
<ellipse cx="85.9598" cy="99.0757" rx="0.963755" ry="0.955856" fill="#6C6CFF"/>
<ellipse cx="105.36" cy="99.0757" rx="0.963755" ry="0.955856" fill="#6C6CFF"/>
<ellipse cx="124.765" cy="99.0757" rx="0.963755" ry="0.955856" fill="#6C6CFF"/>
<ellipse cx="144.162" cy="99.0757" rx="0.963755" ry="0.955856" fill="#6C6CFF"/>
<ellipse cx="163.567" cy="99.0757" rx="0.963755" ry="0.955856" fill="#6C6CFF"/>
<ellipse cx="182.97" cy="99.0757" rx="0.963755" ry="0.955856" fill="#6C6CFF"/>
<ellipse cx="202.373" cy="99.0757" rx="0.963755" ry="0.955856" fill="#6C6CFF"/>
<ellipse cx="221.773" cy="99.0757" rx="0.963755" ry="0.955856" fill="#6C6CFF"/>
<ellipse cx="241.175" cy="99.0757" rx="0.963755" ry="0.955856" fill="#6C6CFF"/>
<ellipse cx="260.576" cy="99.0757" rx="0.963755" ry="0.955856" fill="#6C6CFF"/>
<ellipse cx="279.982" cy="99.0757" rx="0.963755" ry="0.955856" fill="#6C6CFF"/>
<ellipse cx="299.38" cy="99.0757" rx="0.963755" ry="0.955856" fill="#6C6CFF"/>
<ellipse cx="318.783" cy="99.0757" rx="0.963755" ry="0.955856" fill="#6C6CFF"/>
<ellipse cx="338.184" cy="99.0757" rx="0.963755" ry="0.955856" fill="#6C6CFF"/>
<ellipse cx="357.589" cy="99.0757" rx="0.963755" ry="0.955856" fill="#6C6CFF"/>
<ellipse cx="376.989" cy="99.0757" rx="0.963755" ry="0.955856" fill="#6C6CFF"/>
<ellipse cx="8.34852" cy="118.318" rx="0.963755" ry="0.955856" fill="#6C6CFF"/>
<ellipse cx="27.7518" cy="118.318" rx="0.963755" ry="0.955856" fill="#6C6CFF"/>
<ellipse cx="47.1571" cy="118.318" rx="0.963755" ry="0.955856" fill="#6C6CFF"/>
<ellipse cx="66.5555" cy="118.318" rx="0.963755" ry="0.955856" fill="#6C6CFF"/>
<ellipse cx="85.9598" cy="118.318" rx="0.963755" ry="0.955856" fill="#6C6CFF"/>
<ellipse cx="105.36" cy="118.318" rx="0.963755" ry="0.955856" fill="#6C6CFF"/>
<ellipse cx="124.765" cy="118.318" rx="0.963755" ry="0.955856" fill="#6C6CFF"/>
<ellipse cx="144.162" cy="118.318" rx="0.963755" ry="0.955856" fill="#6C6CFF"/>
<ellipse cx="163.567" cy="118.318" rx="0.963755" ry="0.955856" fill="#6C6CFF"/>
<ellipse cx="182.97" cy="118.318" rx="0.963755" ry="0.955856" fill="#6C6CFF"/>
<ellipse cx="202.373" cy="118.318" rx="0.963755" ry="0.955856" fill="#6C6CFF"/>
<ellipse cx="221.773" cy="118.318" rx="0.963755" ry="0.955856" fill="#6C6CFF"/>
<ellipse cx="241.175" cy="118.318" rx="0.963755" ry="0.955856" fill="#6C6CFF"/>
<ellipse cx="260.576" cy="118.318" rx="0.963755" ry="0.955856" fill="#6C6CFF"/>
<ellipse cx="279.982" cy="118.318" rx="0.963755" ry="0.955856" fill="#6C6CFF"/>
<ellipse cx="299.38" cy="118.318" rx="0.963755" ry="0.955856" fill="#6C6CFF"/>
<ellipse cx="318.783" cy="118.318" rx="0.963755" ry="0.955856" fill="#6C6CFF"/>
<ellipse cx="338.184" cy="118.318" rx="0.963755" ry="0.955856" fill="#6C6CFF"/>
<ellipse cx="357.589" cy="118.318" rx="0.963755" ry="0.955856" fill="#6C6CFF"/>
<ellipse cx="376.989" cy="118.318" rx="0.963755" ry="0.955856" fill="#6C6CFF"/>
<ellipse cx="8.34852" cy="137.562" rx="0.963755" ry="0.955856" fill="#6C6CFF"/>
<ellipse cx="27.7518" cy="137.562" rx="0.963755" ry="0.955856" fill="#6C6CFF"/>
<ellipse cx="47.1571" cy="137.562" rx="0.963755" ry="0.955856" fill="#6C6CFF"/>
<ellipse cx="66.5555" cy="137.562" rx="0.963755" ry="0.955856" fill="#6C6CFF"/>
<ellipse cx="85.9598" cy="137.562" rx="0.963755" ry="0.955856" fill="#6C6CFF"/>
<ellipse cx="105.36" cy="137.562" rx="0.963755" ry="0.955856" fill="#6C6CFF"/>
<ellipse cx="124.765" cy="137.562" rx="0.963755" ry="0.955856" fill="#6C6CFF"/>
<ellipse cx="144.162" cy="137.562" rx="0.963755" ry="0.955856" fill="#6C6CFF"/>
<ellipse cx="163.567" cy="137.562" rx="0.963755" ry="0.955856" fill="#6C6CFF"/>
<ellipse cx="182.97" cy="137.562" rx="0.963755" ry="0.955856" fill="#6C6CFF"/>
<ellipse cx="202.373" cy="137.562" rx="0.963755" ry="0.955856" fill="#6C6CFF"/>
<ellipse cx="221.773" cy="137.562" rx="0.963755" ry="0.955856" fill="#6C6CFF"/>
<ellipse cx="241.175" cy="137.562" rx="0.963755" ry="0.955856" fill="#6C6CFF"/>
<ellipse cx="260.576" cy="137.562" rx="0.963755" ry="0.955856" fill="#6C6CFF"/>
<ellipse cx="279.982" cy="137.562" rx="0.963755" ry="0.955856" fill="#6C6CFF"/>
<ellipse cx="299.38" cy="137.562" rx="0.963755" ry="0.955856" fill="#6C6CFF"/>
<ellipse cx="318.783" cy="137.562" rx="0.963755" ry="0.955856" fill="#6C6CFF"/>
<ellipse cx="338.184" cy="137.562" rx="0.963755" ry="0.955856" fill="#6C6CFF"/>
<ellipse cx="357.589" cy="137.562" rx="0.963755" ry="0.955856" fill="#6C6CFF"/>
<ellipse cx="376.989" cy="137.562" rx="0.963755" ry="0.955856" fill="#6C6CFF"/>
<ellipse cx="8.34852" cy="156.805" rx="0.963755" ry="0.955856" fill="#6C6CFF"/>
<ellipse cx="27.7518" cy="156.805" rx="0.963755" ry="0.955856" fill="#6C6CFF"/>
<ellipse cx="47.1571" cy="156.805" rx="0.963755" ry="0.955856" fill="#6C6CFF"/>
<ellipse cx="66.5555" cy="156.805" rx="0.963755" ry="0.955856" fill="#6C6CFF"/>
<ellipse cx="85.9598" cy="156.805" rx="0.963755" ry="0.955856" fill="#6C6CFF"/>
<ellipse cx="105.36" cy="156.805" rx="0.963755" ry="0.955856" fill="#6C6CFF"/>
<ellipse cx="124.765" cy="156.805" rx="0.963755" ry="0.955856" fill="#6C6CFF"/>
<ellipse cx="144.162" cy="156.805" rx="0.963755" ry="0.955856" fill="#6C6CFF"/>
<ellipse cx="163.566" cy="156.805" rx="0.963755" ry="0.955856" fill="#6C6CFF"/>
<ellipse cx="182.97" cy="156.805" rx="0.963755" ry="0.955856" fill="#6C6CFF"/>
<ellipse cx="202.373" cy="156.805" rx="0.963755" ry="0.955856" fill="#6C6CFF"/>
<ellipse cx="221.773" cy="156.805" rx="0.963755" ry="0.955856" fill="#6C6CFF"/>
<ellipse cx="241.175" cy="156.805" rx="0.963755" ry="0.955856" fill="#6C6CFF"/>
<ellipse cx="260.576" cy="156.805" rx="0.963755" ry="0.955856" fill="#6C6CFF"/>
<ellipse cx="279.982" cy="156.805" rx="0.963755" ry="0.955856" fill="#6C6CFF"/>
<ellipse cx="299.38" cy="156.805" rx="0.963755" ry="0.955856" fill="#6C6CFF"/>
<ellipse cx="318.783" cy="156.805" rx="0.963755" ry="0.955856" fill="#6C6CFF"/>
<ellipse cx="338.184" cy="156.805" rx="0.963755" ry="0.955856" fill="#6C6CFF"/>
<ellipse cx="357.589" cy="156.805" rx="0.963755" ry="0.955856" fill="#6C6CFF"/>
<ellipse cx="376.989" cy="156.805" rx="0.963755" ry="0.955856" fill="#6C6CFF"/>
<ellipse cx="8.34852" cy="176.048" rx="0.963755" ry="0.955856" fill="#6C6CFF"/>
<ellipse cx="27.7518" cy="176.048" rx="0.963755" ry="0.955856" fill="#6C6CFF"/>
<ellipse cx="47.1571" cy="176.048" rx="0.963755" ry="0.955856" fill="#6C6CFF"/>
<ellipse cx="66.5555" cy="176.048" rx="0.963755" ry="0.955856" fill="#6C6CFF"/>
<ellipse cx="85.9598" cy="176.048" rx="0.963755" ry="0.955856" fill="#6C6CFF"/>
<ellipse cx="105.36" cy="176.048" rx="0.963755" ry="0.955856" fill="#6C6CFF"/>
<ellipse cx="124.765" cy="176.048" rx="0.963755" ry="0.955856" fill="#6C6CFF"/>
<ellipse cx="144.162" cy="176.048" rx="0.963755" ry="0.955856" fill="#6C6CFF"/>
<ellipse cx="163.566" cy="176.048" rx="0.963755" ry="0.955856" fill="#6C6CFF"/>
<ellipse cx="182.97" cy="176.048" rx="0.963755" ry="0.955856" fill="#6C6CFF"/>
<ellipse cx="202.373" cy="176.048" rx="0.963755" ry="0.955856" fill="#6C6CFF"/>
<ellipse cx="221.773" cy="176.048" rx="0.963755" ry="0.955856" fill="#6C6CFF"/>
<ellipse cx="241.175" cy="176.048" rx="0.963755" ry="0.955856" fill="#6C6CFF"/>
<ellipse cx="260.576" cy="176.048" rx="0.963755" ry="0.955856" fill="#6C6CFF"/>
<ellipse cx="279.982" cy="176.048" rx="0.963755" ry="0.955856" fill="#6C6CFF"/>
<ellipse cx="299.38" cy="176.048" rx="0.963755" ry="0.955856" fill="#6C6CFF"/>
<ellipse cx="318.783" cy="176.048" rx="0.963755" ry="0.955856" fill="#6C6CFF"/>
<ellipse cx="338.184" cy="176.048" rx="0.963755" ry="0.955856" fill="#6C6CFF"/>
<ellipse cx="357.589" cy="176.048" rx="0.963755" ry="0.955856" fill="#6C6CFF"/>
<ellipse cx="376.989" cy="176.048" rx="0.963755" ry="0.955856" fill="#6C6CFF"/>
<ellipse cx="8.34852" cy="195.291" rx="0.963755" ry="0.955856" fill="#6C6CFF"/>
<ellipse cx="27.7518" cy="195.291" rx="0.963755" ry="0.955856" fill="#6C6CFF"/>
<ellipse cx="47.1571" cy="195.291" rx="0.963755" ry="0.955856" fill="#6C6CFF"/>
<ellipse cx="66.5555" cy="195.291" rx="0.963755" ry="0.955856" fill="#6C6CFF"/>
<ellipse cx="85.9598" cy="195.291" rx="0.963755" ry="0.955856" fill="#6C6CFF"/>
<ellipse cx="105.36" cy="195.291" rx="0.963755" ry="0.955856" fill="#6C6CFF"/>
<ellipse cx="124.765" cy="195.291" rx="0.963755" ry="0.955856" fill="#6C6CFF"/>
<ellipse cx="144.162" cy="195.291" rx="0.963755" ry="0.955856" fill="#6C6CFF"/>
<ellipse cx="163.566" cy="195.291" rx="0.963755" ry="0.955856" fill="#6C6CFF"/>
<ellipse cx="182.97" cy="195.291" rx="0.963755" ry="0.955856" fill="#6C6CFF"/>
<ellipse cx="202.373" cy="195.291" rx="0.963755" ry="0.955856" fill="#6C6CFF"/>
<ellipse cx="221.773" cy="195.291" rx="0.963755" ry="0.955856" fill="#6C6CFF"/>
<ellipse cx="241.175" cy="195.291" rx="0.963755" ry="0.955856" fill="#6C6CFF"/>
<ellipse cx="260.576" cy="195.291" rx="0.963755" ry="0.955856" fill="#6C6CFF"/>
<ellipse cx="279.982" cy="195.291" rx="0.963755" ry="0.955856" fill="#6C6CFF"/>
<ellipse cx="299.38" cy="195.291" rx="0.963755" ry="0.955856" fill="#6C6CFF"/>
<ellipse cx="318.783" cy="195.291" rx="0.963755" ry="0.955856" fill="#6C6CFF"/>
<ellipse cx="338.184" cy="195.291" rx="0.963755" ry="0.955856" fill="#6C6CFF"/>
<ellipse cx="357.589" cy="195.291" rx="0.963755" ry="0.955856" fill="#6C6CFF"/>
<ellipse cx="376.989" cy="195.291" rx="0.963755" ry="0.955856" fill="#6C6CFF"/>
<ellipse cx="8.34852" cy="214.535" rx="0.963755" ry="0.955856" fill="#6C6CFF"/>
<ellipse cx="27.7518" cy="214.535" rx="0.963755" ry="0.955856" fill="#6C6CFF"/>
<ellipse cx="47.1571" cy="214.535" rx="0.963755" ry="0.955856" fill="#6C6CFF"/>
<ellipse cx="66.5555" cy="214.535" rx="0.963755" ry="0.955856" fill="#6C6CFF"/>
<ellipse cx="85.9598" cy="214.535" rx="0.963755" ry="0.955856" fill="#6C6CFF"/>
<ellipse cx="105.36" cy="214.535" rx="0.963755" ry="0.955856" fill="#6C6CFF"/>
<ellipse cx="124.765" cy="214.535" rx="0.963755" ry="0.955856" fill="#6C6CFF"/>
<ellipse cx="144.162" cy="214.535" rx="0.963755" ry="0.955856" fill="#6C6CFF"/>
<ellipse cx="163.566" cy="214.535" rx="0.963755" ry="0.955856" fill="#6C6CFF"/>
<ellipse cx="182.97" cy="214.535" rx="0.963755" ry="0.955856" fill="#6C6CFF"/>
<ellipse cx="202.373" cy="214.535" rx="0.963755" ry="0.955856" fill="#6C6CFF"/>
<ellipse cx="221.773" cy="214.535" rx="0.963755" ry="0.955856" fill="#6C6CFF"/>
<ellipse cx="241.175" cy="214.535" rx="0.963755" ry="0.955856" fill="#6C6CFF"/>
<ellipse cx="260.576" cy="214.535" rx="0.963755" ry="0.955856" fill="#6C6CFF"/>
<ellipse cx="279.982" cy="214.535" rx="0.963755" ry="0.955856" fill="#6C6CFF"/>
<ellipse cx="299.38" cy="214.535" rx="0.963755" ry="0.955856" fill="#6C6CFF"/>
<ellipse cx="318.783" cy="214.535" rx="0.963755" ry="0.955856" fill="#6C6CFF"/>
<ellipse cx="338.184" cy="214.535" rx="0.963755" ry="0.955856" fill="#6C6CFF"/>
<ellipse cx="357.589" cy="214.535" rx="0.963755" ry="0.955856" fill="#6C6CFF"/>
<ellipse cx="376.989" cy="214.535" rx="0.963755" ry="0.955856" fill="#6C6CFF"/>
<ellipse cx="8.34852" cy="233.777" rx="0.963755" ry="0.955856" fill="#6C6CFF"/>
<ellipse cx="27.7518" cy="233.777" rx="0.963755" ry="0.955856" fill="#6C6CFF"/>
<ellipse cx="47.1571" cy="233.777" rx="0.963755" ry="0.955856" fill="#6C6CFF"/>
<ellipse cx="66.5555" cy="233.777" rx="0.963755" ry="0.955856" fill="#6C6CFF"/>
<ellipse cx="85.9598" cy="233.777" rx="0.963755" ry="0.955856" fill="#6C6CFF"/>
<ellipse cx="105.36" cy="233.777" rx="0.963755" ry="0.955856" fill="#6C6CFF"/>
<ellipse cx="124.765" cy="233.777" rx="0.963755" ry="0.955856" fill="#6C6CFF"/>
<ellipse cx="144.162" cy="233.777" rx="0.963755" ry="0.955856" fill="#6C6CFF"/>
<ellipse cx="163.566" cy="233.777" rx="0.963755" ry="0.955856" fill="#6C6CFF"/>
<ellipse cx="182.97" cy="233.777" rx="0.963755" ry="0.955856" fill="#6C6CFF"/>
<ellipse cx="202.373" cy="233.777" rx="0.963755" ry="0.955856" fill="#6C6CFF"/>
<ellipse cx="221.773" cy="233.777" rx="0.963755" ry="0.955856" fill="#6C6CFF"/>
<ellipse cx="241.175" cy="233.777" rx="0.963755" ry="0.955856" fill="#6C6CFF"/>
<ellipse cx="260.576" cy="233.777" rx="0.963755" ry="0.955856" fill="#6C6CFF"/>
<ellipse cx="279.982" cy="233.777" rx="0.963755" ry="0.955856" fill="#6C6CFF"/>
<ellipse cx="299.38" cy="233.777" rx="0.963755" ry="0.955856" fill="#6C6CFF"/>
<ellipse cx="318.783" cy="233.777" rx="0.963755" ry="0.955856" fill="#6C6CFF"/>
<ellipse cx="338.184" cy="233.777" rx="0.963755" ry="0.955856" fill="#6C6CFF"/>
<ellipse cx="357.589" cy="233.777" rx="0.963755" ry="0.955856" fill="#6C6CFF"/>
<ellipse cx="376.989" cy="233.777" rx="0.963755" ry="0.955856" fill="#6C6CFF"/>
<ellipse cx="8.34852" cy="253.019" rx="0.963755" ry="0.955856" fill="#6C6CFF"/>
<ellipse cx="27.7518" cy="253.019" rx="0.963755" ry="0.955856" fill="#6C6CFF"/>
<ellipse cx="47.1571" cy="253.019" rx="0.963755" ry="0.955856" fill="#6C6CFF"/>
<ellipse cx="66.5555" cy="253.019" rx="0.963755" ry="0.955856" fill="#6C6CFF"/>
<ellipse cx="85.9598" cy="253.019" rx="0.963755" ry="0.955856" fill="#6C6CFF"/>
<ellipse cx="105.36" cy="253.019" rx="0.963755" ry="0.955856" fill="#6C6CFF"/>
<ellipse cx="124.765" cy="253.019" rx="0.963755" ry="0.955856" fill="#6C6CFF"/>
<ellipse cx="144.162" cy="253.019" rx="0.963755" ry="0.955856" fill="#6C6CFF"/>
<ellipse cx="163.566" cy="253.019" rx="0.963755" ry="0.955856" fill="#6C6CFF"/>
<ellipse cx="182.97" cy="253.019" rx="0.963755" ry="0.955856" fill="#6C6CFF"/>
<ellipse cx="202.373" cy="253.019" rx="0.963755" ry="0.955856" fill="#6C6CFF"/>
<ellipse cx="221.773" cy="253.019" rx="0.963755" ry="0.955856" fill="#6C6CFF"/>
<ellipse cx="241.175" cy="253.019" rx="0.963755" ry="0.955856" fill="#6C6CFF"/>
<ellipse cx="260.576" cy="253.019" rx="0.963755" ry="0.955856" fill="#6C6CFF"/>
<ellipse cx="279.982" cy="253.019" rx="0.963755" ry="0.955856" fill="#6C6CFF"/>
<ellipse cx="299.38" cy="253.019" rx="0.963755" ry="0.955856" fill="#6C6CFF"/>
<ellipse cx="318.783" cy="253.019" rx="0.963755" ry="0.955856" fill="#6C6CFF"/>
<ellipse cx="338.184" cy="253.019" rx="0.963755" ry="0.955856" fill="#6C6CFF"/>
<ellipse cx="357.589" cy="253.019" rx="0.963755" ry="0.955856" fill="#6C6CFF"/>
<ellipse cx="376.989" cy="253.019" rx="0.963755" ry="0.955856" fill="#6C6CFF"/>
</g>
<g opacity="0.24">
<ellipse cx="396.276" cy="2.85988" rx="0.963755" ry="0.955856" fill="#6C6CFF"/>
<ellipse cx="415.68" cy="2.85988" rx="0.963755" ry="0.955856" fill="#6C6CFF"/>
<ellipse cx="435.085" cy="2.85988" rx="0.963755" ry="0.955856" fill="#6C6CFF"/>
<ellipse cx="454.483" cy="2.85988" rx="0.963755" ry="0.955856" fill="#6C6CFF"/>
<ellipse cx="473.888" cy="2.85988" rx="0.963755" ry="0.955856" fill="#6C6CFF"/>
<ellipse cx="493.288" cy="2.85988" rx="0.963755" ry="0.955856" fill="#6C6CFF"/>
<ellipse cx="512.692" cy="2.85988" rx="0.963755" ry="0.955856" fill="#6C6CFF"/>
<ellipse cx="532.09" cy="2.85988" rx="0.963755" ry="0.955856" fill="#6C6CFF"/>
<ellipse cx="551.495" cy="2.85988" rx="0.963755" ry="0.955856" fill="#6C6CFF"/>
<ellipse cx="570.897" cy="2.85988" rx="0.963755" ry="0.955856" fill="#6C6CFF"/>
<ellipse cx="590.301" cy="2.85988" rx="0.963755" ry="0.955856" fill="#6C6CFF"/>
<ellipse cx="609.701" cy="2.85988" rx="0.963755" ry="0.955856" fill="#6C6CFF"/>
<ellipse cx="629.102" cy="2.85988" rx="0.963755" ry="0.955856" fill="#6C6CFF"/>
<ellipse cx="648.504" cy="2.85988" rx="0.963755" ry="0.955856" fill="#6C6CFF"/>
<ellipse cx="667.91" cy="2.85988" rx="0.963755" ry="0.955856" fill="#6C6CFF"/>
<ellipse cx="687.307" cy="2.85988" rx="0.963755" ry="0.955856" fill="#6C6CFF"/>
<ellipse cx="706.711" cy="2.85988" rx="0.963755" ry="0.955856" fill="#6C6CFF"/>
<ellipse cx="726.112" cy="2.85988" rx="0.963755" ry="0.955856" fill="#6C6CFF"/>
<ellipse cx="745.516" cy="2.85988" rx="0.963755" ry="0.955856" fill="#6C6CFF"/>
<ellipse cx="764.917" cy="2.85988" rx="0.963755" ry="0.955856" fill="#6C6CFF"/>
<ellipse cx="396.276" cy="22.1031" rx="0.963755" ry="0.955856" fill="#6C6CFF"/>
<ellipse cx="415.68" cy="22.1031" rx="0.963755" ry="0.955856" fill="#6C6CFF"/>
<ellipse cx="435.085" cy="22.1031" rx="0.963755" ry="0.955856" fill="#6C6CFF"/>
<ellipse cx="454.483" cy="22.1031" rx="0.963755" ry="0.955856" fill="#6C6CFF"/>
<ellipse cx="473.888" cy="22.1031" rx="0.963755" ry="0.955856" fill="#6C6CFF"/>
<ellipse cx="493.288" cy="22.1031" rx="0.963755" ry="0.955856" fill="#6C6CFF"/>
<ellipse cx="512.692" cy="22.1031" rx="0.963755" ry="0.955856" fill="#6C6CFF"/>
<ellipse cx="532.09" cy="22.1031" rx="0.963755" ry="0.955856" fill="#6C6CFF"/>
<ellipse cx="551.495" cy="22.1031" rx="0.963755" ry="0.955856" fill="#6C6CFF"/>
<ellipse cx="570.897" cy="22.1031" rx="0.963755" ry="0.955856" fill="#6C6CFF"/>
<ellipse cx="590.301" cy="22.1031" rx="0.963755" ry="0.955856" fill="#6C6CFF"/>
<ellipse cx="609.701" cy="22.1031" rx="0.963755" ry="0.955856" fill="#6C6CFF"/>
<ellipse cx="629.102" cy="22.1031" rx="0.963755" ry="0.955856" fill="#6C6CFF"/>
<ellipse cx="648.504" cy="22.1031" rx="0.963755" ry="0.955856" fill="#6C6CFF"/>
<ellipse cx="667.91" cy="22.1031" rx="0.963755" ry="0.955856" fill="#6C6CFF"/>
<ellipse cx="687.307" cy="22.1031" rx="0.963755" ry="0.955856" fill="#6C6CFF"/>
<ellipse cx="706.711" cy="22.1031" rx="0.963755" ry="0.955856" fill="#6C6CFF"/>
<ellipse cx="726.112" cy="22.1031" rx="0.963755" ry="0.955856" fill="#6C6CFF"/>
<ellipse cx="745.516" cy="22.1031" rx="0.963755" ry="0.955856" fill="#6C6CFF"/>
<ellipse cx="764.917" cy="22.1031" rx="0.963755" ry="0.955856" fill="#6C6CFF"/>
<ellipse cx="396.276" cy="41.3461" rx="0.963755" ry="0.955856" fill="#6C6CFF"/>
<ellipse cx="415.68" cy="41.3461" rx="0.963755" ry="0.955856" fill="#6C6CFF"/>
<ellipse cx="435.085" cy="41.3461" rx="0.963755" ry="0.955856" fill="#6C6CFF"/>
<ellipse cx="454.483" cy="41.3461" rx="0.963755" ry="0.955856" fill="#6C6CFF"/>
<ellipse cx="473.888" cy="41.3461" rx="0.963755" ry="0.955856" fill="#6C6CFF"/>
<ellipse cx="493.288" cy="41.3461" rx="0.963755" ry="0.955856" fill="#6C6CFF"/>
<ellipse cx="512.692" cy="41.3461" rx="0.963755" ry="0.955856" fill="#6C6CFF"/>
<ellipse cx="532.09" cy="41.3461" rx="0.963755" ry="0.955856" fill="#6C6CFF"/>
<ellipse cx="551.495" cy="41.3461" rx="0.963755" ry="0.955856" fill="#6C6CFF"/>
<ellipse cx="570.897" cy="41.3461" rx="0.963755" ry="0.955856" fill="#6C6CFF"/>
<ellipse cx="590.301" cy="41.3461" rx="0.963755" ry="0.955856" fill="#6C6CFF"/>
<ellipse cx="609.701" cy="41.3461" rx="0.963755" ry="0.955856" fill="#6C6CFF"/>
<ellipse cx="629.102" cy="41.3461" rx="0.963755" ry="0.955856" fill="#6C6CFF"/>
<ellipse cx="648.504" cy="41.3461" rx="0.963755" ry="0.955856" fill="#6C6CFF"/>
<ellipse cx="667.91" cy="41.3461" rx="0.963755" ry="0.955856" fill="#6C6CFF"/>
<ellipse cx="687.307" cy="41.3461" rx="0.963755" ry="0.955856" fill="#6C6CFF"/>
<ellipse cx="706.711" cy="41.3461" rx="0.963755" ry="0.955856" fill="#6C6CFF"/>
<ellipse cx="726.112" cy="41.3461" rx="0.963755" ry="0.955856" fill="#6C6CFF"/>
<ellipse cx="745.516" cy="41.3461" rx="0.963755" ry="0.955856" fill="#6C6CFF"/>
<ellipse cx="764.917" cy="41.3461" rx="0.963755" ry="0.955856" fill="#6C6CFF"/>
<ellipse cx="396.276" cy="60.5897" rx="0.963755" ry="0.955856" fill="#6C6CFF"/>
<ellipse cx="415.68" cy="60.5897" rx="0.963755" ry="0.955856" fill="#6C6CFF"/>
<ellipse cx="435.085" cy="60.5897" rx="0.963755" ry="0.955856" fill="#6C6CFF"/>
<ellipse cx="454.483" cy="60.5897" rx="0.963755" ry="0.955856" fill="#6C6CFF"/>
<ellipse cx="473.888" cy="60.5897" rx="0.963755" ry="0.955856" fill="#6C6CFF"/>
<ellipse cx="493.288" cy="60.5897" rx="0.963755" ry="0.955856" fill="#6C6CFF"/>
<ellipse cx="512.692" cy="60.5897" rx="0.963755" ry="0.955856" fill="#6C6CFF"/>
<ellipse cx="532.09" cy="60.5897" rx="0.963755" ry="0.955856" fill="#6C6CFF"/>
<ellipse cx="551.495" cy="60.5897" rx="0.963755" ry="0.955856" fill="#6C6CFF"/>
<ellipse cx="570.897" cy="60.5897" rx="0.963755" ry="0.955856" fill="#6C6CFF"/>
<ellipse cx="590.301" cy="60.5897" rx="0.963755" ry="0.955856" fill="#6C6CFF"/>
<ellipse cx="609.701" cy="60.5897" rx="0.963755" ry="0.955856" fill="#6C6CFF"/>
<ellipse cx="629.102" cy="60.5897" rx="0.963755" ry="0.955856" fill="#6C6CFF"/>
<ellipse cx="648.504" cy="60.5897" rx="0.963755" ry="0.955856" fill="#6C6CFF"/>
<ellipse cx="667.91" cy="60.5897" rx="0.963755" ry="0.955856" fill="#6C6CFF"/>
<ellipse cx="687.307" cy="60.5897" rx="0.963755" ry="0.955856" fill="#6C6CFF"/>
<ellipse cx="706.711" cy="60.5897" rx="0.963755" ry="0.955856" fill="#6C6CFF"/>
<ellipse cx="726.112" cy="60.5897" rx="0.963755" ry="0.955856" fill="#6C6CFF"/>
<ellipse cx="745.516" cy="60.5897" rx="0.963755" ry="0.955856" fill="#6C6CFF"/>
<ellipse cx="764.917" cy="60.5897" rx="0.963755" ry="0.955856" fill="#6C6CFF"/>
<ellipse cx="396.276" cy="79.8331" rx="0.963755" ry="0.955856" fill="#6C6CFF"/>
<ellipse cx="415.68" cy="79.8331" rx="0.963755" ry="0.955856" fill="#6C6CFF"/>
<ellipse cx="435.085" cy="79.8331" rx="0.963755" ry="0.955856" fill="#6C6CFF"/>
<ellipse cx="454.483" cy="79.8331" rx="0.963755" ry="0.955856" fill="#6C6CFF"/>
<ellipse cx="473.888" cy="79.8331" rx="0.963755" ry="0.955856" fill="#6C6CFF"/>
<ellipse cx="493.288" cy="79.8331" rx="0.963755" ry="0.955856" fill="#6C6CFF"/>
<ellipse cx="512.692" cy="79.8331" rx="0.963755" ry="0.955856" fill="#6C6CFF"/>
<ellipse cx="532.09" cy="79.8331" rx="0.963755" ry="0.955856" fill="#6C6CFF"/>
<ellipse cx="551.495" cy="79.8331" rx="0.963755" ry="0.955856" fill="#6C6CFF"/>
<ellipse cx="570.897" cy="79.8331" rx="0.963755" ry="0.955856" fill="#6C6CFF"/>
<ellipse cx="590.301" cy="79.8331" rx="0.963755" ry="0.955856" fill="#6C6CFF"/>
<ellipse cx="609.701" cy="79.8331" rx="0.963755" ry="0.955856" fill="#6C6CFF"/>
<ellipse cx="629.102" cy="79.8331" rx="0.963755" ry="0.955856" fill="#6C6CFF"/>
<ellipse cx="648.504" cy="79.8331" rx="0.963755" ry="0.955856" fill="#6C6CFF"/>
<ellipse cx="667.91" cy="79.8331" rx="0.963755" ry="0.955856" fill="#6C6CFF"/>
<ellipse cx="687.307" cy="79.8331" rx="0.963755" ry="0.955856" fill="#6C6CFF"/>
<ellipse cx="706.711" cy="79.8331" rx="0.963755" ry="0.955856" fill="#6C6CFF"/>
<ellipse cx="726.112" cy="79.8331" rx="0.963755" ry="0.955856" fill="#6C6CFF"/>
<ellipse cx="745.516" cy="79.8331" rx="0.963755" ry="0.955856" fill="#6C6CFF"/>
<ellipse cx="764.917" cy="79.8331" rx="0.963755" ry="0.955856" fill="#6C6CFF"/>
<ellipse cx="396.276" cy="99.0757" rx="0.963755" ry="0.955856" fill="#6C6CFF"/>
<ellipse cx="415.68" cy="99.0757" rx="0.963755" ry="0.955856" fill="#6C6CFF"/>
<ellipse cx="435.085" cy="99.0757" rx="0.963755" ry="0.955856" fill="#6C6CFF"/>
<ellipse cx="454.483" cy="99.0757" rx="0.963755" ry="0.955856" fill="#6C6CFF"/>
<ellipse cx="473.888" cy="99.0757" rx="0.963755" ry="0.955856" fill="#6C6CFF"/>
<ellipse cx="493.288" cy="99.0757" rx="0.963755" ry="0.955856" fill="#6C6CFF"/>
<ellipse cx="512.692" cy="99.0757" rx="0.963755" ry="0.955856" fill="#6C6CFF"/>
<ellipse cx="532.09" cy="99.0757" rx="0.963755" ry="0.955856" fill="#6C6CFF"/>
<ellipse cx="551.495" cy="99.0757" rx="0.963755" ry="0.955856" fill="#6C6CFF"/>
<ellipse cx="570.897" cy="99.0757" rx="0.963755" ry="0.955856" fill="#6C6CFF"/>
<ellipse cx="590.301" cy="99.0757" rx="0.963755" ry="0.955856" fill="#6C6CFF"/>
<ellipse cx="609.701" cy="99.0757" rx="0.963755" ry="0.955856" fill="#6C6CFF"/>
<ellipse cx="629.102" cy="99.0757" rx="0.963755" ry="0.955856" fill="#6C6CFF"/>
<ellipse cx="648.504" cy="99.0757" rx="0.963755" ry="0.955856" fill="#6C6CFF"/>
<ellipse cx="667.91" cy="99.0757" rx="0.963755" ry="0.955856" fill="#6C6CFF"/>
<ellipse cx="687.307" cy="99.0757" rx="0.963755" ry="0.955856" fill="#6C6CFF"/>
<ellipse cx="706.711" cy="99.0757" rx="0.963755" ry="0.955856" fill="#6C6CFF"/>
<ellipse cx="726.112" cy="99.0757" rx="0.963755" ry="0.955856" fill="#6C6CFF"/>
<ellipse cx="745.516" cy="99.0757" rx="0.963755" ry="0.955856" fill="#6C6CFF"/>
<ellipse cx="764.917" cy="99.0757" rx="0.963755" ry="0.955856" fill="#6C6CFF"/>
<ellipse cx="396.276" cy="118.318" rx="0.963755" ry="0.955856" fill="#6C6CFF"/>
<ellipse cx="415.68" cy="118.318" rx="0.963755" ry="0.955856" fill="#6C6CFF"/>
<ellipse cx="435.085" cy="118.318" rx="0.963755" ry="0.955856" fill="#6C6CFF"/>
<ellipse cx="454.483" cy="118.318" rx="0.963755" ry="0.955856" fill="#6C6CFF"/>
<ellipse cx="473.888" cy="118.318" rx="0.963755" ry="0.955856" fill="#6C6CFF"/>
<ellipse cx="493.288" cy="118.318" rx="0.963755" ry="0.955856" fill="#6C6CFF"/>
<ellipse cx="512.692" cy="118.318" rx="0.963755" ry="0.955856" fill="#6C6CFF"/>
<ellipse cx="532.09" cy="118.318" rx="0.963755" ry="0.955856" fill="#6C6CFF"/>
<ellipse cx="551.495" cy="118.318" rx="0.963755" ry="0.955856" fill="#6C6CFF"/>
<ellipse cx="570.897" cy="118.318" rx="0.963755" ry="0.955856" fill="#6C6CFF"/>
<ellipse cx="590.301" cy="118.318" rx="0.963755" ry="0.955856" fill="#6C6CFF"/>
<ellipse cx="609.701" cy="118.318" rx="0.963755" ry="0.955856" fill="#6C6CFF"/>
<ellipse cx="629.102" cy="118.318" rx="0.963755" ry="0.955856" fill="#6C6CFF"/>
<ellipse cx="648.504" cy="118.318" rx="0.963755" ry="0.955856" fill="#6C6CFF"/>
<ellipse cx="667.91" cy="118.318" rx="0.963755" ry="0.955856" fill="#6C6CFF"/>
<ellipse cx="687.307" cy="118.318" rx="0.963755" ry="0.955856" fill="#6C6CFF"/>
<ellipse cx="706.711" cy="118.318" rx="0.963755" ry="0.955856" fill="#6C6CFF"/>
<ellipse cx="726.112" cy="118.318" rx="0.963755" ry="0.955856" fill="#6C6CFF"/>
<ellipse cx="745.516" cy="118.318" rx="0.963755" ry="0.955856" fill="#6C6CFF"/>
<ellipse cx="764.917" cy="118.318" rx="0.963755" ry="0.955856" fill="#6C6CFF"/>
<ellipse cx="396.276" cy="137.562" rx="0.963755" ry="0.955856" fill="#6C6CFF"/>
<ellipse cx="415.68" cy="137.562" rx="0.963755" ry="0.955856" fill="#6C6CFF"/>
<ellipse cx="435.085" cy="137.562" rx="0.963755" ry="0.955856" fill="#6C6CFF"/>
<ellipse cx="454.483" cy="137.562" rx="0.963755" ry="0.955856" fill="#6C6CFF"/>
<ellipse cx="473.888" cy="137.562" rx="0.963755" ry="0.955856" fill="#6C6CFF"/>
<ellipse cx="493.288" cy="137.562" rx="0.963755" ry="0.955856" fill="#6C6CFF"/>
<ellipse cx="512.692" cy="137.562" rx="0.963755" ry="0.955856" fill="#6C6CFF"/>
<ellipse cx="532.09" cy="137.562" rx="0.963755" ry="0.955856" fill="#6C6CFF"/>
<ellipse cx="551.495" cy="137.562" rx="0.963755" ry="0.955856" fill="#6C6CFF"/>
<ellipse cx="570.897" cy="137.562" rx="0.963755" ry="0.955856" fill="#6C6CFF"/>
<ellipse cx="590.301" cy="137.562" rx="0.963755" ry="0.955856" fill="#6C6CFF"/>
<ellipse cx="609.701" cy="137.562" rx="0.963755" ry="0.955856" fill="#6C6CFF"/>
<ellipse cx="629.102" cy="137.562" rx="0.963755" ry="0.955856" fill="#6C6CFF"/>
<ellipse cx="648.504" cy="137.562" rx="0.963755" ry="0.955856" fill="#6C6CFF"/>
<ellipse cx="667.91" cy="137.562" rx="0.963755" ry="0.955856" fill="#6C6CFF"/>
<ellipse cx="687.307" cy="137.562" rx="0.963755" ry="0.955856" fill="#6C6CFF"/>
<ellipse cx="706.711" cy="137.562" rx="0.963755" ry="0.955856" fill="#6C6CFF"/>
<ellipse cx="726.112" cy="137.562" rx="0.963755" ry="0.955856" fill="#6C6CFF"/>
<ellipse cx="745.516" cy="137.562" rx="0.963755" ry="0.955856" fill="#6C6CFF"/>
<ellipse cx="764.917" cy="137.562" rx="0.963755" ry="0.955856" fill="#6C6CFF"/>
<ellipse cx="396.276" cy="156.805" rx="0.963755" ry="0.955856" fill="#6C6CFF"/>
<ellipse cx="415.68" cy="156.805" rx="0.963755" ry="0.955856" fill="#6C6CFF"/>
<ellipse cx="435.085" cy="156.805" rx="0.963755" ry="0.955856" fill="#6C6CFF"/>
<ellipse cx="454.483" cy="156.805" rx="0.963755" ry="0.955856" fill="#6C6CFF"/>
<ellipse cx="473.888" cy="156.805" rx="0.963755" ry="0.955856" fill="#6C6CFF"/>
<ellipse cx="493.288" cy="156.805" rx="0.963755" ry="0.955856" fill="#6C6CFF"/>
<ellipse cx="512.692" cy="156.805" rx="0.963755" ry="0.955856" fill="#6C6CFF"/>
<ellipse cx="532.09" cy="156.805" rx="0.963755" ry="0.955856" fill="#6C6CFF"/>
<ellipse cx="551.494" cy="156.805" rx="0.963755" ry="0.955856" fill="#6C6CFF"/>
<ellipse cx="570.897" cy="156.805" rx="0.963755" ry="0.955856" fill="#6C6CFF"/>
<ellipse cx="590.301" cy="156.805" rx="0.963755" ry="0.955856" fill="#6C6CFF"/>
<ellipse cx="609.701" cy="156.805" rx="0.963755" ry="0.955856" fill="#6C6CFF"/>
<ellipse cx="629.102" cy="156.805" rx="0.963755" ry="0.955856" fill="#6C6CFF"/>
<ellipse cx="648.504" cy="156.805" rx="0.963755" ry="0.955856" fill="#6C6CFF"/>
<ellipse cx="667.91" cy="156.805" rx="0.963755" ry="0.955856" fill="#6C6CFF"/>
<ellipse cx="687.307" cy="156.805" rx="0.963755" ry="0.955856" fill="#6C6CFF"/>
<ellipse cx="706.711" cy="156.805" rx="0.963755" ry="0.955856" fill="#6C6CFF"/>
<ellipse cx="726.112" cy="156.805" rx="0.963755" ry="0.955856" fill="#6C6CFF"/>
<ellipse cx="745.516" cy="156.805" rx="0.963755" ry="0.955856" fill="#6C6CFF"/>
<ellipse cx="764.917" cy="156.805" rx="0.963755" ry="0.955856" fill="#6C6CFF"/>
<ellipse cx="396.276" cy="176.048" rx="0.963755" ry="0.955856" fill="#6C6CFF"/>
<ellipse cx="415.68" cy="176.048" rx="0.963755" ry="0.955856" fill="#6C6CFF"/>
<ellipse cx="435.085" cy="176.048" rx="0.963755" ry="0.955856" fill="#6C6CFF"/>
<ellipse cx="454.483" cy="176.048" rx="0.963755" ry="0.955856" fill="#6C6CFF"/>
<ellipse cx="473.888" cy="176.048" rx="0.963755" ry="0.955856" fill="#6C6CFF"/>
<ellipse cx="493.288" cy="176.048" rx="0.963755" ry="0.955856" fill="#6C6CFF"/>
<ellipse cx="512.692" cy="176.048" rx="0.963755" ry="0.955856" fill="#6C6CFF"/>
<ellipse cx="532.09" cy="176.048" rx="0.963755" ry="0.955856" fill="#6C6CFF"/>
<ellipse cx="551.494" cy="176.048" rx="0.963755" ry="0.955856" fill="#6C6CFF"/>
<ellipse cx="570.897" cy="176.048" rx="0.963755" ry="0.955856" fill="#6C6CFF"/>
<ellipse cx="590.301" cy="176.048" rx="0.963755" ry="0.955856" fill="#6C6CFF"/>
<ellipse cx="609.701" cy="176.048" rx="0.963755" ry="0.955856" fill="#6C6CFF"/>
<ellipse cx="629.102" cy="176.048" rx="0.963755" ry="0.955856" fill="#6C6CFF"/>
<ellipse cx="648.504" cy="176.048" rx="0.963755" ry="0.955856" fill="#6C6CFF"/>
<ellipse cx="667.91" cy="176.048" rx="0.963755" ry="0.955856" fill="#6C6CFF"/>
<ellipse cx="687.307" cy="176.048" rx="0.963755" ry="0.955856" fill="#6C6CFF"/>
<ellipse cx="706.711" cy="176.048" rx="0.963755" ry="0.955856" fill="#6C6CFF"/>
<ellipse cx="726.112" cy="176.048" rx="0.963755" ry="0.955856" fill="#6C6CFF"/>
<ellipse cx="745.516" cy="176.048" rx="0.963755" ry="0.955856" fill="#6C6CFF"/>
<ellipse cx="764.917" cy="176.048" rx="0.963755" ry="0.955856" fill="#6C6CFF"/>
<ellipse cx="396.276" cy="195.291" rx="0.963755" ry="0.955856" fill="#6C6CFF"/>
<ellipse cx="415.68" cy="195.291" rx="0.963755" ry="0.955856" fill="#6C6CFF"/>
<ellipse cx="435.085" cy="195.291" rx="0.963755" ry="0.955856" fill="#6C6CFF"/>
<ellipse cx="454.483" cy="195.291" rx="0.963755" ry="0.955856" fill="#6C6CFF"/>
<ellipse cx="473.888" cy="195.291" rx="0.963755" ry="0.955856" fill="#6C6CFF"/>
<ellipse cx="493.288" cy="195.291" rx="0.963755" ry="0.955856" fill="#6C6CFF"/>
<ellipse cx="512.692" cy="195.291" rx="0.963755" ry="0.955856" fill="#6C6CFF"/>
<ellipse cx="532.09" cy="195.291" rx="0.963755" ry="0.955856" fill="#6C6CFF"/>
<ellipse cx="551.494" cy="195.291" rx="0.963755" ry="0.955856" fill="#6C6CFF"/>
<ellipse cx="570.897" cy="195.291" rx="0.963755" ry="0.955856" fill="#6C6CFF"/>
<ellipse cx="590.301" cy="195.291" rx="0.963755" ry="0.955856" fill="#6C6CFF"/>
<ellipse cx="609.701" cy="195.291" rx="0.963755" ry="0.955856" fill="#6C6CFF"/>
<ellipse cx="629.102" cy="195.291" rx="0.963755" ry="0.955856" fill="#6C6CFF"/>
<ellipse cx="648.504" cy="195.291" rx="0.963755" ry="0.955856" fill="#6C6CFF"/>
<ellipse cx="667.91" cy="195.291" rx="0.963755" ry="0.955856" fill="#6C6CFF"/>
<ellipse cx="687.307" cy="195.291" rx="0.963755" ry="0.955856" fill="#6C6CFF"/>
<ellipse cx="706.711" cy="195.291" rx="0.963755" ry="0.955856" fill="#6C6CFF"/>
<ellipse cx="726.112" cy="195.291" rx="0.963755" ry="0.955856" fill="#6C6CFF"/>
<ellipse cx="745.516" cy="195.291" rx="0.963755" ry="0.955856" fill="#6C6CFF"/>
<ellipse cx="764.917" cy="195.291" rx="0.963755" ry="0.955856" fill="#6C6CFF"/>
<ellipse cx="396.276" cy="214.535" rx="0.963755" ry="0.955856" fill="#6C6CFF"/>
<ellipse cx="415.68" cy="214.535" rx="0.963755" ry="0.955856" fill="#6C6CFF"/>
<ellipse cx="435.085" cy="214.535" rx="0.963755" ry="0.955856" fill="#6C6CFF"/>
<ellipse cx="454.483" cy="214.535" rx="0.963755" ry="0.955856" fill="#6C6CFF"/>
<ellipse cx="473.888" cy="214.535" rx="0.963755" ry="0.955856" fill="#6C6CFF"/>
<ellipse cx="493.288" cy="214.535" rx="0.963755" ry="0.955856" fill="#6C6CFF"/>
<ellipse cx="512.692" cy="214.535" rx="0.963755" ry="0.955856" fill="#6C6CFF"/>
<ellipse cx="532.09" cy="214.535" rx="0.963755" ry="0.955856" fill="#6C6CFF"/>
<ellipse cx="551.494" cy="214.535" rx="0.963755" ry="0.955856" fill="#6C6CFF"/>
<ellipse cx="570.897" cy="214.535" rx="0.963755" ry="0.955856" fill="#6C6CFF"/>
<ellipse cx="590.301" cy="214.535" rx="0.963755" ry="0.955856" fill="#6C6CFF"/>
<ellipse cx="609.701" cy="214.535" rx="0.963755" ry="0.955856" fill="#6C6CFF"/>
<ellipse cx="629.102" cy="214.535" rx="0.963755" ry="0.955856" fill="#6C6CFF"/>
<ellipse cx="648.504" cy="214.535" rx="0.963755" ry="0.955856" fill="#6C6CFF"/>
<ellipse cx="667.91" cy="214.535" rx="0.963755" ry="0.955856" fill="#6C6CFF"/>
<ellipse cx="687.307" cy="214.535" rx="0.963755" ry="0.955856" fill="#6C6CFF"/>
<ellipse cx="706.711" cy="214.535" rx="0.963755" ry="0.955856" fill="#6C6CFF"/>
<ellipse cx="726.112" cy="214.535" rx="0.963755" ry="0.955856" fill="#6C6CFF"/>
<ellipse cx="745.516" cy="214.535" rx="0.963755" ry="0.955856" fill="#6C6CFF"/>
<ellipse cx="764.917" cy="214.535" rx="0.963755" ry="0.955856" fill="#6C6CFF"/>
<ellipse cx="396.276" cy="233.777" rx="0.963755" ry="0.955856" fill="#6C6CFF"/>
<ellipse cx="415.68" cy="233.777" rx="0.963755" ry="0.955856" fill="#6C6CFF"/>
<ellipse cx="435.085" cy="233.777" rx="0.963755" ry="0.955856" fill="#6C6CFF"/>
<ellipse cx="454.483" cy="233.777" rx="0.963755" ry="0.955856" fill="#6C6CFF"/>
<ellipse cx="473.888" cy="233.777" rx="0.963755" ry="0.955856" fill="#6C6CFF"/>
<ellipse cx="493.288" cy="233.777" rx="0.963755" ry="0.955856" fill="#6C6CFF"/>
<ellipse cx="512.692" cy="233.777" rx="0.963755" ry="0.955856" fill="#6C6CFF"/>
<ellipse cx="532.09" cy="233.777" rx="0.963755" ry="0.955856" fill="#6C6CFF"/>
<ellipse cx="551.494" cy="233.777" rx="0.963755" ry="0.955856" fill="#6C6CFF"/>
<ellipse cx="570.897" cy="233.777" rx="0.963755" ry="0.955856" fill="#6C6CFF"/>
<ellipse cx="590.301" cy="233.777" rx="0.963755" ry="0.955856" fill="#6C6CFF"/>
<ellipse cx="609.701" cy="233.777" rx="0.963755" ry="0.955856" fill="#6C6CFF"/>
<ellipse cx="629.102" cy="233.777" rx="0.963755" ry="0.955856" fill="#6C6CFF"/>
<ellipse cx="648.504" cy="233.777" rx="0.963755" ry="0.955856" fill="#6C6CFF"/>
<ellipse cx="667.91" cy="233.777" rx="0.963755" ry="0.955856" fill="#6C6CFF"/>
<ellipse cx="687.307" cy="233.777" rx="0.963755" ry="0.955856" fill="#6C6CFF"/>
<ellipse cx="706.711" cy="233.777" rx="0.963755" ry="0.955856" fill="#6C6CFF"/>
<ellipse cx="726.112" cy="233.777" rx="0.963755" ry="0.955856" fill="#6C6CFF"/>
<ellipse cx="745.516" cy="233.777" rx="0.963755" ry="0.955856" fill="#6C6CFF"/>
<ellipse cx="764.917" cy="233.777" rx="0.963755" ry="0.955856" fill="#6C6CFF"/>
<ellipse cx="396.276" cy="253.019" rx="0.963755" ry="0.955856" fill="#6C6CFF"/>
<ellipse cx="415.68" cy="253.019" rx="0.963755" ry="0.955856" fill="#6C6CFF"/>
<ellipse cx="435.085" cy="253.019" rx="0.963755" ry="0.955856" fill="#6C6CFF"/>
<ellipse cx="454.483" cy="253.019" rx="0.963755" ry="0.955856" fill="#6C6CFF"/>
<ellipse cx="473.888" cy="253.019" rx="0.963755" ry="0.955856" fill="#6C6CFF"/>
<ellipse cx="493.288" cy="253.019" rx="0.963755" ry="0.955856" fill="#6C6CFF"/>
<ellipse cx="512.692" cy="253.019" rx="0.963755" ry="0.955856" fill="#6C6CFF"/>
<ellipse cx="532.09" cy="253.019" rx="0.963755" ry="0.955856" fill="#6C6CFF"/>
<ellipse cx="551.494" cy="253.019" rx="0.963755" ry="0.955856" fill="#6C6CFF"/>
<ellipse cx="570.897" cy="253.019" rx="0.963755" ry="0.955856" fill="#6C6CFF"/>
<ellipse cx="590.301" cy="253.019" rx="0.963755" ry="0.955856" fill="#6C6CFF"/>
<ellipse cx="609.701" cy="253.019" rx="0.963755" ry="0.955856" fill="#6C6CFF"/>
<ellipse cx="629.102" cy="253.019" rx="0.963755" ry="0.955856" fill="#6C6CFF"/>
<ellipse cx="648.504" cy="253.019" rx="0.963755" ry="0.955856" fill="#6C6CFF"/>
<ellipse cx="667.91" cy="253.019" rx="0.963755" ry="0.955856" fill="#6C6CFF"/>
<ellipse cx="687.307" cy="253.019" rx="0.963755" ry="0.955856" fill="#6C6CFF"/>
<ellipse cx="706.711" cy="253.019" rx="0.963755" ry="0.955856" fill="#6C6CFF"/>
<ellipse cx="726.112" cy="253.019" rx="0.963755" ry="0.955856" fill="#6C6CFF"/>
<ellipse cx="745.516" cy="253.019" rx="0.963755" ry="0.955856" fill="#6C6CFF"/>
<ellipse cx="764.917" cy="253.019" rx="0.963755" ry="0.955856" fill="#6C6CFF"/>
</g>
<path d="M945.835 130.759L977.408 130.758L977.407 61.5456L961.39 69.5788L959.804 69.5788L945.835 61.9696L945.835 130.759Z" fill="url(#paint0_linear_2960_76672)"/>
<circle cx="961.762" cy="64.0119" r="15.9278" fill="#B4B4FF"/>
</g>
<defs>
<linearGradient id="paint0_linear_2960_76672" x1="961.786" y1="48.0007" x2="963.379" y2="107.177" gradientUnits="userSpaceOnUse">
<stop stop-color="#B4B4FF"/>
<stop offset="1" stop-color="#B4B4FF" stop-opacity="0.08"/>
</linearGradient>
<clipPath id="clip0_2960_76672">
<rect width="1141" height="263" fill="white" transform="translate(0 0.566986)"/>
</clipPath>
</defs>
</svg>
