<svg width="395" height="264" viewBox="0 0 395 264" fill="none" xmlns="http://www.w3.org/2000/svg">
<g clip-path="url(#clip0_2960_83929)">
<rect width="395" height="264" fill="#F0F3FF"/>
<rect x="347.755" y="222.368" width="145.15" height="28.427" rx="14.2135" fill="#595AD4"/>
<g opacity="0.24">
<ellipse cx="7.96571" cy="1.59193" rx="0.963755" ry="0.955856" fill="#6C6CFF"/>
<ellipse cx="27.369" cy="1.59193" rx="0.963755" ry="0.955856" fill="#6C6CFF"/>
<ellipse cx="46.7743" cy="1.59193" rx="0.963755" ry="0.955856" fill="#6C6CFF"/>
<ellipse cx="66.1727" cy="1.59193" rx="0.963755" ry="0.955856" fill="#6C6CFF"/>
<ellipse cx="85.577" cy="1.59193" rx="0.963755" ry="0.955856" fill="#6C6CFF"/>
<ellipse cx="104.977" cy="1.59193" rx="0.963755" ry="0.955856" fill="#6C6CFF"/>
<ellipse cx="124.382" cy="1.59193" rx="0.963755" ry="0.955856" fill="#6C6CFF"/>
<ellipse cx="143.779" cy="1.59193" rx="0.963755" ry="0.955856" fill="#6C6CFF"/>
<ellipse cx="163.184" cy="1.59193" rx="0.963755" ry="0.955856" fill="#6C6CFF"/>
<ellipse cx="182.587" cy="1.59193" rx="0.963755" ry="0.955856" fill="#6C6CFF"/>
<ellipse cx="201.99" cy="1.59193" rx="0.963755" ry="0.955856" fill="#6C6CFF"/>
<ellipse cx="221.391" cy="1.59193" rx="0.963755" ry="0.955856" fill="#6C6CFF"/>
<ellipse cx="240.792" cy="1.59193" rx="0.963755" ry="0.955856" fill="#6C6CFF"/>
<ellipse cx="260.193" cy="1.59193" rx="0.963755" ry="0.955856" fill="#6C6CFF"/>
<ellipse cx="279.599" cy="1.59193" rx="0.963755" ry="0.955856" fill="#6C6CFF"/>
<ellipse cx="298.997" cy="1.59193" rx="0.963755" ry="0.955856" fill="#6C6CFF"/>
<ellipse cx="318.4" cy="1.59193" rx="0.963755" ry="0.955856" fill="#6C6CFF"/>
<ellipse cx="337.802" cy="1.59193" rx="0.963755" ry="0.955856" fill="#6C6CFF"/>
<ellipse cx="357.206" cy="1.59193" rx="0.963755" ry="0.955856" fill="#6C6CFF"/>
<ellipse cx="376.606" cy="1.59193" rx="0.963755" ry="0.955856" fill="#6C6CFF"/>
<ellipse cx="7.96571" cy="20.8352" rx="0.963755" ry="0.955856" fill="#6C6CFF"/>
<ellipse cx="27.369" cy="20.8352" rx="0.963755" ry="0.955856" fill="#6C6CFF"/>
<ellipse cx="46.7743" cy="20.8352" rx="0.963755" ry="0.955856" fill="#6C6CFF"/>
<ellipse cx="66.1727" cy="20.8352" rx="0.963755" ry="0.955856" fill="#6C6CFF"/>
<ellipse cx="85.577" cy="20.8352" rx="0.963755" ry="0.955856" fill="#6C6CFF"/>
<ellipse cx="104.977" cy="20.8352" rx="0.963755" ry="0.955856" fill="#6C6CFF"/>
<ellipse cx="124.382" cy="20.8352" rx="0.963755" ry="0.955856" fill="#6C6CFF"/>
<ellipse cx="143.779" cy="20.8352" rx="0.963755" ry="0.955856" fill="#6C6CFF"/>
<ellipse cx="163.184" cy="20.8352" rx="0.963755" ry="0.955856" fill="#6C6CFF"/>
<ellipse cx="182.587" cy="20.8352" rx="0.963755" ry="0.955856" fill="#6C6CFF"/>
<ellipse cx="201.99" cy="20.8352" rx="0.963755" ry="0.955856" fill="#6C6CFF"/>
<ellipse cx="221.391" cy="20.8352" rx="0.963755" ry="0.955856" fill="#6C6CFF"/>
<ellipse cx="240.792" cy="20.8352" rx="0.963755" ry="0.955856" fill="#6C6CFF"/>
<ellipse cx="260.193" cy="20.8352" rx="0.963755" ry="0.955856" fill="#6C6CFF"/>
<ellipse cx="279.599" cy="20.8352" rx="0.963755" ry="0.955856" fill="#6C6CFF"/>
<ellipse cx="298.997" cy="20.8352" rx="0.963755" ry="0.955856" fill="#6C6CFF"/>
<ellipse cx="318.4" cy="20.8352" rx="0.963755" ry="0.955856" fill="#6C6CFF"/>
<ellipse cx="337.802" cy="20.8352" rx="0.963755" ry="0.955856" fill="#6C6CFF"/>
<ellipse cx="357.206" cy="20.8352" rx="0.963755" ry="0.955856" fill="#6C6CFF"/>
<ellipse cx="376.606" cy="20.8352" rx="0.963755" ry="0.955856" fill="#6C6CFF"/>
<ellipse cx="7.96571" cy="40.0782" rx="0.963755" ry="0.955856" fill="#6C6CFF"/>
<ellipse cx="27.369" cy="40.0782" rx="0.963755" ry="0.955856" fill="#6C6CFF"/>
<ellipse cx="46.7743" cy="40.0782" rx="0.963755" ry="0.955856" fill="#6C6CFF"/>
<ellipse cx="66.1727" cy="40.0782" rx="0.963755" ry="0.955856" fill="#6C6CFF"/>
<ellipse cx="85.577" cy="40.0782" rx="0.963755" ry="0.955856" fill="#6C6CFF"/>
<ellipse cx="104.977" cy="40.0782" rx="0.963755" ry="0.955856" fill="#6C6CFF"/>
<ellipse cx="124.382" cy="40.0782" rx="0.963755" ry="0.955856" fill="#6C6CFF"/>
<ellipse cx="143.779" cy="40.0782" rx="0.963755" ry="0.955856" fill="#6C6CFF"/>
<ellipse cx="163.184" cy="40.0782" rx="0.963755" ry="0.955856" fill="#6C6CFF"/>
<ellipse cx="182.587" cy="40.0782" rx="0.963755" ry="0.955856" fill="#6C6CFF"/>
<ellipse cx="201.99" cy="40.0782" rx="0.963755" ry="0.955856" fill="#6C6CFF"/>
<ellipse cx="221.391" cy="40.0782" rx="0.963755" ry="0.955856" fill="#6C6CFF"/>
<ellipse cx="240.792" cy="40.0782" rx="0.963755" ry="0.955856" fill="#6C6CFF"/>
<ellipse cx="260.193" cy="40.0782" rx="0.963755" ry="0.955856" fill="#6C6CFF"/>
<ellipse cx="279.599" cy="40.0782" rx="0.963755" ry="0.955856" fill="#6C6CFF"/>
<ellipse cx="298.997" cy="40.0782" rx="0.963755" ry="0.955856" fill="#6C6CFF"/>
<ellipse cx="318.4" cy="40.0782" rx="0.963755" ry="0.955856" fill="#6C6CFF"/>
<ellipse cx="337.802" cy="40.0782" rx="0.963755" ry="0.955856" fill="#6C6CFF"/>
<ellipse cx="357.206" cy="40.0782" rx="0.963755" ry="0.955856" fill="#6C6CFF"/>
<ellipse cx="376.606" cy="40.0782" rx="0.963755" ry="0.955856" fill="#6C6CFF"/>
<ellipse cx="7.96571" cy="59.3218" rx="0.963755" ry="0.955856" fill="#6C6CFF"/>
<ellipse cx="27.369" cy="59.3218" rx="0.963755" ry="0.955856" fill="#6C6CFF"/>
<ellipse cx="46.7743" cy="59.3218" rx="0.963755" ry="0.955856" fill="#6C6CFF"/>
<ellipse cx="66.1727" cy="59.3218" rx="0.963755" ry="0.955856" fill="#6C6CFF"/>
<ellipse cx="85.577" cy="59.3218" rx="0.963755" ry="0.955856" fill="#6C6CFF"/>
<ellipse cx="104.977" cy="59.3218" rx="0.963755" ry="0.955856" fill="#6C6CFF"/>
<ellipse cx="124.382" cy="59.3218" rx="0.963755" ry="0.955856" fill="#6C6CFF"/>
<ellipse cx="143.779" cy="59.3218" rx="0.963755" ry="0.955856" fill="#6C6CFF"/>
<ellipse cx="163.184" cy="59.3218" rx="0.963755" ry="0.955856" fill="#6C6CFF"/>
<ellipse cx="182.587" cy="59.3218" rx="0.963755" ry="0.955856" fill="#6C6CFF"/>
<ellipse cx="201.99" cy="59.3218" rx="0.963755" ry="0.955856" fill="#6C6CFF"/>
<ellipse cx="221.391" cy="59.3218" rx="0.963755" ry="0.955856" fill="#6C6CFF"/>
<ellipse cx="240.792" cy="59.3218" rx="0.963755" ry="0.955856" fill="#6C6CFF"/>
<ellipse cx="260.193" cy="59.3218" rx="0.963755" ry="0.955856" fill="#6C6CFF"/>
<ellipse cx="279.599" cy="59.3218" rx="0.963755" ry="0.955856" fill="#6C6CFF"/>
<ellipse cx="298.997" cy="59.3218" rx="0.963755" ry="0.955856" fill="#6C6CFF"/>
<ellipse cx="318.4" cy="59.3218" rx="0.963755" ry="0.955856" fill="#6C6CFF"/>
<ellipse cx="337.802" cy="59.3218" rx="0.963755" ry="0.955856" fill="#6C6CFF"/>
<ellipse cx="357.206" cy="59.3218" rx="0.963755" ry="0.955856" fill="#6C6CFF"/>
<ellipse cx="376.606" cy="59.3218" rx="0.963755" ry="0.955856" fill="#6C6CFF"/>
<ellipse cx="7.96571" cy="78.5652" rx="0.963755" ry="0.955856" fill="#6C6CFF"/>
<ellipse cx="27.369" cy="78.5652" rx="0.963755" ry="0.955856" fill="#6C6CFF"/>
<ellipse cx="46.7743" cy="78.5652" rx="0.963755" ry="0.955856" fill="#6C6CFF"/>
<ellipse cx="66.1727" cy="78.5652" rx="0.963755" ry="0.955856" fill="#6C6CFF"/>
<ellipse cx="85.577" cy="78.5652" rx="0.963755" ry="0.955856" fill="#6C6CFF"/>
<ellipse cx="104.977" cy="78.5652" rx="0.963755" ry="0.955856" fill="#6C6CFF"/>
<ellipse cx="124.382" cy="78.5652" rx="0.963755" ry="0.955856" fill="#6C6CFF"/>
<ellipse cx="143.779" cy="78.5652" rx="0.963755" ry="0.955856" fill="#6C6CFF"/>
<ellipse cx="163.184" cy="78.5652" rx="0.963755" ry="0.955856" fill="#6C6CFF"/>
<ellipse cx="182.587" cy="78.5652" rx="0.963755" ry="0.955856" fill="#6C6CFF"/>
<ellipse cx="201.99" cy="78.5652" rx="0.963755" ry="0.955856" fill="#6C6CFF"/>
<ellipse cx="221.391" cy="78.5652" rx="0.963755" ry="0.955856" fill="#6C6CFF"/>
<ellipse cx="240.792" cy="78.5652" rx="0.963755" ry="0.955856" fill="#6C6CFF"/>
<ellipse cx="260.193" cy="78.5652" rx="0.963755" ry="0.955856" fill="#6C6CFF"/>
<ellipse cx="279.599" cy="78.5652" rx="0.963755" ry="0.955856" fill="#6C6CFF"/>
<ellipse cx="298.997" cy="78.5652" rx="0.963755" ry="0.955856" fill="#6C6CFF"/>
<ellipse cx="318.4" cy="78.5652" rx="0.963755" ry="0.955856" fill="#6C6CFF"/>
<ellipse cx="337.802" cy="78.5652" rx="0.963755" ry="0.955856" fill="#6C6CFF"/>
<ellipse cx="357.206" cy="78.5652" rx="0.963755" ry="0.955856" fill="#6C6CFF"/>
<ellipse cx="376.606" cy="78.5652" rx="0.963755" ry="0.955856" fill="#6C6CFF"/>
<ellipse cx="7.96571" cy="97.8077" rx="0.963755" ry="0.955856" fill="#6C6CFF"/>
<ellipse cx="27.369" cy="97.8077" rx="0.963755" ry="0.955856" fill="#6C6CFF"/>
<ellipse cx="46.7743" cy="97.8077" rx="0.963755" ry="0.955856" fill="#6C6CFF"/>
<ellipse cx="66.1727" cy="97.8077" rx="0.963755" ry="0.955856" fill="#6C6CFF"/>
<ellipse cx="85.577" cy="97.8077" rx="0.963755" ry="0.955856" fill="#6C6CFF"/>
<ellipse cx="104.977" cy="97.8077" rx="0.963755" ry="0.955856" fill="#6C6CFF"/>
<ellipse cx="124.382" cy="97.8077" rx="0.963755" ry="0.955856" fill="#6C6CFF"/>
<ellipse cx="143.779" cy="97.8077" rx="0.963755" ry="0.955856" fill="#6C6CFF"/>
<ellipse cx="163.184" cy="97.8077" rx="0.963755" ry="0.955856" fill="#6C6CFF"/>
<ellipse cx="182.587" cy="97.8077" rx="0.963755" ry="0.955856" fill="#6C6CFF"/>
<ellipse cx="201.99" cy="97.8077" rx="0.963755" ry="0.955856" fill="#6C6CFF"/>
<ellipse cx="221.391" cy="97.8077" rx="0.963755" ry="0.955856" fill="#6C6CFF"/>
<ellipse cx="240.792" cy="97.8077" rx="0.963755" ry="0.955856" fill="#6C6CFF"/>
<ellipse cx="260.193" cy="97.8077" rx="0.963755" ry="0.955856" fill="#6C6CFF"/>
<ellipse cx="279.599" cy="97.8077" rx="0.963755" ry="0.955856" fill="#6C6CFF"/>
<ellipse cx="298.997" cy="97.8077" rx="0.963755" ry="0.955856" fill="#6C6CFF"/>
<ellipse cx="318.4" cy="97.8077" rx="0.963755" ry="0.955856" fill="#6C6CFF"/>
<ellipse cx="337.802" cy="97.8077" rx="0.963755" ry="0.955856" fill="#6C6CFF"/>
<ellipse cx="357.206" cy="97.8077" rx="0.963755" ry="0.955856" fill="#6C6CFF"/>
<ellipse cx="376.606" cy="97.8077" rx="0.963755" ry="0.955856" fill="#6C6CFF"/>
<ellipse cx="7.96571" cy="117.05" rx="0.963755" ry="0.955856" fill="#6C6CFF"/>
<ellipse cx="27.369" cy="117.05" rx="0.963755" ry="0.955856" fill="#6C6CFF"/>
<ellipse cx="46.7743" cy="117.05" rx="0.963755" ry="0.955856" fill="#6C6CFF"/>
<ellipse cx="66.1727" cy="117.05" rx="0.963755" ry="0.955856" fill="#6C6CFF"/>
<ellipse cx="85.577" cy="117.05" rx="0.963755" ry="0.955856" fill="#6C6CFF"/>
<ellipse cx="104.977" cy="117.05" rx="0.963755" ry="0.955856" fill="#6C6CFF"/>
<ellipse cx="124.382" cy="117.05" rx="0.963755" ry="0.955856" fill="#6C6CFF"/>
<ellipse cx="143.779" cy="117.05" rx="0.963755" ry="0.955856" fill="#6C6CFF"/>
<ellipse cx="163.184" cy="117.05" rx="0.963755" ry="0.955856" fill="#6C6CFF"/>
<ellipse cx="182.587" cy="117.05" rx="0.963755" ry="0.955856" fill="#6C6CFF"/>
<ellipse cx="201.99" cy="117.05" rx="0.963755" ry="0.955856" fill="#6C6CFF"/>
<ellipse cx="221.391" cy="117.05" rx="0.963755" ry="0.955856" fill="#6C6CFF"/>
<ellipse cx="240.792" cy="117.05" rx="0.963755" ry="0.955856" fill="#6C6CFF"/>
<ellipse cx="260.193" cy="117.05" rx="0.963755" ry="0.955856" fill="#6C6CFF"/>
<ellipse cx="279.599" cy="117.05" rx="0.963755" ry="0.955856" fill="#6C6CFF"/>
<ellipse cx="298.997" cy="117.05" rx="0.963755" ry="0.955856" fill="#6C6CFF"/>
<ellipse cx="318.4" cy="117.05" rx="0.963755" ry="0.955856" fill="#6C6CFF"/>
<ellipse cx="337.802" cy="117.05" rx="0.963755" ry="0.955856" fill="#6C6CFF"/>
<ellipse cx="357.206" cy="117.05" rx="0.963755" ry="0.955856" fill="#6C6CFF"/>
<ellipse cx="376.606" cy="117.05" rx="0.963755" ry="0.955856" fill="#6C6CFF"/>
<ellipse cx="7.96571" cy="136.294" rx="0.963755" ry="0.955856" fill="#6C6CFF"/>
<ellipse cx="27.369" cy="136.294" rx="0.963755" ry="0.955856" fill="#6C6CFF"/>
<ellipse cx="46.7743" cy="136.294" rx="0.963755" ry="0.955856" fill="#6C6CFF"/>
<ellipse cx="66.1727" cy="136.294" rx="0.963755" ry="0.955856" fill="#6C6CFF"/>
<ellipse cx="85.577" cy="136.294" rx="0.963755" ry="0.955856" fill="#6C6CFF"/>
<ellipse cx="104.977" cy="136.294" rx="0.963755" ry="0.955856" fill="#6C6CFF"/>
<ellipse cx="124.382" cy="136.294" rx="0.963755" ry="0.955856" fill="#6C6CFF"/>
<ellipse cx="143.779" cy="136.294" rx="0.963755" ry="0.955856" fill="#6C6CFF"/>
<ellipse cx="163.184" cy="136.294" rx="0.963755" ry="0.955856" fill="#6C6CFF"/>
<ellipse cx="182.587" cy="136.294" rx="0.963755" ry="0.955856" fill="#6C6CFF"/>
<ellipse cx="201.99" cy="136.294" rx="0.963755" ry="0.955856" fill="#6C6CFF"/>
<ellipse cx="221.391" cy="136.294" rx="0.963755" ry="0.955856" fill="#6C6CFF"/>
<ellipse cx="240.792" cy="136.294" rx="0.963755" ry="0.955856" fill="#6C6CFF"/>
<ellipse cx="260.193" cy="136.294" rx="0.963755" ry="0.955856" fill="#6C6CFF"/>
<ellipse cx="279.599" cy="136.294" rx="0.963755" ry="0.955856" fill="#6C6CFF"/>
<ellipse cx="298.997" cy="136.294" rx="0.963755" ry="0.955856" fill="#6C6CFF"/>
<ellipse cx="318.4" cy="136.294" rx="0.963755" ry="0.955856" fill="#6C6CFF"/>
<ellipse cx="337.802" cy="136.294" rx="0.963755" ry="0.955856" fill="#6C6CFF"/>
<ellipse cx="357.206" cy="136.294" rx="0.963755" ry="0.955856" fill="#6C6CFF"/>
<ellipse cx="376.606" cy="136.294" rx="0.963755" ry="0.955856" fill="#6C6CFF"/>
<ellipse cx="7.96571" cy="155.537" rx="0.963755" ry="0.955856" fill="#6C6CFF"/>
<ellipse cx="27.369" cy="155.537" rx="0.963755" ry="0.955856" fill="#6C6CFF"/>
<ellipse cx="46.7743" cy="155.537" rx="0.963755" ry="0.955856" fill="#6C6CFF"/>
<ellipse cx="66.1727" cy="155.537" rx="0.963755" ry="0.955856" fill="#6C6CFF"/>
<ellipse cx="85.577" cy="155.537" rx="0.963755" ry="0.955856" fill="#6C6CFF"/>
<ellipse cx="104.977" cy="155.537" rx="0.963755" ry="0.955856" fill="#6C6CFF"/>
<ellipse cx="124.382" cy="155.537" rx="0.963755" ry="0.955856" fill="#6C6CFF"/>
<ellipse cx="143.779" cy="155.537" rx="0.963755" ry="0.955856" fill="#6C6CFF"/>
<ellipse cx="163.183" cy="155.537" rx="0.963755" ry="0.955856" fill="#6C6CFF"/>
<ellipse cx="182.587" cy="155.537" rx="0.963755" ry="0.955856" fill="#6C6CFF"/>
<ellipse cx="201.99" cy="155.537" rx="0.963755" ry="0.955856" fill="#6C6CFF"/>
<ellipse cx="221.391" cy="155.537" rx="0.963755" ry="0.955856" fill="#6C6CFF"/>
<ellipse cx="240.792" cy="155.537" rx="0.963755" ry="0.955856" fill="#6C6CFF"/>
<ellipse cx="260.193" cy="155.537" rx="0.963755" ry="0.955856" fill="#6C6CFF"/>
<ellipse cx="279.599" cy="155.537" rx="0.963755" ry="0.955856" fill="#6C6CFF"/>
<ellipse cx="298.997" cy="155.537" rx="0.963755" ry="0.955856" fill="#6C6CFF"/>
<ellipse cx="318.4" cy="155.537" rx="0.963755" ry="0.955856" fill="#6C6CFF"/>
<ellipse cx="337.802" cy="155.537" rx="0.963755" ry="0.955856" fill="#6C6CFF"/>
<ellipse cx="357.206" cy="155.537" rx="0.963755" ry="0.955856" fill="#6C6CFF"/>
<ellipse cx="376.606" cy="155.537" rx="0.963755" ry="0.955856" fill="#6C6CFF"/>
<ellipse cx="7.96571" cy="174.78" rx="0.963755" ry="0.955856" fill="#6C6CFF"/>
<ellipse cx="27.369" cy="174.78" rx="0.963755" ry="0.955856" fill="#6C6CFF"/>
<ellipse cx="46.7743" cy="174.78" rx="0.963755" ry="0.955856" fill="#6C6CFF"/>
<ellipse cx="66.1727" cy="174.78" rx="0.963755" ry="0.955856" fill="#6C6CFF"/>
<ellipse cx="85.577" cy="174.78" rx="0.963755" ry="0.955856" fill="#6C6CFF"/>
<ellipse cx="104.977" cy="174.78" rx="0.963755" ry="0.955856" fill="#6C6CFF"/>
<ellipse cx="124.382" cy="174.78" rx="0.963755" ry="0.955856" fill="#6C6CFF"/>
<ellipse cx="143.779" cy="174.78" rx="0.963755" ry="0.955856" fill="#6C6CFF"/>
<ellipse cx="163.183" cy="174.78" rx="0.963755" ry="0.955856" fill="#6C6CFF"/>
<ellipse cx="182.587" cy="174.78" rx="0.963755" ry="0.955856" fill="#6C6CFF"/>
<ellipse cx="201.99" cy="174.78" rx="0.963755" ry="0.955856" fill="#6C6CFF"/>
<ellipse cx="221.391" cy="174.78" rx="0.963755" ry="0.955856" fill="#6C6CFF"/>
<ellipse cx="240.792" cy="174.78" rx="0.963755" ry="0.955856" fill="#6C6CFF"/>
<ellipse cx="260.193" cy="174.78" rx="0.963755" ry="0.955856" fill="#6C6CFF"/>
<ellipse cx="279.599" cy="174.78" rx="0.963755" ry="0.955856" fill="#6C6CFF"/>
<ellipse cx="298.997" cy="174.78" rx="0.963755" ry="0.955856" fill="#6C6CFF"/>
<ellipse cx="318.4" cy="174.78" rx="0.963755" ry="0.955856" fill="#6C6CFF"/>
<ellipse cx="337.802" cy="174.78" rx="0.963755" ry="0.955856" fill="#6C6CFF"/>
<ellipse cx="357.206" cy="174.78" rx="0.963755" ry="0.955856" fill="#6C6CFF"/>
<ellipse cx="376.606" cy="174.78" rx="0.963755" ry="0.955856" fill="#6C6CFF"/>
<ellipse cx="7.96571" cy="194.023" rx="0.963755" ry="0.955856" fill="#6C6CFF"/>
<ellipse cx="27.369" cy="194.023" rx="0.963755" ry="0.955856" fill="#6C6CFF"/>
<ellipse cx="46.7743" cy="194.023" rx="0.963755" ry="0.955856" fill="#6C6CFF"/>
<ellipse cx="66.1727" cy="194.023" rx="0.963755" ry="0.955856" fill="#6C6CFF"/>
<ellipse cx="85.577" cy="194.023" rx="0.963755" ry="0.955856" fill="#6C6CFF"/>
<ellipse cx="104.977" cy="194.023" rx="0.963755" ry="0.955856" fill="#6C6CFF"/>
<ellipse cx="124.382" cy="194.023" rx="0.963755" ry="0.955856" fill="#6C6CFF"/>
<ellipse cx="143.779" cy="194.023" rx="0.963755" ry="0.955856" fill="#6C6CFF"/>
<ellipse cx="163.183" cy="194.023" rx="0.963755" ry="0.955856" fill="#6C6CFF"/>
<ellipse cx="182.587" cy="194.023" rx="0.963755" ry="0.955856" fill="#6C6CFF"/>
<ellipse cx="201.99" cy="194.023" rx="0.963755" ry="0.955856" fill="#6C6CFF"/>
<ellipse cx="221.391" cy="194.023" rx="0.963755" ry="0.955856" fill="#6C6CFF"/>
<ellipse cx="240.792" cy="194.023" rx="0.963755" ry="0.955856" fill="#6C6CFF"/>
<ellipse cx="260.193" cy="194.023" rx="0.963755" ry="0.955856" fill="#6C6CFF"/>
<ellipse cx="279.599" cy="194.023" rx="0.963755" ry="0.955856" fill="#6C6CFF"/>
<ellipse cx="298.997" cy="194.023" rx="0.963755" ry="0.955856" fill="#6C6CFF"/>
<ellipse cx="318.4" cy="194.023" rx="0.963755" ry="0.955856" fill="#6C6CFF"/>
<ellipse cx="337.802" cy="194.023" rx="0.963755" ry="0.955856" fill="#6C6CFF"/>
<ellipse cx="357.206" cy="194.023" rx="0.963755" ry="0.955856" fill="#6C6CFF"/>
<ellipse cx="376.606" cy="194.023" rx="0.963755" ry="0.955856" fill="#6C6CFF"/>
<ellipse cx="7.96571" cy="213.267" rx="0.963755" ry="0.955856" fill="#6C6CFF"/>
<ellipse cx="27.369" cy="213.267" rx="0.963755" ry="0.955856" fill="#6C6CFF"/>
<ellipse cx="46.7743" cy="213.267" rx="0.963755" ry="0.955856" fill="#6C6CFF"/>
<ellipse cx="66.1727" cy="213.267" rx="0.963755" ry="0.955856" fill="#6C6CFF"/>
<ellipse cx="85.577" cy="213.267" rx="0.963755" ry="0.955856" fill="#6C6CFF"/>
<ellipse cx="104.977" cy="213.267" rx="0.963755" ry="0.955856" fill="#6C6CFF"/>
<ellipse cx="124.382" cy="213.267" rx="0.963755" ry="0.955856" fill="#6C6CFF"/>
<ellipse cx="143.779" cy="213.267" rx="0.963755" ry="0.955856" fill="#6C6CFF"/>
<ellipse cx="163.183" cy="213.267" rx="0.963755" ry="0.955856" fill="#6C6CFF"/>
<ellipse cx="182.587" cy="213.267" rx="0.963755" ry="0.955856" fill="#6C6CFF"/>
<ellipse cx="201.99" cy="213.267" rx="0.963755" ry="0.955856" fill="#6C6CFF"/>
<ellipse cx="221.391" cy="213.267" rx="0.963755" ry="0.955856" fill="#6C6CFF"/>
<ellipse cx="240.792" cy="213.267" rx="0.963755" ry="0.955856" fill="#6C6CFF"/>
<ellipse cx="260.193" cy="213.267" rx="0.963755" ry="0.955856" fill="#6C6CFF"/>
<ellipse cx="279.599" cy="213.267" rx="0.963755" ry="0.955856" fill="#6C6CFF"/>
<ellipse cx="298.997" cy="213.267" rx="0.963755" ry="0.955856" fill="#6C6CFF"/>
<ellipse cx="318.4" cy="213.267" rx="0.963755" ry="0.955856" fill="#6C6CFF"/>
<ellipse cx="337.802" cy="213.267" rx="0.963755" ry="0.955856" fill="#6C6CFF"/>
<ellipse cx="357.206" cy="213.267" rx="0.963755" ry="0.955856" fill="#6C6CFF"/>
<ellipse cx="376.606" cy="213.267" rx="0.963755" ry="0.955856" fill="#6C6CFF"/>
<ellipse cx="7.96571" cy="232.509" rx="0.963755" ry="0.955856" fill="#6C6CFF"/>
<ellipse cx="27.369" cy="232.509" rx="0.963755" ry="0.955856" fill="#6C6CFF"/>
<ellipse cx="46.7743" cy="232.509" rx="0.963755" ry="0.955856" fill="#6C6CFF"/>
<ellipse cx="66.1727" cy="232.509" rx="0.963755" ry="0.955856" fill="#6C6CFF"/>
<ellipse cx="85.577" cy="232.509" rx="0.963755" ry="0.955856" fill="#6C6CFF"/>
<ellipse cx="104.977" cy="232.509" rx="0.963755" ry="0.955856" fill="#6C6CFF"/>
<ellipse cx="124.382" cy="232.509" rx="0.963755" ry="0.955856" fill="#6C6CFF"/>
<ellipse cx="143.779" cy="232.509" rx="0.963755" ry="0.955856" fill="#6C6CFF"/>
<ellipse cx="163.183" cy="232.509" rx="0.963755" ry="0.955856" fill="#6C6CFF"/>
<ellipse cx="182.587" cy="232.509" rx="0.963755" ry="0.955856" fill="#6C6CFF"/>
<ellipse cx="201.99" cy="232.509" rx="0.963755" ry="0.955856" fill="#6C6CFF"/>
<ellipse cx="221.391" cy="232.509" rx="0.963755" ry="0.955856" fill="#6C6CFF"/>
<ellipse cx="240.792" cy="232.509" rx="0.963755" ry="0.955856" fill="#6C6CFF"/>
<ellipse cx="260.193" cy="232.509" rx="0.963755" ry="0.955856" fill="#6C6CFF"/>
<ellipse cx="279.599" cy="232.509" rx="0.963755" ry="0.955856" fill="#6C6CFF"/>
<ellipse cx="298.997" cy="232.509" rx="0.963755" ry="0.955856" fill="#6C6CFF"/>
<ellipse cx="318.4" cy="232.509" rx="0.963755" ry="0.955856" fill="#6C6CFF"/>
<ellipse cx="337.802" cy="232.509" rx="0.963755" ry="0.955856" fill="#6C6CFF"/>
<ellipse cx="357.206" cy="232.509" rx="0.963755" ry="0.955856" fill="#6C6CFF"/>
<ellipse cx="376.606" cy="232.509" rx="0.963755" ry="0.955856" fill="#6C6CFF"/>
<ellipse cx="7.96571" cy="251.751" rx="0.963755" ry="0.955856" fill="#6C6CFF"/>
<ellipse cx="27.369" cy="251.751" rx="0.963755" ry="0.955856" fill="#6C6CFF"/>
<ellipse cx="46.7743" cy="251.751" rx="0.963755" ry="0.955856" fill="#6C6CFF"/>
<ellipse cx="66.1727" cy="251.751" rx="0.963755" ry="0.955856" fill="#6C6CFF"/>
<ellipse cx="85.577" cy="251.751" rx="0.963755" ry="0.955856" fill="#6C6CFF"/>
<ellipse cx="104.977" cy="251.751" rx="0.963755" ry="0.955856" fill="#6C6CFF"/>
<ellipse cx="124.382" cy="251.751" rx="0.963755" ry="0.955856" fill="#6C6CFF"/>
<ellipse cx="143.779" cy="251.751" rx="0.963755" ry="0.955856" fill="#6C6CFF"/>
<ellipse cx="163.183" cy="251.751" rx="0.963755" ry="0.955856" fill="#6C6CFF"/>
<ellipse cx="182.587" cy="251.751" rx="0.963755" ry="0.955856" fill="#6C6CFF"/>
<ellipse cx="201.99" cy="251.751" rx="0.963755" ry="0.955856" fill="#6C6CFF"/>
<ellipse cx="221.391" cy="251.751" rx="0.963755" ry="0.955856" fill="#6C6CFF"/>
<ellipse cx="240.792" cy="251.751" rx="0.963755" ry="0.955856" fill="#6C6CFF"/>
<ellipse cx="260.193" cy="251.751" rx="0.963755" ry="0.955856" fill="#6C6CFF"/>
<ellipse cx="279.599" cy="251.751" rx="0.963755" ry="0.955856" fill="#6C6CFF"/>
<ellipse cx="298.997" cy="251.751" rx="0.963755" ry="0.955856" fill="#6C6CFF"/>
<ellipse cx="318.4" cy="251.751" rx="0.963755" ry="0.955856" fill="#6C6CFF"/>
<ellipse cx="337.802" cy="251.751" rx="0.963755" ry="0.955856" fill="#6C6CFF"/>
<ellipse cx="357.206" cy="251.751" rx="0.963755" ry="0.955856" fill="#6C6CFF"/>
<ellipse cx="376.606" cy="251.751" rx="0.963755" ry="0.955856" fill="#6C6CFF"/>
</g>
<g opacity="0.24">
<ellipse cx="395.893" cy="1.5919" rx="0.963755" ry="0.955856" fill="#6C6CFF"/>
<ellipse cx="395.893" cy="20.8352" rx="0.963755" ry="0.955856" fill="#6C6CFF"/>
<ellipse cx="395.893" cy="40.0782" rx="0.963755" ry="0.955856" fill="#6C6CFF"/>
<ellipse cx="395.893" cy="59.3218" rx="0.963755" ry="0.955856" fill="#6C6CFF"/>
<ellipse cx="395.893" cy="78.5651" rx="0.963755" ry="0.955856" fill="#6C6CFF"/>
<ellipse cx="395.893" cy="97.8074" rx="0.963755" ry="0.955856" fill="#6C6CFF"/>
<ellipse cx="395.893" cy="117.05" rx="0.963755" ry="0.955856" fill="#6C6CFF"/>
<ellipse cx="395.893" cy="136.294" rx="0.963755" ry="0.955856" fill="#6C6CFF"/>
<ellipse cx="395.893" cy="155.537" rx="0.963755" ry="0.955856" fill="#6C6CFF"/>
<ellipse cx="395.893" cy="174.78" rx="0.963755" ry="0.955856" fill="#6C6CFF"/>
<ellipse cx="395.893" cy="194.023" rx="0.963755" ry="0.955856" fill="#6C6CFF"/>
<ellipse cx="395.893" cy="213.267" rx="0.963755" ry="0.955856" fill="#6C6CFF"/>
<ellipse cx="395.893" cy="232.509" rx="0.963755" ry="0.955856" fill="#6C6CFF"/>
<ellipse cx="395.893" cy="251.751" rx="0.963755" ry="0.955856" fill="#6C6CFF"/>
</g>
<path d="M355.137 123.161L377.061 123.16L377.06 81.2858L365.938 86.1459L364.837 86.146L355.137 81.5423L355.137 123.161Z" fill="url(#paint0_linear_2960_83929)"/>
<circle cx="366.196" cy="81.6024" r="11.0601" fill="#B4B4FF"/>
</g>
<defs>
<linearGradient id="paint0_linear_2960_83929" x1="366.213" y1="73.0909" x2="367.053" y2="108.899" gradientUnits="userSpaceOnUse">
<stop stop-color="#B4B4FF"/>
<stop offset="1" stop-color="#B4B4FF" stop-opacity="0.08"/>
</linearGradient>
<clipPath id="clip0_2960_83929">
<rect width="395" height="264" fill="white"/>
</clipPath>
</defs>
</svg>
