<svg width="14" height="12" viewBox="0 0 14 12" fill="none" xmlns="http://www.w3.org/2000/svg">
<path d="M1 5.18309C0.585786 5.18309 0.25 5.51888 0.25 5.93309C0.25 6.3473 0.585786 6.68309 1 6.68309L1 5.18309ZM13.5303 6.46342C13.8232 6.17053 13.8232 5.69565 13.5303 5.40276L8.75736 0.629789C8.46447 0.336895 7.98959 0.336895 7.6967 0.629789C7.40381 0.922682 7.40381 1.39756 7.6967 1.69045L11.9393 5.93309L7.6967 10.1757C7.40381 10.4686 7.40381 10.9435 7.6967 11.2364C7.98959 11.5293 8.46447 11.5293 8.75736 11.2364L13.5303 6.46342ZM1 6.68309L13 6.68309L13 5.18309L1 5.18309L1 6.68309Z" fill="white"/>
</svg>
