<svg width="14" height="13" viewBox="0 0 14 13" fill="none" xmlns="http://www.w3.org/2000/svg">
<path d="M1 5.73242C0.585786 5.73242 0.25 6.06821 0.25 6.48242C0.25 6.89664 0.585786 7.23242 1 7.23242L1 5.73242ZM13.5303 7.01275C13.8232 6.71986 13.8232 6.24498 13.5303 5.95209L8.75736 1.17912C8.46447 0.886227 7.98959 0.886227 7.6967 1.17912C7.40381 1.47201 7.40381 1.94689 7.6967 2.23978L11.9393 6.48242L7.6967 10.7251C7.40381 11.018 7.40381 11.4928 7.6967 11.7857C7.98959 12.0786 8.46447 12.0786 8.75736 11.7857L13.5303 7.01275ZM1 7.23242L13 7.23242L13 5.73242L1 5.73242L1 7.23242Z" fill="#6C6CFF"/>
</svg>
