<svg width="396" height="264" viewBox="0 0 396 264" fill="none" xmlns="http://www.w3.org/2000/svg">
<g clip-path="url(#clip0_2960_86345)">
<rect width="395" height="264" transform="translate(0.554688)" fill="#F0F3FF"/>
<g opacity="0.24">
<ellipse cx="8.90321" cy="1.59193" rx="0.963755" ry="0.955856" fill="#6C6CFF"/>
<ellipse cx="28.3065" cy="1.59193" rx="0.963755" ry="0.955856" fill="#6C6CFF"/>
<ellipse cx="47.7118" cy="1.59193" rx="0.963755" ry="0.955856" fill="#6C6CFF"/>
<ellipse cx="67.1102" cy="1.59193" rx="0.963755" ry="0.955856" fill="#6C6CFF"/>
<ellipse cx="86.5145" cy="1.59193" rx="0.963755" ry="0.955856" fill="#6C6CFF"/>
<ellipse cx="105.915" cy="1.59193" rx="0.963755" ry="0.955856" fill="#6C6CFF"/>
<ellipse cx="125.319" cy="1.59193" rx="0.963755" ry="0.955856" fill="#6C6CFF"/>
<ellipse cx="144.717" cy="1.59193" rx="0.963755" ry="0.955856" fill="#6C6CFF"/>
<ellipse cx="164.122" cy="1.59193" rx="0.963755" ry="0.955856" fill="#6C6CFF"/>
<ellipse cx="183.524" cy="1.59193" rx="0.963755" ry="0.955856" fill="#6C6CFF"/>
<ellipse cx="202.928" cy="1.59193" rx="0.963755" ry="0.955856" fill="#6C6CFF"/>
<ellipse cx="222.328" cy="1.59193" rx="0.963755" ry="0.955856" fill="#6C6CFF"/>
<ellipse cx="241.729" cy="1.59193" rx="0.963755" ry="0.955856" fill="#6C6CFF"/>
<ellipse cx="261.131" cy="1.59193" rx="0.963755" ry="0.955856" fill="#6C6CFF"/>
<ellipse cx="280.537" cy="1.59193" rx="0.963755" ry="0.955856" fill="#6C6CFF"/>
<ellipse cx="299.934" cy="1.59193" rx="0.963755" ry="0.955856" fill="#6C6CFF"/>
<ellipse cx="319.338" cy="1.59193" rx="0.963755" ry="0.955856" fill="#6C6CFF"/>
<ellipse cx="338.739" cy="1.59193" rx="0.963755" ry="0.955856" fill="#6C6CFF"/>
<ellipse cx="358.143" cy="1.59193" rx="0.963755" ry="0.955856" fill="#6C6CFF"/>
<ellipse cx="377.544" cy="1.59193" rx="0.963755" ry="0.955856" fill="#6C6CFF"/>
<ellipse cx="8.90321" cy="20.8352" rx="0.963755" ry="0.955856" fill="#6C6CFF"/>
<ellipse cx="28.3065" cy="20.8352" rx="0.963755" ry="0.955856" fill="#6C6CFF"/>
<ellipse cx="47.7118" cy="20.8352" rx="0.963755" ry="0.955856" fill="#6C6CFF"/>
<ellipse cx="67.1102" cy="20.8352" rx="0.963755" ry="0.955856" fill="#6C6CFF"/>
<ellipse cx="86.5145" cy="20.8352" rx="0.963755" ry="0.955856" fill="#6C6CFF"/>
<ellipse cx="105.915" cy="20.8352" rx="0.963755" ry="0.955856" fill="#6C6CFF"/>
<ellipse cx="125.319" cy="20.8352" rx="0.963755" ry="0.955856" fill="#6C6CFF"/>
<ellipse cx="144.717" cy="20.8352" rx="0.963755" ry="0.955856" fill="#6C6CFF"/>
<ellipse cx="164.122" cy="20.8352" rx="0.963755" ry="0.955856" fill="#6C6CFF"/>
<ellipse cx="183.524" cy="20.8352" rx="0.963755" ry="0.955856" fill="#6C6CFF"/>
<ellipse cx="202.928" cy="20.8352" rx="0.963755" ry="0.955856" fill="#6C6CFF"/>
<ellipse cx="222.328" cy="20.8352" rx="0.963755" ry="0.955856" fill="#6C6CFF"/>
<ellipse cx="241.729" cy="20.8352" rx="0.963755" ry="0.955856" fill="#6C6CFF"/>
<ellipse cx="261.131" cy="20.8352" rx="0.963755" ry="0.955856" fill="#6C6CFF"/>
<ellipse cx="280.537" cy="20.8352" rx="0.963755" ry="0.955856" fill="#6C6CFF"/>
<ellipse cx="299.934" cy="20.8352" rx="0.963755" ry="0.955856" fill="#6C6CFF"/>
<ellipse cx="319.338" cy="20.8352" rx="0.963755" ry="0.955856" fill="#6C6CFF"/>
<ellipse cx="338.739" cy="20.8352" rx="0.963755" ry="0.955856" fill="#6C6CFF"/>
<ellipse cx="358.143" cy="20.8352" rx="0.963755" ry="0.955856" fill="#6C6CFF"/>
<ellipse cx="377.544" cy="20.8352" rx="0.963755" ry="0.955856" fill="#6C6CFF"/>
<ellipse cx="8.90321" cy="40.0782" rx="0.963755" ry="0.955856" fill="#6C6CFF"/>
<ellipse cx="28.3065" cy="40.0782" rx="0.963755" ry="0.955856" fill="#6C6CFF"/>
<ellipse cx="47.7118" cy="40.0782" rx="0.963755" ry="0.955856" fill="#6C6CFF"/>
<ellipse cx="67.1102" cy="40.0782" rx="0.963755" ry="0.955856" fill="#6C6CFF"/>
<ellipse cx="86.5145" cy="40.0782" rx="0.963755" ry="0.955856" fill="#6C6CFF"/>
<ellipse cx="105.915" cy="40.0782" rx="0.963755" ry="0.955856" fill="#6C6CFF"/>
<ellipse cx="125.319" cy="40.0782" rx="0.963755" ry="0.955856" fill="#6C6CFF"/>
<ellipse cx="144.717" cy="40.0782" rx="0.963755" ry="0.955856" fill="#6C6CFF"/>
<ellipse cx="164.122" cy="40.0782" rx="0.963755" ry="0.955856" fill="#6C6CFF"/>
<ellipse cx="183.524" cy="40.0782" rx="0.963755" ry="0.955856" fill="#6C6CFF"/>
<ellipse cx="202.928" cy="40.0782" rx="0.963755" ry="0.955856" fill="#6C6CFF"/>
<ellipse cx="222.328" cy="40.0782" rx="0.963755" ry="0.955856" fill="#6C6CFF"/>
<ellipse cx="241.729" cy="40.0782" rx="0.963755" ry="0.955856" fill="#6C6CFF"/>
<ellipse cx="261.131" cy="40.0782" rx="0.963755" ry="0.955856" fill="#6C6CFF"/>
<ellipse cx="280.537" cy="40.0782" rx="0.963755" ry="0.955856" fill="#6C6CFF"/>
<ellipse cx="299.934" cy="40.0782" rx="0.963755" ry="0.955856" fill="#6C6CFF"/>
<ellipse cx="319.338" cy="40.0782" rx="0.963755" ry="0.955856" fill="#6C6CFF"/>
<ellipse cx="338.739" cy="40.0782" rx="0.963755" ry="0.955856" fill="#6C6CFF"/>
<ellipse cx="358.143" cy="40.0782" rx="0.963755" ry="0.955856" fill="#6C6CFF"/>
<ellipse cx="377.544" cy="40.0782" rx="0.963755" ry="0.955856" fill="#6C6CFF"/>
<ellipse cx="8.90321" cy="59.3218" rx="0.963755" ry="0.955856" fill="#6C6CFF"/>
<ellipse cx="28.3065" cy="59.3218" rx="0.963755" ry="0.955856" fill="#6C6CFF"/>
<ellipse cx="47.7118" cy="59.3218" rx="0.963755" ry="0.955856" fill="#6C6CFF"/>
<ellipse cx="67.1102" cy="59.3218" rx="0.963755" ry="0.955856" fill="#6C6CFF"/>
<ellipse cx="86.5145" cy="59.3218" rx="0.963755" ry="0.955856" fill="#6C6CFF"/>
<ellipse cx="105.915" cy="59.3218" rx="0.963755" ry="0.955856" fill="#6C6CFF"/>
<ellipse cx="125.319" cy="59.3218" rx="0.963755" ry="0.955856" fill="#6C6CFF"/>
<ellipse cx="144.717" cy="59.3218" rx="0.963755" ry="0.955856" fill="#6C6CFF"/>
<ellipse cx="164.122" cy="59.3218" rx="0.963755" ry="0.955856" fill="#6C6CFF"/>
<ellipse cx="183.524" cy="59.3218" rx="0.963755" ry="0.955856" fill="#6C6CFF"/>
<ellipse cx="202.928" cy="59.3218" rx="0.963755" ry="0.955856" fill="#6C6CFF"/>
<ellipse cx="222.328" cy="59.3218" rx="0.963755" ry="0.955856" fill="#6C6CFF"/>
<ellipse cx="241.729" cy="59.3218" rx="0.963755" ry="0.955856" fill="#6C6CFF"/>
<ellipse cx="261.131" cy="59.3218" rx="0.963755" ry="0.955856" fill="#6C6CFF"/>
<ellipse cx="280.537" cy="59.3218" rx="0.963755" ry="0.955856" fill="#6C6CFF"/>
<ellipse cx="299.934" cy="59.3218" rx="0.963755" ry="0.955856" fill="#6C6CFF"/>
<ellipse cx="319.338" cy="59.3218" rx="0.963755" ry="0.955856" fill="#6C6CFF"/>
<ellipse cx="338.739" cy="59.3218" rx="0.963755" ry="0.955856" fill="#6C6CFF"/>
<ellipse cx="358.143" cy="59.3218" rx="0.963755" ry="0.955856" fill="#6C6CFF"/>
<ellipse cx="377.544" cy="59.3218" rx="0.963755" ry="0.955856" fill="#6C6CFF"/>
<ellipse cx="8.90321" cy="78.5652" rx="0.963755" ry="0.955856" fill="#6C6CFF"/>
<ellipse cx="28.3065" cy="78.5652" rx="0.963755" ry="0.955856" fill="#6C6CFF"/>
<ellipse cx="47.7118" cy="78.5652" rx="0.963755" ry="0.955856" fill="#6C6CFF"/>
<ellipse cx="67.1102" cy="78.5652" rx="0.963755" ry="0.955856" fill="#6C6CFF"/>
<ellipse cx="86.5145" cy="78.5652" rx="0.963755" ry="0.955856" fill="#6C6CFF"/>
<ellipse cx="105.915" cy="78.5652" rx="0.963755" ry="0.955856" fill="#6C6CFF"/>
<ellipse cx="125.319" cy="78.5652" rx="0.963755" ry="0.955856" fill="#6C6CFF"/>
<ellipse cx="144.717" cy="78.5652" rx="0.963755" ry="0.955856" fill="#6C6CFF"/>
<ellipse cx="164.122" cy="78.5652" rx="0.963755" ry="0.955856" fill="#6C6CFF"/>
<ellipse cx="183.524" cy="78.5652" rx="0.963755" ry="0.955856" fill="#6C6CFF"/>
<ellipse cx="202.928" cy="78.5652" rx="0.963755" ry="0.955856" fill="#6C6CFF"/>
<ellipse cx="222.328" cy="78.5652" rx="0.963755" ry="0.955856" fill="#6C6CFF"/>
<ellipse cx="241.729" cy="78.5652" rx="0.963755" ry="0.955856" fill="#6C6CFF"/>
<ellipse cx="261.131" cy="78.5652" rx="0.963755" ry="0.955856" fill="#6C6CFF"/>
<ellipse cx="280.537" cy="78.5652" rx="0.963755" ry="0.955856" fill="#6C6CFF"/>
<ellipse cx="299.934" cy="78.5652" rx="0.963755" ry="0.955856" fill="#6C6CFF"/>
<ellipse cx="319.338" cy="78.5652" rx="0.963755" ry="0.955856" fill="#6C6CFF"/>
<ellipse cx="338.739" cy="78.5652" rx="0.963755" ry="0.955856" fill="#6C6CFF"/>
<ellipse cx="358.143" cy="78.5652" rx="0.963755" ry="0.955856" fill="#6C6CFF"/>
<ellipse cx="377.544" cy="78.5652" rx="0.963755" ry="0.955856" fill="#6C6CFF"/>
<ellipse cx="8.90321" cy="97.8077" rx="0.963755" ry="0.955856" fill="#6C6CFF"/>
<ellipse cx="28.3065" cy="97.8077" rx="0.963755" ry="0.955856" fill="#6C6CFF"/>
<ellipse cx="47.7118" cy="97.8077" rx="0.963755" ry="0.955856" fill="#6C6CFF"/>
<ellipse cx="67.1102" cy="97.8077" rx="0.963755" ry="0.955856" fill="#6C6CFF"/>
<ellipse cx="86.5145" cy="97.8077" rx="0.963755" ry="0.955856" fill="#6C6CFF"/>
<ellipse cx="105.915" cy="97.8077" rx="0.963755" ry="0.955856" fill="#6C6CFF"/>
<ellipse cx="125.319" cy="97.8077" rx="0.963755" ry="0.955856" fill="#6C6CFF"/>
<ellipse cx="144.717" cy="97.8077" rx="0.963755" ry="0.955856" fill="#6C6CFF"/>
<ellipse cx="164.122" cy="97.8077" rx="0.963755" ry="0.955856" fill="#6C6CFF"/>
<ellipse cx="183.524" cy="97.8077" rx="0.963755" ry="0.955856" fill="#6C6CFF"/>
<ellipse cx="202.928" cy="97.8077" rx="0.963755" ry="0.955856" fill="#6C6CFF"/>
<ellipse cx="222.328" cy="97.8077" rx="0.963755" ry="0.955856" fill="#6C6CFF"/>
<ellipse cx="241.729" cy="97.8077" rx="0.963755" ry="0.955856" fill="#6C6CFF"/>
<ellipse cx="261.131" cy="97.8077" rx="0.963755" ry="0.955856" fill="#6C6CFF"/>
<ellipse cx="280.537" cy="97.8077" rx="0.963755" ry="0.955856" fill="#6C6CFF"/>
<ellipse cx="299.934" cy="97.8077" rx="0.963755" ry="0.955856" fill="#6C6CFF"/>
<ellipse cx="319.338" cy="97.8077" rx="0.963755" ry="0.955856" fill="#6C6CFF"/>
<ellipse cx="338.739" cy="97.8077" rx="0.963755" ry="0.955856" fill="#6C6CFF"/>
<ellipse cx="358.143" cy="97.8077" rx="0.963755" ry="0.955856" fill="#6C6CFF"/>
<ellipse cx="377.544" cy="97.8077" rx="0.963755" ry="0.955856" fill="#6C6CFF"/>
<ellipse cx="8.90321" cy="117.05" rx="0.963755" ry="0.955856" fill="#6C6CFF"/>
<ellipse cx="28.3065" cy="117.05" rx="0.963755" ry="0.955856" fill="#6C6CFF"/>
<ellipse cx="47.7118" cy="117.05" rx="0.963755" ry="0.955856" fill="#6C6CFF"/>
<ellipse cx="67.1102" cy="117.05" rx="0.963755" ry="0.955856" fill="#6C6CFF"/>
<ellipse cx="86.5145" cy="117.05" rx="0.963755" ry="0.955856" fill="#6C6CFF"/>
<ellipse cx="105.915" cy="117.05" rx="0.963755" ry="0.955856" fill="#6C6CFF"/>
<ellipse cx="125.319" cy="117.05" rx="0.963755" ry="0.955856" fill="#6C6CFF"/>
<ellipse cx="144.717" cy="117.05" rx="0.963755" ry="0.955856" fill="#6C6CFF"/>
<ellipse cx="164.122" cy="117.05" rx="0.963755" ry="0.955856" fill="#6C6CFF"/>
<ellipse cx="183.524" cy="117.05" rx="0.963755" ry="0.955856" fill="#6C6CFF"/>
<ellipse cx="202.928" cy="117.05" rx="0.963755" ry="0.955856" fill="#6C6CFF"/>
<ellipse cx="222.328" cy="117.05" rx="0.963755" ry="0.955856" fill="#6C6CFF"/>
<ellipse cx="241.729" cy="117.05" rx="0.963755" ry="0.955856" fill="#6C6CFF"/>
<ellipse cx="261.131" cy="117.05" rx="0.963755" ry="0.955856" fill="#6C6CFF"/>
<ellipse cx="280.537" cy="117.05" rx="0.963755" ry="0.955856" fill="#6C6CFF"/>
<ellipse cx="299.934" cy="117.05" rx="0.963755" ry="0.955856" fill="#6C6CFF"/>
<ellipse cx="319.338" cy="117.05" rx="0.963755" ry="0.955856" fill="#6C6CFF"/>
<ellipse cx="338.739" cy="117.05" rx="0.963755" ry="0.955856" fill="#6C6CFF"/>
<ellipse cx="358.143" cy="117.05" rx="0.963755" ry="0.955856" fill="#6C6CFF"/>
<ellipse cx="377.544" cy="117.05" rx="0.963755" ry="0.955856" fill="#6C6CFF"/>
<ellipse cx="8.90321" cy="136.294" rx="0.963755" ry="0.955856" fill="#6C6CFF"/>
<ellipse cx="28.3065" cy="136.294" rx="0.963755" ry="0.955856" fill="#6C6CFF"/>
<ellipse cx="47.7118" cy="136.294" rx="0.963755" ry="0.955856" fill="#6C6CFF"/>
<ellipse cx="67.1102" cy="136.294" rx="0.963755" ry="0.955856" fill="#6C6CFF"/>
<ellipse cx="86.5145" cy="136.294" rx="0.963755" ry="0.955856" fill="#6C6CFF"/>
<ellipse cx="105.915" cy="136.294" rx="0.963755" ry="0.955856" fill="#6C6CFF"/>
<ellipse cx="125.319" cy="136.294" rx="0.963755" ry="0.955856" fill="#6C6CFF"/>
<ellipse cx="144.717" cy="136.294" rx="0.963755" ry="0.955856" fill="#6C6CFF"/>
<ellipse cx="164.122" cy="136.294" rx="0.963755" ry="0.955856" fill="#6C6CFF"/>
<ellipse cx="183.524" cy="136.294" rx="0.963755" ry="0.955856" fill="#6C6CFF"/>
<ellipse cx="202.928" cy="136.294" rx="0.963755" ry="0.955856" fill="#6C6CFF"/>
<ellipse cx="222.328" cy="136.294" rx="0.963755" ry="0.955856" fill="#6C6CFF"/>
<ellipse cx="241.729" cy="136.294" rx="0.963755" ry="0.955856" fill="#6C6CFF"/>
<ellipse cx="261.131" cy="136.294" rx="0.963755" ry="0.955856" fill="#6C6CFF"/>
<ellipse cx="280.537" cy="136.294" rx="0.963755" ry="0.955856" fill="#6C6CFF"/>
<ellipse cx="299.934" cy="136.294" rx="0.963755" ry="0.955856" fill="#6C6CFF"/>
<ellipse cx="319.338" cy="136.294" rx="0.963755" ry="0.955856" fill="#6C6CFF"/>
<ellipse cx="338.739" cy="136.294" rx="0.963755" ry="0.955856" fill="#6C6CFF"/>
<ellipse cx="358.143" cy="136.294" rx="0.963755" ry="0.955856" fill="#6C6CFF"/>
<ellipse cx="377.544" cy="136.294" rx="0.963755" ry="0.955856" fill="#6C6CFF"/>
<ellipse cx="8.90321" cy="155.537" rx="0.963755" ry="0.955856" fill="#6C6CFF"/>
<ellipse cx="28.3065" cy="155.537" rx="0.963755" ry="0.955856" fill="#6C6CFF"/>
<ellipse cx="47.7118" cy="155.537" rx="0.963755" ry="0.955856" fill="#6C6CFF"/>
<ellipse cx="67.1102" cy="155.537" rx="0.963755" ry="0.955856" fill="#6C6CFF"/>
<ellipse cx="86.5145" cy="155.537" rx="0.963755" ry="0.955856" fill="#6C6CFF"/>
<ellipse cx="105.915" cy="155.537" rx="0.963755" ry="0.955856" fill="#6C6CFF"/>
<ellipse cx="125.319" cy="155.537" rx="0.963755" ry="0.955856" fill="#6C6CFF"/>
<ellipse cx="144.717" cy="155.537" rx="0.963755" ry="0.955856" fill="#6C6CFF"/>
<ellipse cx="164.121" cy="155.537" rx="0.963755" ry="0.955856" fill="#6C6CFF"/>
<ellipse cx="183.524" cy="155.537" rx="0.963755" ry="0.955856" fill="#6C6CFF"/>
<ellipse cx="202.928" cy="155.537" rx="0.963755" ry="0.955856" fill="#6C6CFF"/>
<ellipse cx="222.328" cy="155.537" rx="0.963755" ry="0.955856" fill="#6C6CFF"/>
<ellipse cx="241.729" cy="155.537" rx="0.963755" ry="0.955856" fill="#6C6CFF"/>
<ellipse cx="261.131" cy="155.537" rx="0.963755" ry="0.955856" fill="#6C6CFF"/>
<ellipse cx="280.537" cy="155.537" rx="0.963755" ry="0.955856" fill="#6C6CFF"/>
<ellipse cx="299.934" cy="155.537" rx="0.963755" ry="0.955856" fill="#6C6CFF"/>
<ellipse cx="319.338" cy="155.537" rx="0.963755" ry="0.955856" fill="#6C6CFF"/>
<ellipse cx="338.739" cy="155.537" rx="0.963755" ry="0.955856" fill="#6C6CFF"/>
<ellipse cx="358.143" cy="155.537" rx="0.963755" ry="0.955856" fill="#6C6CFF"/>
<ellipse cx="377.544" cy="155.537" rx="0.963755" ry="0.955856" fill="#6C6CFF"/>
<ellipse cx="8.90321" cy="174.78" rx="0.963755" ry="0.955856" fill="#6C6CFF"/>
<ellipse cx="28.3065" cy="174.78" rx="0.963755" ry="0.955856" fill="#6C6CFF"/>
<ellipse cx="47.7118" cy="174.78" rx="0.963755" ry="0.955856" fill="#6C6CFF"/>
<ellipse cx="67.1102" cy="174.78" rx="0.963755" ry="0.955856" fill="#6C6CFF"/>
<ellipse cx="86.5145" cy="174.78" rx="0.963755" ry="0.955856" fill="#6C6CFF"/>
<ellipse cx="105.915" cy="174.78" rx="0.963755" ry="0.955856" fill="#6C6CFF"/>
<ellipse cx="125.319" cy="174.78" rx="0.963755" ry="0.955856" fill="#6C6CFF"/>
<ellipse cx="144.717" cy="174.78" rx="0.963755" ry="0.955856" fill="#6C6CFF"/>
<ellipse cx="164.121" cy="174.78" rx="0.963755" ry="0.955856" fill="#6C6CFF"/>
<ellipse cx="183.524" cy="174.78" rx="0.963755" ry="0.955856" fill="#6C6CFF"/>
<ellipse cx="202.928" cy="174.78" rx="0.963755" ry="0.955856" fill="#6C6CFF"/>
<ellipse cx="222.328" cy="174.78" rx="0.963755" ry="0.955856" fill="#6C6CFF"/>
<ellipse cx="241.729" cy="174.78" rx="0.963755" ry="0.955856" fill="#6C6CFF"/>
<ellipse cx="261.131" cy="174.78" rx="0.963755" ry="0.955856" fill="#6C6CFF"/>
<ellipse cx="280.537" cy="174.78" rx="0.963755" ry="0.955856" fill="#6C6CFF"/>
<ellipse cx="299.934" cy="174.78" rx="0.963755" ry="0.955856" fill="#6C6CFF"/>
<ellipse cx="319.338" cy="174.78" rx="0.963755" ry="0.955856" fill="#6C6CFF"/>
<ellipse cx="338.739" cy="174.78" rx="0.963755" ry="0.955856" fill="#6C6CFF"/>
<ellipse cx="358.143" cy="174.78" rx="0.963755" ry="0.955856" fill="#6C6CFF"/>
<ellipse cx="377.544" cy="174.78" rx="0.963755" ry="0.955856" fill="#6C6CFF"/>
<ellipse cx="8.90321" cy="194.023" rx="0.963755" ry="0.955856" fill="#6C6CFF"/>
<ellipse cx="28.3065" cy="194.023" rx="0.963755" ry="0.955856" fill="#6C6CFF"/>
<ellipse cx="47.7118" cy="194.023" rx="0.963755" ry="0.955856" fill="#6C6CFF"/>
<ellipse cx="67.1102" cy="194.023" rx="0.963755" ry="0.955856" fill="#6C6CFF"/>
<ellipse cx="86.5145" cy="194.023" rx="0.963755" ry="0.955856" fill="#6C6CFF"/>
<ellipse cx="105.915" cy="194.023" rx="0.963755" ry="0.955856" fill="#6C6CFF"/>
<ellipse cx="125.319" cy="194.023" rx="0.963755" ry="0.955856" fill="#6C6CFF"/>
<ellipse cx="144.717" cy="194.023" rx="0.963755" ry="0.955856" fill="#6C6CFF"/>
<ellipse cx="164.121" cy="194.023" rx="0.963755" ry="0.955856" fill="#6C6CFF"/>
<ellipse cx="183.524" cy="194.023" rx="0.963755" ry="0.955856" fill="#6C6CFF"/>
<ellipse cx="202.928" cy="194.023" rx="0.963755" ry="0.955856" fill="#6C6CFF"/>
<ellipse cx="222.328" cy="194.023" rx="0.963755" ry="0.955856" fill="#6C6CFF"/>
<ellipse cx="241.729" cy="194.023" rx="0.963755" ry="0.955856" fill="#6C6CFF"/>
<ellipse cx="261.131" cy="194.023" rx="0.963755" ry="0.955856" fill="#6C6CFF"/>
<ellipse cx="280.537" cy="194.023" rx="0.963755" ry="0.955856" fill="#6C6CFF"/>
<ellipse cx="299.934" cy="194.023" rx="0.963755" ry="0.955856" fill="#6C6CFF"/>
<ellipse cx="319.338" cy="194.023" rx="0.963755" ry="0.955856" fill="#6C6CFF"/>
<ellipse cx="338.739" cy="194.023" rx="0.963755" ry="0.955856" fill="#6C6CFF"/>
<ellipse cx="358.143" cy="194.023" rx="0.963755" ry="0.955856" fill="#6C6CFF"/>
<ellipse cx="377.544" cy="194.023" rx="0.963755" ry="0.955856" fill="#6C6CFF"/>
<ellipse cx="8.90321" cy="213.267" rx="0.963755" ry="0.955856" fill="#6C6CFF"/>
<ellipse cx="28.3065" cy="213.267" rx="0.963755" ry="0.955856" fill="#6C6CFF"/>
<ellipse cx="47.7118" cy="213.267" rx="0.963755" ry="0.955856" fill="#6C6CFF"/>
<ellipse cx="67.1102" cy="213.267" rx="0.963755" ry="0.955856" fill="#6C6CFF"/>
<ellipse cx="86.5145" cy="213.267" rx="0.963755" ry="0.955856" fill="#6C6CFF"/>
<ellipse cx="105.915" cy="213.267" rx="0.963755" ry="0.955856" fill="#6C6CFF"/>
<ellipse cx="125.319" cy="213.267" rx="0.963755" ry="0.955856" fill="#6C6CFF"/>
<ellipse cx="144.717" cy="213.267" rx="0.963755" ry="0.955856" fill="#6C6CFF"/>
<ellipse cx="164.121" cy="213.267" rx="0.963755" ry="0.955856" fill="#6C6CFF"/>
<ellipse cx="183.524" cy="213.267" rx="0.963755" ry="0.955856" fill="#6C6CFF"/>
<ellipse cx="202.928" cy="213.267" rx="0.963755" ry="0.955856" fill="#6C6CFF"/>
<ellipse cx="222.328" cy="213.267" rx="0.963755" ry="0.955856" fill="#6C6CFF"/>
<ellipse cx="241.729" cy="213.267" rx="0.963755" ry="0.955856" fill="#6C6CFF"/>
<ellipse cx="261.131" cy="213.267" rx="0.963755" ry="0.955856" fill="#6C6CFF"/>
<ellipse cx="280.537" cy="213.267" rx="0.963755" ry="0.955856" fill="#6C6CFF"/>
<ellipse cx="299.934" cy="213.267" rx="0.963755" ry="0.955856" fill="#6C6CFF"/>
<ellipse cx="319.338" cy="213.267" rx="0.963755" ry="0.955856" fill="#6C6CFF"/>
<ellipse cx="338.739" cy="213.267" rx="0.963755" ry="0.955856" fill="#6C6CFF"/>
<ellipse cx="358.143" cy="213.267" rx="0.963755" ry="0.955856" fill="#6C6CFF"/>
<ellipse cx="377.544" cy="213.267" rx="0.963755" ry="0.955856" fill="#6C6CFF"/>
<ellipse cx="8.90321" cy="232.509" rx="0.963755" ry="0.955856" fill="#6C6CFF"/>
<ellipse cx="28.3065" cy="232.509" rx="0.963755" ry="0.955856" fill="#6C6CFF"/>
<ellipse cx="47.7118" cy="232.509" rx="0.963755" ry="0.955856" fill="#6C6CFF"/>
<ellipse cx="67.1102" cy="232.509" rx="0.963755" ry="0.955856" fill="#6C6CFF"/>
<ellipse cx="86.5145" cy="232.509" rx="0.963755" ry="0.955856" fill="#6C6CFF"/>
<ellipse cx="105.915" cy="232.509" rx="0.963755" ry="0.955856" fill="#6C6CFF"/>
<ellipse cx="125.319" cy="232.509" rx="0.963755" ry="0.955856" fill="#6C6CFF"/>
<ellipse cx="144.717" cy="232.509" rx="0.963755" ry="0.955856" fill="#6C6CFF"/>
<ellipse cx="164.121" cy="232.509" rx="0.963755" ry="0.955856" fill="#6C6CFF"/>
<ellipse cx="183.524" cy="232.509" rx="0.963755" ry="0.955856" fill="#6C6CFF"/>
<ellipse cx="202.928" cy="232.509" rx="0.963755" ry="0.955856" fill="#6C6CFF"/>
<ellipse cx="222.328" cy="232.509" rx="0.963755" ry="0.955856" fill="#6C6CFF"/>
<ellipse cx="241.729" cy="232.509" rx="0.963755" ry="0.955856" fill="#6C6CFF"/>
<ellipse cx="261.131" cy="232.509" rx="0.963755" ry="0.955856" fill="#6C6CFF"/>
<ellipse cx="280.537" cy="232.509" rx="0.963755" ry="0.955856" fill="#6C6CFF"/>
<ellipse cx="299.934" cy="232.509" rx="0.963755" ry="0.955856" fill="#6C6CFF"/>
<ellipse cx="319.338" cy="232.509" rx="0.963755" ry="0.955856" fill="#6C6CFF"/>
<ellipse cx="338.739" cy="232.509" rx="0.963755" ry="0.955856" fill="#6C6CFF"/>
<ellipse cx="358.143" cy="232.509" rx="0.963755" ry="0.955856" fill="#6C6CFF"/>
<ellipse cx="377.544" cy="232.509" rx="0.963755" ry="0.955856" fill="#6C6CFF"/>
<ellipse cx="8.90321" cy="251.751" rx="0.963755" ry="0.955856" fill="#6C6CFF"/>
<ellipse cx="28.3065" cy="251.751" rx="0.963755" ry="0.955856" fill="#6C6CFF"/>
<ellipse cx="47.7118" cy="251.751" rx="0.963755" ry="0.955856" fill="#6C6CFF"/>
<ellipse cx="67.1102" cy="251.751" rx="0.963755" ry="0.955856" fill="#6C6CFF"/>
<ellipse cx="86.5145" cy="251.751" rx="0.963755" ry="0.955856" fill="#6C6CFF"/>
<ellipse cx="105.915" cy="251.751" rx="0.963755" ry="0.955856" fill="#6C6CFF"/>
<ellipse cx="125.319" cy="251.751" rx="0.963755" ry="0.955856" fill="#6C6CFF"/>
<ellipse cx="144.717" cy="251.751" rx="0.963755" ry="0.955856" fill="#6C6CFF"/>
<ellipse cx="164.121" cy="251.751" rx="0.963755" ry="0.955856" fill="#6C6CFF"/>
<ellipse cx="183.524" cy="251.751" rx="0.963755" ry="0.955856" fill="#6C6CFF"/>
<ellipse cx="202.928" cy="251.751" rx="0.963755" ry="0.955856" fill="#6C6CFF"/>
<ellipse cx="222.328" cy="251.751" rx="0.963755" ry="0.955856" fill="#6C6CFF"/>
<ellipse cx="241.729" cy="251.751" rx="0.963755" ry="0.955856" fill="#6C6CFF"/>
<ellipse cx="261.131" cy="251.751" rx="0.963755" ry="0.955856" fill="#6C6CFF"/>
<ellipse cx="280.537" cy="251.751" rx="0.963755" ry="0.955856" fill="#6C6CFF"/>
<ellipse cx="299.934" cy="251.751" rx="0.963755" ry="0.955856" fill="#6C6CFF"/>
<ellipse cx="319.338" cy="251.751" rx="0.963755" ry="0.955856" fill="#6C6CFF"/>
<ellipse cx="338.739" cy="251.751" rx="0.963755" ry="0.955856" fill="#6C6CFF"/>
<ellipse cx="358.143" cy="251.751" rx="0.963755" ry="0.955856" fill="#6C6CFF"/>
<ellipse cx="377.544" cy="251.751" rx="0.963755" ry="0.955856" fill="#6C6CFF"/>
</g>
<circle cx="357.083" cy="45.0207" r="11.831" fill="#B4B4FF"/>
<circle cx="357.083" cy="74.1098" r="11.831" fill="#FFCC00"/>
<path d="M345.654 125.521L368.913 125.52L368.912 74.1098L357.113 80.0768L355.945 80.0768L345.654 74.4247L345.654 125.521Z" fill="url(#paint0_linear_2960_86345)"/>
</g>
<defs>
<linearGradient id="paint0_linear_2960_86345" x1="357.404" y1="64.0488" x2="358.684" y2="110.877" gradientUnits="userSpaceOnUse">
<stop stop-color="#FFCC00"/>
<stop offset="1" stop-color="#FFCC00" stop-opacity="0"/>
</linearGradient>
<clipPath id="clip0_2960_86345">
<rect width="395" height="264" fill="white" transform="translate(0.554688)"/>
</clipPath>
</defs>
</svg>
