<svg width="1142" height="264" viewBox="0 0 1142 264" fill="none" xmlns="http://www.w3.org/2000/svg">
<g clip-path="url(#clip0_2960_79088)">
<rect width="1141" height="263" transform="translate(0.554688 0.341858)" fill="#F0F3FF"/>
<g opacity="0.24">
<ellipse cx="8.96766" cy="2.63484" rx="0.963755" ry="0.955856" fill="#6C6CFF"/>
<ellipse cx="28.371" cy="2.63484" rx="0.963755" ry="0.955856" fill="#6C6CFF"/>
<ellipse cx="47.7763" cy="2.63484" rx="0.963755" ry="0.955856" fill="#6C6CFF"/>
<ellipse cx="67.1747" cy="2.63484" rx="0.963755" ry="0.955856" fill="#6C6CFF"/>
<ellipse cx="86.579" cy="2.63484" rx="0.963755" ry="0.955856" fill="#6C6CFF"/>
<ellipse cx="105.979" cy="2.63484" rx="0.963755" ry="0.955856" fill="#6C6CFF"/>
<ellipse cx="125.384" cy="2.63484" rx="0.963755" ry="0.955856" fill="#6C6CFF"/>
<ellipse cx="144.781" cy="2.63484" rx="0.963755" ry="0.955856" fill="#6C6CFF"/>
<ellipse cx="164.186" cy="2.63484" rx="0.963755" ry="0.955856" fill="#6C6CFF"/>
<ellipse cx="183.589" cy="2.63484" rx="0.963755" ry="0.955856" fill="#6C6CFF"/>
<ellipse cx="202.992" cy="2.63484" rx="0.963755" ry="0.955856" fill="#6C6CFF"/>
<ellipse cx="222.392" cy="2.63484" rx="0.963755" ry="0.955856" fill="#6C6CFF"/>
<ellipse cx="241.794" cy="2.63484" rx="0.963755" ry="0.955856" fill="#6C6CFF"/>
<ellipse cx="261.195" cy="2.63484" rx="0.963755" ry="0.955856" fill="#6C6CFF"/>
<ellipse cx="280.601" cy="2.63484" rx="0.963755" ry="0.955856" fill="#6C6CFF"/>
<ellipse cx="299.999" cy="2.63484" rx="0.963755" ry="0.955856" fill="#6C6CFF"/>
<ellipse cx="319.402" cy="2.63484" rx="0.963755" ry="0.955856" fill="#6C6CFF"/>
<ellipse cx="338.804" cy="2.63484" rx="0.963755" ry="0.955856" fill="#6C6CFF"/>
<ellipse cx="358.208" cy="2.63484" rx="0.963755" ry="0.955856" fill="#6C6CFF"/>
<ellipse cx="377.608" cy="2.63484" rx="0.963755" ry="0.955856" fill="#6C6CFF"/>
<ellipse cx="8.96766" cy="21.8781" rx="0.963755" ry="0.955856" fill="#6C6CFF"/>
<ellipse cx="28.371" cy="21.8781" rx="0.963755" ry="0.955856" fill="#6C6CFF"/>
<ellipse cx="47.7763" cy="21.8781" rx="0.963755" ry="0.955856" fill="#6C6CFF"/>
<ellipse cx="67.1747" cy="21.8781" rx="0.963755" ry="0.955856" fill="#6C6CFF"/>
<ellipse cx="86.579" cy="21.8781" rx="0.963755" ry="0.955856" fill="#6C6CFF"/>
<ellipse cx="105.979" cy="21.8781" rx="0.963755" ry="0.955856" fill="#6C6CFF"/>
<ellipse cx="125.384" cy="21.8781" rx="0.963755" ry="0.955856" fill="#6C6CFF"/>
<ellipse cx="144.781" cy="21.8781" rx="0.963755" ry="0.955856" fill="#6C6CFF"/>
<ellipse cx="164.186" cy="21.8781" rx="0.963755" ry="0.955856" fill="#6C6CFF"/>
<ellipse cx="183.589" cy="21.8781" rx="0.963755" ry="0.955856" fill="#6C6CFF"/>
<ellipse cx="202.992" cy="21.8781" rx="0.963755" ry="0.955856" fill="#6C6CFF"/>
<ellipse cx="222.392" cy="21.8781" rx="0.963755" ry="0.955856" fill="#6C6CFF"/>
<ellipse cx="241.794" cy="21.8781" rx="0.963755" ry="0.955856" fill="#6C6CFF"/>
<ellipse cx="261.195" cy="21.8781" rx="0.963755" ry="0.955856" fill="#6C6CFF"/>
<ellipse cx="280.601" cy="21.8781" rx="0.963755" ry="0.955856" fill="#6C6CFF"/>
<ellipse cx="299.999" cy="21.8781" rx="0.963755" ry="0.955856" fill="#6C6CFF"/>
<ellipse cx="319.402" cy="21.8781" rx="0.963755" ry="0.955856" fill="#6C6CFF"/>
<ellipse cx="338.804" cy="21.8781" rx="0.963755" ry="0.955856" fill="#6C6CFF"/>
<ellipse cx="358.208" cy="21.8781" rx="0.963755" ry="0.955856" fill="#6C6CFF"/>
<ellipse cx="377.608" cy="21.8781" rx="0.963755" ry="0.955856" fill="#6C6CFF"/>
<ellipse cx="8.96766" cy="41.1211" rx="0.963755" ry="0.955856" fill="#6C6CFF"/>
<ellipse cx="28.371" cy="41.1211" rx="0.963755" ry="0.955856" fill="#6C6CFF"/>
<ellipse cx="47.7763" cy="41.1211" rx="0.963755" ry="0.955856" fill="#6C6CFF"/>
<ellipse cx="67.1747" cy="41.1211" rx="0.963755" ry="0.955856" fill="#6C6CFF"/>
<ellipse cx="86.579" cy="41.1211" rx="0.963755" ry="0.955856" fill="#6C6CFF"/>
<ellipse cx="105.979" cy="41.1211" rx="0.963755" ry="0.955856" fill="#6C6CFF"/>
<ellipse cx="125.384" cy="41.1211" rx="0.963755" ry="0.955856" fill="#6C6CFF"/>
<ellipse cx="144.781" cy="41.1211" rx="0.963755" ry="0.955856" fill="#6C6CFF"/>
<ellipse cx="164.186" cy="41.1211" rx="0.963755" ry="0.955856" fill="#6C6CFF"/>
<ellipse cx="183.589" cy="41.1211" rx="0.963755" ry="0.955856" fill="#6C6CFF"/>
<ellipse cx="202.992" cy="41.1211" rx="0.963755" ry="0.955856" fill="#6C6CFF"/>
<ellipse cx="222.392" cy="41.1211" rx="0.963755" ry="0.955856" fill="#6C6CFF"/>
<ellipse cx="241.794" cy="41.1211" rx="0.963755" ry="0.955856" fill="#6C6CFF"/>
<ellipse cx="261.195" cy="41.1211" rx="0.963755" ry="0.955856" fill="#6C6CFF"/>
<ellipse cx="280.601" cy="41.1211" rx="0.963755" ry="0.955856" fill="#6C6CFF"/>
<ellipse cx="299.999" cy="41.1211" rx="0.963755" ry="0.955856" fill="#6C6CFF"/>
<ellipse cx="319.402" cy="41.1211" rx="0.963755" ry="0.955856" fill="#6C6CFF"/>
<ellipse cx="338.804" cy="41.1211" rx="0.963755" ry="0.955856" fill="#6C6CFF"/>
<ellipse cx="358.208" cy="41.1211" rx="0.963755" ry="0.955856" fill="#6C6CFF"/>
<ellipse cx="377.608" cy="41.1211" rx="0.963755" ry="0.955856" fill="#6C6CFF"/>
<ellipse cx="8.96766" cy="60.3647" rx="0.963755" ry="0.955856" fill="#6C6CFF"/>
<ellipse cx="28.371" cy="60.3647" rx="0.963755" ry="0.955856" fill="#6C6CFF"/>
<ellipse cx="47.7763" cy="60.3647" rx="0.963755" ry="0.955856" fill="#6C6CFF"/>
<ellipse cx="67.1747" cy="60.3647" rx="0.963755" ry="0.955856" fill="#6C6CFF"/>
<ellipse cx="86.579" cy="60.3647" rx="0.963755" ry="0.955856" fill="#6C6CFF"/>
<ellipse cx="105.979" cy="60.3647" rx="0.963755" ry="0.955856" fill="#6C6CFF"/>
<ellipse cx="125.384" cy="60.3647" rx="0.963755" ry="0.955856" fill="#6C6CFF"/>
<ellipse cx="144.781" cy="60.3647" rx="0.963755" ry="0.955856" fill="#6C6CFF"/>
<ellipse cx="164.186" cy="60.3647" rx="0.963755" ry="0.955856" fill="#6C6CFF"/>
<ellipse cx="183.589" cy="60.3647" rx="0.963755" ry="0.955856" fill="#6C6CFF"/>
<ellipse cx="202.992" cy="60.3647" rx="0.963755" ry="0.955856" fill="#6C6CFF"/>
<ellipse cx="222.392" cy="60.3647" rx="0.963755" ry="0.955856" fill="#6C6CFF"/>
<ellipse cx="241.794" cy="60.3647" rx="0.963755" ry="0.955856" fill="#6C6CFF"/>
<ellipse cx="261.195" cy="60.3647" rx="0.963755" ry="0.955856" fill="#6C6CFF"/>
<ellipse cx="280.601" cy="60.3647" rx="0.963755" ry="0.955856" fill="#6C6CFF"/>
<ellipse cx="299.999" cy="60.3647" rx="0.963755" ry="0.955856" fill="#6C6CFF"/>
<ellipse cx="319.402" cy="60.3647" rx="0.963755" ry="0.955856" fill="#6C6CFF"/>
<ellipse cx="338.804" cy="60.3647" rx="0.963755" ry="0.955856" fill="#6C6CFF"/>
<ellipse cx="358.208" cy="60.3647" rx="0.963755" ry="0.955856" fill="#6C6CFF"/>
<ellipse cx="377.608" cy="60.3647" rx="0.963755" ry="0.955856" fill="#6C6CFF"/>
<ellipse cx="8.96766" cy="79.6081" rx="0.963755" ry="0.955856" fill="#6C6CFF"/>
<ellipse cx="28.371" cy="79.6081" rx="0.963755" ry="0.955856" fill="#6C6CFF"/>
<ellipse cx="47.7763" cy="79.6081" rx="0.963755" ry="0.955856" fill="#6C6CFF"/>
<ellipse cx="67.1747" cy="79.6081" rx="0.963755" ry="0.955856" fill="#6C6CFF"/>
<ellipse cx="86.579" cy="79.6081" rx="0.963755" ry="0.955856" fill="#6C6CFF"/>
<ellipse cx="105.979" cy="79.6081" rx="0.963755" ry="0.955856" fill="#6C6CFF"/>
<ellipse cx="125.384" cy="79.6081" rx="0.963755" ry="0.955856" fill="#6C6CFF"/>
<ellipse cx="144.781" cy="79.6081" rx="0.963755" ry="0.955856" fill="#6C6CFF"/>
<ellipse cx="164.186" cy="79.6081" rx="0.963755" ry="0.955856" fill="#6C6CFF"/>
<ellipse cx="183.589" cy="79.6081" rx="0.963755" ry="0.955856" fill="#6C6CFF"/>
<ellipse cx="202.992" cy="79.6081" rx="0.963755" ry="0.955856" fill="#6C6CFF"/>
<ellipse cx="222.392" cy="79.6081" rx="0.963755" ry="0.955856" fill="#6C6CFF"/>
<ellipse cx="241.794" cy="79.6081" rx="0.963755" ry="0.955856" fill="#6C6CFF"/>
<ellipse cx="261.195" cy="79.6081" rx="0.963755" ry="0.955856" fill="#6C6CFF"/>
<ellipse cx="280.601" cy="79.6081" rx="0.963755" ry="0.955856" fill="#6C6CFF"/>
<ellipse cx="299.999" cy="79.6081" rx="0.963755" ry="0.955856" fill="#6C6CFF"/>
<ellipse cx="319.402" cy="79.6081" rx="0.963755" ry="0.955856" fill="#6C6CFF"/>
<ellipse cx="338.804" cy="79.6081" rx="0.963755" ry="0.955856" fill="#6C6CFF"/>
<ellipse cx="358.208" cy="79.6081" rx="0.963755" ry="0.955856" fill="#6C6CFF"/>
<ellipse cx="377.608" cy="79.6081" rx="0.963755" ry="0.955856" fill="#6C6CFF"/>
<ellipse cx="8.96766" cy="98.8506" rx="0.963755" ry="0.955856" fill="#6C6CFF"/>
<ellipse cx="28.371" cy="98.8506" rx="0.963755" ry="0.955856" fill="#6C6CFF"/>
<ellipse cx="47.7763" cy="98.8506" rx="0.963755" ry="0.955856" fill="#6C6CFF"/>
<ellipse cx="67.1747" cy="98.8506" rx="0.963755" ry="0.955856" fill="#6C6CFF"/>
<ellipse cx="86.579" cy="98.8506" rx="0.963755" ry="0.955856" fill="#6C6CFF"/>
<ellipse cx="105.979" cy="98.8506" rx="0.963755" ry="0.955856" fill="#6C6CFF"/>
<ellipse cx="125.384" cy="98.8506" rx="0.963755" ry="0.955856" fill="#6C6CFF"/>
<ellipse cx="144.781" cy="98.8506" rx="0.963755" ry="0.955856" fill="#6C6CFF"/>
<ellipse cx="164.186" cy="98.8506" rx="0.963755" ry="0.955856" fill="#6C6CFF"/>
<ellipse cx="183.589" cy="98.8506" rx="0.963755" ry="0.955856" fill="#6C6CFF"/>
<ellipse cx="202.992" cy="98.8506" rx="0.963755" ry="0.955856" fill="#6C6CFF"/>
<ellipse cx="222.392" cy="98.8506" rx="0.963755" ry="0.955856" fill="#6C6CFF"/>
<ellipse cx="241.794" cy="98.8506" rx="0.963755" ry="0.955856" fill="#6C6CFF"/>
<ellipse cx="261.195" cy="98.8506" rx="0.963755" ry="0.955856" fill="#6C6CFF"/>
<ellipse cx="280.601" cy="98.8506" rx="0.963755" ry="0.955856" fill="#6C6CFF"/>
<ellipse cx="299.999" cy="98.8506" rx="0.963755" ry="0.955856" fill="#6C6CFF"/>
<ellipse cx="319.402" cy="98.8506" rx="0.963755" ry="0.955856" fill="#6C6CFF"/>
<ellipse cx="338.804" cy="98.8506" rx="0.963755" ry="0.955856" fill="#6C6CFF"/>
<ellipse cx="358.208" cy="98.8506" rx="0.963755" ry="0.955856" fill="#6C6CFF"/>
<ellipse cx="377.608" cy="98.8506" rx="0.963755" ry="0.955856" fill="#6C6CFF"/>
<ellipse cx="8.96766" cy="118.093" rx="0.963755" ry="0.955856" fill="#6C6CFF"/>
<ellipse cx="28.371" cy="118.093" rx="0.963755" ry="0.955856" fill="#6C6CFF"/>
<ellipse cx="47.7763" cy="118.093" rx="0.963755" ry="0.955856" fill="#6C6CFF"/>
<ellipse cx="67.1747" cy="118.093" rx="0.963755" ry="0.955856" fill="#6C6CFF"/>
<ellipse cx="86.579" cy="118.093" rx="0.963755" ry="0.955856" fill="#6C6CFF"/>
<ellipse cx="105.979" cy="118.093" rx="0.963755" ry="0.955856" fill="#6C6CFF"/>
<ellipse cx="125.384" cy="118.093" rx="0.963755" ry="0.955856" fill="#6C6CFF"/>
<ellipse cx="144.781" cy="118.093" rx="0.963755" ry="0.955856" fill="#6C6CFF"/>
<ellipse cx="164.186" cy="118.093" rx="0.963755" ry="0.955856" fill="#6C6CFF"/>
<ellipse cx="183.589" cy="118.093" rx="0.963755" ry="0.955856" fill="#6C6CFF"/>
<ellipse cx="202.992" cy="118.093" rx="0.963755" ry="0.955856" fill="#6C6CFF"/>
<ellipse cx="222.392" cy="118.093" rx="0.963755" ry="0.955856" fill="#6C6CFF"/>
<ellipse cx="241.794" cy="118.093" rx="0.963755" ry="0.955856" fill="#6C6CFF"/>
<ellipse cx="261.195" cy="118.093" rx="0.963755" ry="0.955856" fill="#6C6CFF"/>
<ellipse cx="280.601" cy="118.093" rx="0.963755" ry="0.955856" fill="#6C6CFF"/>
<ellipse cx="299.999" cy="118.093" rx="0.963755" ry="0.955856" fill="#6C6CFF"/>
<ellipse cx="319.402" cy="118.093" rx="0.963755" ry="0.955856" fill="#6C6CFF"/>
<ellipse cx="338.804" cy="118.093" rx="0.963755" ry="0.955856" fill="#6C6CFF"/>
<ellipse cx="358.208" cy="118.093" rx="0.963755" ry="0.955856" fill="#6C6CFF"/>
<ellipse cx="377.608" cy="118.093" rx="0.963755" ry="0.955856" fill="#6C6CFF"/>
<ellipse cx="8.96766" cy="137.337" rx="0.963755" ry="0.955856" fill="#6C6CFF"/>
<ellipse cx="28.371" cy="137.337" rx="0.963755" ry="0.955856" fill="#6C6CFF"/>
<ellipse cx="47.7763" cy="137.337" rx="0.963755" ry="0.955856" fill="#6C6CFF"/>
<ellipse cx="67.1747" cy="137.337" rx="0.963755" ry="0.955856" fill="#6C6CFF"/>
<ellipse cx="86.579" cy="137.337" rx="0.963755" ry="0.955856" fill="#6C6CFF"/>
<ellipse cx="105.979" cy="137.337" rx="0.963755" ry="0.955856" fill="#6C6CFF"/>
<ellipse cx="125.384" cy="137.337" rx="0.963755" ry="0.955856" fill="#6C6CFF"/>
<ellipse cx="144.781" cy="137.337" rx="0.963755" ry="0.955856" fill="#6C6CFF"/>
<ellipse cx="164.186" cy="137.337" rx="0.963755" ry="0.955856" fill="#6C6CFF"/>
<ellipse cx="183.589" cy="137.337" rx="0.963755" ry="0.955856" fill="#6C6CFF"/>
<ellipse cx="202.992" cy="137.337" rx="0.963755" ry="0.955856" fill="#6C6CFF"/>
<ellipse cx="222.392" cy="137.337" rx="0.963755" ry="0.955856" fill="#6C6CFF"/>
<ellipse cx="241.794" cy="137.337" rx="0.963755" ry="0.955856" fill="#6C6CFF"/>
<ellipse cx="261.195" cy="137.337" rx="0.963755" ry="0.955856" fill="#6C6CFF"/>
<ellipse cx="280.601" cy="137.337" rx="0.963755" ry="0.955856" fill="#6C6CFF"/>
<ellipse cx="299.999" cy="137.337" rx="0.963755" ry="0.955856" fill="#6C6CFF"/>
<ellipse cx="319.402" cy="137.337" rx="0.963755" ry="0.955856" fill="#6C6CFF"/>
<ellipse cx="338.804" cy="137.337" rx="0.963755" ry="0.955856" fill="#6C6CFF"/>
<ellipse cx="358.208" cy="137.337" rx="0.963755" ry="0.955856" fill="#6C6CFF"/>
<ellipse cx="377.608" cy="137.337" rx="0.963755" ry="0.955856" fill="#6C6CFF"/>
<ellipse cx="8.96766" cy="156.58" rx="0.963755" ry="0.955856" fill="#6C6CFF"/>
<ellipse cx="28.371" cy="156.58" rx="0.963755" ry="0.955856" fill="#6C6CFF"/>
<ellipse cx="47.7763" cy="156.58" rx="0.963755" ry="0.955856" fill="#6C6CFF"/>
<ellipse cx="67.1747" cy="156.58" rx="0.963755" ry="0.955856" fill="#6C6CFF"/>
<ellipse cx="86.579" cy="156.58" rx="0.963755" ry="0.955856" fill="#6C6CFF"/>
<ellipse cx="105.979" cy="156.58" rx="0.963755" ry="0.955856" fill="#6C6CFF"/>
<ellipse cx="125.384" cy="156.58" rx="0.963755" ry="0.955856" fill="#6C6CFF"/>
<ellipse cx="144.781" cy="156.58" rx="0.963755" ry="0.955856" fill="#6C6CFF"/>
<ellipse cx="164.185" cy="156.58" rx="0.963755" ry="0.955856" fill="#6C6CFF"/>
<ellipse cx="183.589" cy="156.58" rx="0.963755" ry="0.955856" fill="#6C6CFF"/>
<ellipse cx="202.992" cy="156.58" rx="0.963755" ry="0.955856" fill="#6C6CFF"/>
<ellipse cx="222.392" cy="156.58" rx="0.963755" ry="0.955856" fill="#6C6CFF"/>
<ellipse cx="241.794" cy="156.58" rx="0.963755" ry="0.955856" fill="#6C6CFF"/>
<ellipse cx="261.195" cy="156.58" rx="0.963755" ry="0.955856" fill="#6C6CFF"/>
<ellipse cx="280.601" cy="156.58" rx="0.963755" ry="0.955856" fill="#6C6CFF"/>
<ellipse cx="299.999" cy="156.58" rx="0.963755" ry="0.955856" fill="#6C6CFF"/>
<ellipse cx="319.402" cy="156.58" rx="0.963755" ry="0.955856" fill="#6C6CFF"/>
<ellipse cx="338.804" cy="156.58" rx="0.963755" ry="0.955856" fill="#6C6CFF"/>
<ellipse cx="358.208" cy="156.58" rx="0.963755" ry="0.955856" fill="#6C6CFF"/>
<ellipse cx="377.608" cy="156.58" rx="0.963755" ry="0.955856" fill="#6C6CFF"/>
<ellipse cx="8.96766" cy="175.823" rx="0.963755" ry="0.955856" fill="#6C6CFF"/>
<ellipse cx="28.371" cy="175.823" rx="0.963755" ry="0.955856" fill="#6C6CFF"/>
<ellipse cx="47.7763" cy="175.823" rx="0.963755" ry="0.955856" fill="#6C6CFF"/>
<ellipse cx="67.1747" cy="175.823" rx="0.963755" ry="0.955856" fill="#6C6CFF"/>
<ellipse cx="86.579" cy="175.823" rx="0.963755" ry="0.955856" fill="#6C6CFF"/>
<ellipse cx="105.979" cy="175.823" rx="0.963755" ry="0.955856" fill="#6C6CFF"/>
<ellipse cx="125.384" cy="175.823" rx="0.963755" ry="0.955856" fill="#6C6CFF"/>
<ellipse cx="144.781" cy="175.823" rx="0.963755" ry="0.955856" fill="#6C6CFF"/>
<ellipse cx="164.185" cy="175.823" rx="0.963755" ry="0.955856" fill="#6C6CFF"/>
<ellipse cx="183.589" cy="175.823" rx="0.963755" ry="0.955856" fill="#6C6CFF"/>
<ellipse cx="202.992" cy="175.823" rx="0.963755" ry="0.955856" fill="#6C6CFF"/>
<ellipse cx="222.392" cy="175.823" rx="0.963755" ry="0.955856" fill="#6C6CFF"/>
<ellipse cx="241.794" cy="175.823" rx="0.963755" ry="0.955856" fill="#6C6CFF"/>
<ellipse cx="261.195" cy="175.823" rx="0.963755" ry="0.955856" fill="#6C6CFF"/>
<ellipse cx="280.601" cy="175.823" rx="0.963755" ry="0.955856" fill="#6C6CFF"/>
<ellipse cx="299.999" cy="175.823" rx="0.963755" ry="0.955856" fill="#6C6CFF"/>
<ellipse cx="319.402" cy="175.823" rx="0.963755" ry="0.955856" fill="#6C6CFF"/>
<ellipse cx="338.804" cy="175.823" rx="0.963755" ry="0.955856" fill="#6C6CFF"/>
<ellipse cx="358.208" cy="175.823" rx="0.963755" ry="0.955856" fill="#6C6CFF"/>
<ellipse cx="377.608" cy="175.823" rx="0.963755" ry="0.955856" fill="#6C6CFF"/>
<ellipse cx="8.96766" cy="195.066" rx="0.963755" ry="0.955856" fill="#6C6CFF"/>
<ellipse cx="28.371" cy="195.066" rx="0.963755" ry="0.955856" fill="#6C6CFF"/>
<ellipse cx="47.7763" cy="195.066" rx="0.963755" ry="0.955856" fill="#6C6CFF"/>
<ellipse cx="67.1747" cy="195.066" rx="0.963755" ry="0.955856" fill="#6C6CFF"/>
<ellipse cx="86.579" cy="195.066" rx="0.963755" ry="0.955856" fill="#6C6CFF"/>
<ellipse cx="105.979" cy="195.066" rx="0.963755" ry="0.955856" fill="#6C6CFF"/>
<ellipse cx="125.384" cy="195.066" rx="0.963755" ry="0.955856" fill="#6C6CFF"/>
<ellipse cx="144.781" cy="195.066" rx="0.963755" ry="0.955856" fill="#6C6CFF"/>
<ellipse cx="164.185" cy="195.066" rx="0.963755" ry="0.955856" fill="#6C6CFF"/>
<ellipse cx="183.589" cy="195.066" rx="0.963755" ry="0.955856" fill="#6C6CFF"/>
<ellipse cx="202.992" cy="195.066" rx="0.963755" ry="0.955856" fill="#6C6CFF"/>
<ellipse cx="222.392" cy="195.066" rx="0.963755" ry="0.955856" fill="#6C6CFF"/>
<ellipse cx="241.794" cy="195.066" rx="0.963755" ry="0.955856" fill="#6C6CFF"/>
<ellipse cx="261.195" cy="195.066" rx="0.963755" ry="0.955856" fill="#6C6CFF"/>
<ellipse cx="280.601" cy="195.066" rx="0.963755" ry="0.955856" fill="#6C6CFF"/>
<ellipse cx="299.999" cy="195.066" rx="0.963755" ry="0.955856" fill="#6C6CFF"/>
<ellipse cx="319.402" cy="195.066" rx="0.963755" ry="0.955856" fill="#6C6CFF"/>
<ellipse cx="338.804" cy="195.066" rx="0.963755" ry="0.955856" fill="#6C6CFF"/>
<ellipse cx="358.208" cy="195.066" rx="0.963755" ry="0.955856" fill="#6C6CFF"/>
<ellipse cx="377.608" cy="195.066" rx="0.963755" ry="0.955856" fill="#6C6CFF"/>
<ellipse cx="8.96766" cy="214.31" rx="0.963755" ry="0.955856" fill="#6C6CFF"/>
<ellipse cx="28.371" cy="214.31" rx="0.963755" ry="0.955856" fill="#6C6CFF"/>
<ellipse cx="47.7763" cy="214.31" rx="0.963755" ry="0.955856" fill="#6C6CFF"/>
<ellipse cx="67.1747" cy="214.31" rx="0.963755" ry="0.955856" fill="#6C6CFF"/>
<ellipse cx="86.579" cy="214.31" rx="0.963755" ry="0.955856" fill="#6C6CFF"/>
<ellipse cx="105.979" cy="214.31" rx="0.963755" ry="0.955856" fill="#6C6CFF"/>
<ellipse cx="125.384" cy="214.31" rx="0.963755" ry="0.955856" fill="#6C6CFF"/>
<ellipse cx="144.781" cy="214.31" rx="0.963755" ry="0.955856" fill="#6C6CFF"/>
<ellipse cx="164.185" cy="214.31" rx="0.963755" ry="0.955856" fill="#6C6CFF"/>
<ellipse cx="183.589" cy="214.31" rx="0.963755" ry="0.955856" fill="#6C6CFF"/>
<ellipse cx="202.992" cy="214.31" rx="0.963755" ry="0.955856" fill="#6C6CFF"/>
<ellipse cx="222.392" cy="214.31" rx="0.963755" ry="0.955856" fill="#6C6CFF"/>
<ellipse cx="241.794" cy="214.31" rx="0.963755" ry="0.955856" fill="#6C6CFF"/>
<ellipse cx="261.195" cy="214.31" rx="0.963755" ry="0.955856" fill="#6C6CFF"/>
<ellipse cx="280.601" cy="214.31" rx="0.963755" ry="0.955856" fill="#6C6CFF"/>
<ellipse cx="299.999" cy="214.31" rx="0.963755" ry="0.955856" fill="#6C6CFF"/>
<ellipse cx="319.402" cy="214.31" rx="0.963755" ry="0.955856" fill="#6C6CFF"/>
<ellipse cx="338.804" cy="214.31" rx="0.963755" ry="0.955856" fill="#6C6CFF"/>
<ellipse cx="358.208" cy="214.31" rx="0.963755" ry="0.955856" fill="#6C6CFF"/>
<ellipse cx="377.608" cy="214.31" rx="0.963755" ry="0.955856" fill="#6C6CFF"/>
<ellipse cx="8.96766" cy="233.552" rx="0.963755" ry="0.955856" fill="#6C6CFF"/>
<ellipse cx="28.371" cy="233.552" rx="0.963755" ry="0.955856" fill="#6C6CFF"/>
<ellipse cx="47.7763" cy="233.552" rx="0.963755" ry="0.955856" fill="#6C6CFF"/>
<ellipse cx="67.1747" cy="233.552" rx="0.963755" ry="0.955856" fill="#6C6CFF"/>
<ellipse cx="86.579" cy="233.552" rx="0.963755" ry="0.955856" fill="#6C6CFF"/>
<ellipse cx="105.979" cy="233.552" rx="0.963755" ry="0.955856" fill="#6C6CFF"/>
<ellipse cx="125.384" cy="233.552" rx="0.963755" ry="0.955856" fill="#6C6CFF"/>
<ellipse cx="144.781" cy="233.552" rx="0.963755" ry="0.955856" fill="#6C6CFF"/>
<ellipse cx="164.185" cy="233.552" rx="0.963755" ry="0.955856" fill="#6C6CFF"/>
<ellipse cx="183.589" cy="233.552" rx="0.963755" ry="0.955856" fill="#6C6CFF"/>
<ellipse cx="202.992" cy="233.552" rx="0.963755" ry="0.955856" fill="#6C6CFF"/>
<ellipse cx="222.392" cy="233.552" rx="0.963755" ry="0.955856" fill="#6C6CFF"/>
<ellipse cx="241.794" cy="233.552" rx="0.963755" ry="0.955856" fill="#6C6CFF"/>
<ellipse cx="261.195" cy="233.552" rx="0.963755" ry="0.955856" fill="#6C6CFF"/>
<ellipse cx="280.601" cy="233.552" rx="0.963755" ry="0.955856" fill="#6C6CFF"/>
<ellipse cx="299.999" cy="233.552" rx="0.963755" ry="0.955856" fill="#6C6CFF"/>
<ellipse cx="319.402" cy="233.552" rx="0.963755" ry="0.955856" fill="#6C6CFF"/>
<ellipse cx="338.804" cy="233.552" rx="0.963755" ry="0.955856" fill="#6C6CFF"/>
<ellipse cx="358.208" cy="233.552" rx="0.963755" ry="0.955856" fill="#6C6CFF"/>
<ellipse cx="377.608" cy="233.552" rx="0.963755" ry="0.955856" fill="#6C6CFF"/>
<ellipse cx="8.96766" cy="252.794" rx="0.963755" ry="0.955856" fill="#6C6CFF"/>
<ellipse cx="28.371" cy="252.794" rx="0.963755" ry="0.955856" fill="#6C6CFF"/>
<ellipse cx="47.7763" cy="252.794" rx="0.963755" ry="0.955856" fill="#6C6CFF"/>
<ellipse cx="67.1747" cy="252.794" rx="0.963755" ry="0.955856" fill="#6C6CFF"/>
<ellipse cx="86.579" cy="252.794" rx="0.963755" ry="0.955856" fill="#6C6CFF"/>
<ellipse cx="105.979" cy="252.794" rx="0.963755" ry="0.955856" fill="#6C6CFF"/>
<ellipse cx="125.384" cy="252.794" rx="0.963755" ry="0.955856" fill="#6C6CFF"/>
<ellipse cx="144.781" cy="252.794" rx="0.963755" ry="0.955856" fill="#6C6CFF"/>
<ellipse cx="164.185" cy="252.794" rx="0.963755" ry="0.955856" fill="#6C6CFF"/>
<ellipse cx="183.589" cy="252.794" rx="0.963755" ry="0.955856" fill="#6C6CFF"/>
<ellipse cx="202.992" cy="252.794" rx="0.963755" ry="0.955856" fill="#6C6CFF"/>
<ellipse cx="222.392" cy="252.794" rx="0.963755" ry="0.955856" fill="#6C6CFF"/>
<ellipse cx="241.794" cy="252.794" rx="0.963755" ry="0.955856" fill="#6C6CFF"/>
<ellipse cx="261.195" cy="252.794" rx="0.963755" ry="0.955856" fill="#6C6CFF"/>
<ellipse cx="280.601" cy="252.794" rx="0.963755" ry="0.955856" fill="#6C6CFF"/>
<ellipse cx="299.999" cy="252.794" rx="0.963755" ry="0.955856" fill="#6C6CFF"/>
<ellipse cx="319.402" cy="252.794" rx="0.963755" ry="0.955856" fill="#6C6CFF"/>
<ellipse cx="338.804" cy="252.794" rx="0.963755" ry="0.955856" fill="#6C6CFF"/>
<ellipse cx="358.208" cy="252.794" rx="0.963755" ry="0.955856" fill="#6C6CFF"/>
<ellipse cx="377.608" cy="252.794" rx="0.963755" ry="0.955856" fill="#6C6CFF"/>
</g>
<g opacity="0.24">
<ellipse cx="396.895" cy="2.63481" rx="0.963755" ry="0.955856" fill="#6C6CFF"/>
<ellipse cx="416.299" cy="2.63481" rx="0.963755" ry="0.955856" fill="#6C6CFF"/>
<ellipse cx="435.704" cy="2.63481" rx="0.963755" ry="0.955856" fill="#6C6CFF"/>
<ellipse cx="455.102" cy="2.63481" rx="0.963755" ry="0.955856" fill="#6C6CFF"/>
<ellipse cx="474.507" cy="2.63481" rx="0.963755" ry="0.955856" fill="#6C6CFF"/>
<ellipse cx="493.907" cy="2.63481" rx="0.963755" ry="0.955856" fill="#6C6CFF"/>
<ellipse cx="513.311" cy="2.63481" rx="0.963755" ry="0.955856" fill="#6C6CFF"/>
<ellipse cx="532.709" cy="2.63481" rx="0.963755" ry="0.955856" fill="#6C6CFF"/>
<ellipse cx="552.114" cy="2.63481" rx="0.963755" ry="0.955856" fill="#6C6CFF"/>
<ellipse cx="571.516" cy="2.63481" rx="0.963755" ry="0.955856" fill="#6C6CFF"/>
<ellipse cx="590.92" cy="2.63481" rx="0.963755" ry="0.955856" fill="#6C6CFF"/>
<ellipse cx="610.32" cy="2.63481" rx="0.963755" ry="0.955856" fill="#6C6CFF"/>
<ellipse cx="629.722" cy="2.63481" rx="0.963755" ry="0.955856" fill="#6C6CFF"/>
<ellipse cx="649.123" cy="2.63481" rx="0.963755" ry="0.955856" fill="#6C6CFF"/>
<ellipse cx="668.529" cy="2.63481" rx="0.963755" ry="0.955856" fill="#6C6CFF"/>
<ellipse cx="687.927" cy="2.63481" rx="0.963755" ry="0.955856" fill="#6C6CFF"/>
<ellipse cx="707.33" cy="2.63481" rx="0.963755" ry="0.955856" fill="#6C6CFF"/>
<ellipse cx="726.731" cy="2.63481" rx="0.963755" ry="0.955856" fill="#6C6CFF"/>
<ellipse cx="746.136" cy="2.63481" rx="0.963755" ry="0.955856" fill="#6C6CFF"/>
<ellipse cx="765.536" cy="2.63481" rx="0.963755" ry="0.955856" fill="#6C6CFF"/>
<ellipse cx="396.895" cy="21.8781" rx="0.963755" ry="0.955856" fill="#6C6CFF"/>
<ellipse cx="416.299" cy="21.8781" rx="0.963755" ry="0.955856" fill="#6C6CFF"/>
<ellipse cx="435.704" cy="21.8781" rx="0.963755" ry="0.955856" fill="#6C6CFF"/>
<ellipse cx="455.102" cy="21.8781" rx="0.963755" ry="0.955856" fill="#6C6CFF"/>
<ellipse cx="474.507" cy="21.8781" rx="0.963755" ry="0.955856" fill="#6C6CFF"/>
<ellipse cx="493.907" cy="21.8781" rx="0.963755" ry="0.955856" fill="#6C6CFF"/>
<ellipse cx="513.311" cy="21.8781" rx="0.963755" ry="0.955856" fill="#6C6CFF"/>
<ellipse cx="532.709" cy="21.8781" rx="0.963755" ry="0.955856" fill="#6C6CFF"/>
<ellipse cx="552.114" cy="21.8781" rx="0.963755" ry="0.955856" fill="#6C6CFF"/>
<ellipse cx="571.516" cy="21.8781" rx="0.963755" ry="0.955856" fill="#6C6CFF"/>
<ellipse cx="590.92" cy="21.8781" rx="0.963755" ry="0.955856" fill="#6C6CFF"/>
<ellipse cx="610.32" cy="21.8781" rx="0.963755" ry="0.955856" fill="#6C6CFF"/>
<ellipse cx="629.722" cy="21.8781" rx="0.963755" ry="0.955856" fill="#6C6CFF"/>
<ellipse cx="649.123" cy="21.8781" rx="0.963755" ry="0.955856" fill="#6C6CFF"/>
<ellipse cx="668.529" cy="21.8781" rx="0.963755" ry="0.955856" fill="#6C6CFF"/>
<ellipse cx="687.927" cy="21.8781" rx="0.963755" ry="0.955856" fill="#6C6CFF"/>
<ellipse cx="707.33" cy="21.8781" rx="0.963755" ry="0.955856" fill="#6C6CFF"/>
<ellipse cx="726.731" cy="21.8781" rx="0.963755" ry="0.955856" fill="#6C6CFF"/>
<ellipse cx="746.136" cy="21.8781" rx="0.963755" ry="0.955856" fill="#6C6CFF"/>
<ellipse cx="765.536" cy="21.8781" rx="0.963755" ry="0.955856" fill="#6C6CFF"/>
<ellipse cx="396.895" cy="41.1211" rx="0.963755" ry="0.955856" fill="#6C6CFF"/>
<ellipse cx="416.299" cy="41.1211" rx="0.963755" ry="0.955856" fill="#6C6CFF"/>
<ellipse cx="435.704" cy="41.1211" rx="0.963755" ry="0.955856" fill="#6C6CFF"/>
<ellipse cx="455.102" cy="41.1211" rx="0.963755" ry="0.955856" fill="#6C6CFF"/>
<ellipse cx="474.507" cy="41.1211" rx="0.963755" ry="0.955856" fill="#6C6CFF"/>
<ellipse cx="493.907" cy="41.1211" rx="0.963755" ry="0.955856" fill="#6C6CFF"/>
<ellipse cx="513.311" cy="41.1211" rx="0.963755" ry="0.955856" fill="#6C6CFF"/>
<ellipse cx="532.709" cy="41.1211" rx="0.963755" ry="0.955856" fill="#6C6CFF"/>
<ellipse cx="552.114" cy="41.1211" rx="0.963755" ry="0.955856" fill="#6C6CFF"/>
<ellipse cx="571.516" cy="41.1211" rx="0.963755" ry="0.955856" fill="#6C6CFF"/>
<ellipse cx="590.92" cy="41.1211" rx="0.963755" ry="0.955856" fill="#6C6CFF"/>
<ellipse cx="610.32" cy="41.1211" rx="0.963755" ry="0.955856" fill="#6C6CFF"/>
<ellipse cx="629.722" cy="41.1211" rx="0.963755" ry="0.955856" fill="#6C6CFF"/>
<ellipse cx="649.123" cy="41.1211" rx="0.963755" ry="0.955856" fill="#6C6CFF"/>
<ellipse cx="668.529" cy="41.1211" rx="0.963755" ry="0.955856" fill="#6C6CFF"/>
<ellipse cx="687.927" cy="41.1211" rx="0.963755" ry="0.955856" fill="#6C6CFF"/>
<ellipse cx="707.33" cy="41.1211" rx="0.963755" ry="0.955856" fill="#6C6CFF"/>
<ellipse cx="726.731" cy="41.1211" rx="0.963755" ry="0.955856" fill="#6C6CFF"/>
<ellipse cx="746.136" cy="41.1211" rx="0.963755" ry="0.955856" fill="#6C6CFF"/>
<ellipse cx="765.536" cy="41.1211" rx="0.963755" ry="0.955856" fill="#6C6CFF"/>
<ellipse cx="396.895" cy="60.3647" rx="0.963755" ry="0.955856" fill="#6C6CFF"/>
<ellipse cx="416.299" cy="60.3647" rx="0.963755" ry="0.955856" fill="#6C6CFF"/>
<ellipse cx="435.704" cy="60.3647" rx="0.963755" ry="0.955856" fill="#6C6CFF"/>
<ellipse cx="455.102" cy="60.3647" rx="0.963755" ry="0.955856" fill="#6C6CFF"/>
<ellipse cx="474.507" cy="60.3647" rx="0.963755" ry="0.955856" fill="#6C6CFF"/>
<ellipse cx="493.907" cy="60.3647" rx="0.963755" ry="0.955856" fill="#6C6CFF"/>
<ellipse cx="513.311" cy="60.3647" rx="0.963755" ry="0.955856" fill="#6C6CFF"/>
<ellipse cx="532.709" cy="60.3647" rx="0.963755" ry="0.955856" fill="#6C6CFF"/>
<ellipse cx="552.114" cy="60.3647" rx="0.963755" ry="0.955856" fill="#6C6CFF"/>
<ellipse cx="571.516" cy="60.3647" rx="0.963755" ry="0.955856" fill="#6C6CFF"/>
<ellipse cx="590.92" cy="60.3647" rx="0.963755" ry="0.955856" fill="#6C6CFF"/>
<ellipse cx="610.32" cy="60.3647" rx="0.963755" ry="0.955856" fill="#6C6CFF"/>
<ellipse cx="629.722" cy="60.3647" rx="0.963755" ry="0.955856" fill="#6C6CFF"/>
<ellipse cx="649.123" cy="60.3647" rx="0.963755" ry="0.955856" fill="#6C6CFF"/>
<ellipse cx="668.529" cy="60.3647" rx="0.963755" ry="0.955856" fill="#6C6CFF"/>
<ellipse cx="687.927" cy="60.3647" rx="0.963755" ry="0.955856" fill="#6C6CFF"/>
<ellipse cx="707.33" cy="60.3647" rx="0.963755" ry="0.955856" fill="#6C6CFF"/>
<ellipse cx="726.731" cy="60.3647" rx="0.963755" ry="0.955856" fill="#6C6CFF"/>
<ellipse cx="746.136" cy="60.3647" rx="0.963755" ry="0.955856" fill="#6C6CFF"/>
<ellipse cx="765.536" cy="60.3647" rx="0.963755" ry="0.955856" fill="#6C6CFF"/>
<ellipse cx="396.895" cy="79.608" rx="0.963755" ry="0.955856" fill="#6C6CFF"/>
<ellipse cx="416.299" cy="79.608" rx="0.963755" ry="0.955856" fill="#6C6CFF"/>
<ellipse cx="435.704" cy="79.608" rx="0.963755" ry="0.955856" fill="#6C6CFF"/>
<ellipse cx="455.102" cy="79.608" rx="0.963755" ry="0.955856" fill="#6C6CFF"/>
<ellipse cx="474.507" cy="79.608" rx="0.963755" ry="0.955856" fill="#6C6CFF"/>
<ellipse cx="493.907" cy="79.608" rx="0.963755" ry="0.955856" fill="#6C6CFF"/>
<ellipse cx="513.311" cy="79.608" rx="0.963755" ry="0.955856" fill="#6C6CFF"/>
<ellipse cx="532.709" cy="79.608" rx="0.963755" ry="0.955856" fill="#6C6CFF"/>
<ellipse cx="552.114" cy="79.608" rx="0.963755" ry="0.955856" fill="#6C6CFF"/>
<ellipse cx="571.516" cy="79.608" rx="0.963755" ry="0.955856" fill="#6C6CFF"/>
<ellipse cx="590.92" cy="79.608" rx="0.963755" ry="0.955856" fill="#6C6CFF"/>
<ellipse cx="610.32" cy="79.608" rx="0.963755" ry="0.955856" fill="#6C6CFF"/>
<ellipse cx="629.722" cy="79.608" rx="0.963755" ry="0.955856" fill="#6C6CFF"/>
<ellipse cx="649.123" cy="79.608" rx="0.963755" ry="0.955856" fill="#6C6CFF"/>
<ellipse cx="668.529" cy="79.608" rx="0.963755" ry="0.955856" fill="#6C6CFF"/>
<ellipse cx="687.927" cy="79.608" rx="0.963755" ry="0.955856" fill="#6C6CFF"/>
<ellipse cx="707.33" cy="79.608" rx="0.963755" ry="0.955856" fill="#6C6CFF"/>
<ellipse cx="726.731" cy="79.608" rx="0.963755" ry="0.955856" fill="#6C6CFF"/>
<ellipse cx="746.136" cy="79.608" rx="0.963755" ry="0.955856" fill="#6C6CFF"/>
<ellipse cx="765.536" cy="79.608" rx="0.963755" ry="0.955856" fill="#6C6CFF"/>
<ellipse cx="396.895" cy="98.8506" rx="0.963755" ry="0.955856" fill="#6C6CFF"/>
<ellipse cx="416.299" cy="98.8506" rx="0.963755" ry="0.955856" fill="#6C6CFF"/>
<ellipse cx="435.704" cy="98.8506" rx="0.963755" ry="0.955856" fill="#6C6CFF"/>
<ellipse cx="455.102" cy="98.8506" rx="0.963755" ry="0.955856" fill="#6C6CFF"/>
<ellipse cx="474.507" cy="98.8506" rx="0.963755" ry="0.955856" fill="#6C6CFF"/>
<ellipse cx="493.907" cy="98.8506" rx="0.963755" ry="0.955856" fill="#6C6CFF"/>
<ellipse cx="513.311" cy="98.8506" rx="0.963755" ry="0.955856" fill="#6C6CFF"/>
<ellipse cx="532.709" cy="98.8506" rx="0.963755" ry="0.955856" fill="#6C6CFF"/>
<ellipse cx="552.114" cy="98.8506" rx="0.963755" ry="0.955856" fill="#6C6CFF"/>
<ellipse cx="571.516" cy="98.8506" rx="0.963755" ry="0.955856" fill="#6C6CFF"/>
<ellipse cx="590.92" cy="98.8506" rx="0.963755" ry="0.955856" fill="#6C6CFF"/>
<ellipse cx="610.32" cy="98.8506" rx="0.963755" ry="0.955856" fill="#6C6CFF"/>
<ellipse cx="629.722" cy="98.8506" rx="0.963755" ry="0.955856" fill="#6C6CFF"/>
<ellipse cx="649.123" cy="98.8506" rx="0.963755" ry="0.955856" fill="#6C6CFF"/>
<ellipse cx="668.529" cy="98.8506" rx="0.963755" ry="0.955856" fill="#6C6CFF"/>
<ellipse cx="687.927" cy="98.8506" rx="0.963755" ry="0.955856" fill="#6C6CFF"/>
<ellipse cx="707.33" cy="98.8506" rx="0.963755" ry="0.955856" fill="#6C6CFF"/>
<ellipse cx="726.731" cy="98.8506" rx="0.963755" ry="0.955856" fill="#6C6CFF"/>
<ellipse cx="746.136" cy="98.8506" rx="0.963755" ry="0.955856" fill="#6C6CFF"/>
<ellipse cx="765.536" cy="98.8506" rx="0.963755" ry="0.955856" fill="#6C6CFF"/>
<ellipse cx="396.895" cy="118.093" rx="0.963755" ry="0.955856" fill="#6C6CFF"/>
<ellipse cx="416.299" cy="118.093" rx="0.963755" ry="0.955856" fill="#6C6CFF"/>
<ellipse cx="435.704" cy="118.093" rx="0.963755" ry="0.955856" fill="#6C6CFF"/>
<ellipse cx="455.102" cy="118.093" rx="0.963755" ry="0.955856" fill="#6C6CFF"/>
<ellipse cx="474.507" cy="118.093" rx="0.963755" ry="0.955856" fill="#6C6CFF"/>
<ellipse cx="493.907" cy="118.093" rx="0.963755" ry="0.955856" fill="#6C6CFF"/>
<ellipse cx="513.311" cy="118.093" rx="0.963755" ry="0.955856" fill="#6C6CFF"/>
<ellipse cx="532.709" cy="118.093" rx="0.963755" ry="0.955856" fill="#6C6CFF"/>
<ellipse cx="552.114" cy="118.093" rx="0.963755" ry="0.955856" fill="#6C6CFF"/>
<ellipse cx="571.516" cy="118.093" rx="0.963755" ry="0.955856" fill="#6C6CFF"/>
<ellipse cx="590.92" cy="118.093" rx="0.963755" ry="0.955856" fill="#6C6CFF"/>
<ellipse cx="610.32" cy="118.093" rx="0.963755" ry="0.955856" fill="#6C6CFF"/>
<ellipse cx="629.722" cy="118.093" rx="0.963755" ry="0.955856" fill="#6C6CFF"/>
<ellipse cx="649.123" cy="118.093" rx="0.963755" ry="0.955856" fill="#6C6CFF"/>
<ellipse cx="668.529" cy="118.093" rx="0.963755" ry="0.955856" fill="#6C6CFF"/>
<ellipse cx="687.927" cy="118.093" rx="0.963755" ry="0.955856" fill="#6C6CFF"/>
<ellipse cx="707.33" cy="118.093" rx="0.963755" ry="0.955856" fill="#6C6CFF"/>
<ellipse cx="726.731" cy="118.093" rx="0.963755" ry="0.955856" fill="#6C6CFF"/>
<ellipse cx="746.136" cy="118.093" rx="0.963755" ry="0.955856" fill="#6C6CFF"/>
<ellipse cx="765.536" cy="118.093" rx="0.963755" ry="0.955856" fill="#6C6CFF"/>
<ellipse cx="396.895" cy="137.337" rx="0.963755" ry="0.955856" fill="#6C6CFF"/>
<ellipse cx="416.299" cy="137.337" rx="0.963755" ry="0.955856" fill="#6C6CFF"/>
<ellipse cx="435.704" cy="137.337" rx="0.963755" ry="0.955856" fill="#6C6CFF"/>
<ellipse cx="455.102" cy="137.337" rx="0.963755" ry="0.955856" fill="#6C6CFF"/>
<ellipse cx="474.507" cy="137.337" rx="0.963755" ry="0.955856" fill="#6C6CFF"/>
<ellipse cx="493.907" cy="137.337" rx="0.963755" ry="0.955856" fill="#6C6CFF"/>
<ellipse cx="513.311" cy="137.337" rx="0.963755" ry="0.955856" fill="#6C6CFF"/>
<ellipse cx="532.709" cy="137.337" rx="0.963755" ry="0.955856" fill="#6C6CFF"/>
<ellipse cx="552.114" cy="137.337" rx="0.963755" ry="0.955856" fill="#6C6CFF"/>
<ellipse cx="571.516" cy="137.337" rx="0.963755" ry="0.955856" fill="#6C6CFF"/>
<ellipse cx="590.92" cy="137.337" rx="0.963755" ry="0.955856" fill="#6C6CFF"/>
<ellipse cx="610.32" cy="137.337" rx="0.963755" ry="0.955856" fill="#6C6CFF"/>
<ellipse cx="629.722" cy="137.337" rx="0.963755" ry="0.955856" fill="#6C6CFF"/>
<ellipse cx="649.123" cy="137.337" rx="0.963755" ry="0.955856" fill="#6C6CFF"/>
<ellipse cx="668.529" cy="137.337" rx="0.963755" ry="0.955856" fill="#6C6CFF"/>
<ellipse cx="687.927" cy="137.337" rx="0.963755" ry="0.955856" fill="#6C6CFF"/>
<ellipse cx="707.33" cy="137.337" rx="0.963755" ry="0.955856" fill="#6C6CFF"/>
<ellipse cx="726.731" cy="137.337" rx="0.963755" ry="0.955856" fill="#6C6CFF"/>
<ellipse cx="746.136" cy="137.337" rx="0.963755" ry="0.955856" fill="#6C6CFF"/>
<ellipse cx="765.536" cy="137.337" rx="0.963755" ry="0.955856" fill="#6C6CFF"/>
<ellipse cx="396.895" cy="156.58" rx="0.963755" ry="0.955856" fill="#6C6CFF"/>
<ellipse cx="416.299" cy="156.58" rx="0.963755" ry="0.955856" fill="#6C6CFF"/>
<ellipse cx="435.704" cy="156.58" rx="0.963755" ry="0.955856" fill="#6C6CFF"/>
<ellipse cx="455.102" cy="156.58" rx="0.963755" ry="0.955856" fill="#6C6CFF"/>
<ellipse cx="474.507" cy="156.58" rx="0.963755" ry="0.955856" fill="#6C6CFF"/>
<ellipse cx="493.907" cy="156.58" rx="0.963755" ry="0.955856" fill="#6C6CFF"/>
<ellipse cx="513.311" cy="156.58" rx="0.963755" ry="0.955856" fill="#6C6CFF"/>
<ellipse cx="532.709" cy="156.58" rx="0.963755" ry="0.955856" fill="#6C6CFF"/>
<ellipse cx="552.113" cy="156.58" rx="0.963755" ry="0.955856" fill="#6C6CFF"/>
<ellipse cx="571.516" cy="156.58" rx="0.963755" ry="0.955856" fill="#6C6CFF"/>
<ellipse cx="590.92" cy="156.58" rx="0.963755" ry="0.955856" fill="#6C6CFF"/>
<ellipse cx="610.32" cy="156.58" rx="0.963755" ry="0.955856" fill="#6C6CFF"/>
<ellipse cx="629.722" cy="156.58" rx="0.963755" ry="0.955856" fill="#6C6CFF"/>
<ellipse cx="649.123" cy="156.58" rx="0.963755" ry="0.955856" fill="#6C6CFF"/>
<ellipse cx="668.529" cy="156.58" rx="0.963755" ry="0.955856" fill="#6C6CFF"/>
<ellipse cx="687.927" cy="156.58" rx="0.963755" ry="0.955856" fill="#6C6CFF"/>
<ellipse cx="707.33" cy="156.58" rx="0.963755" ry="0.955856" fill="#6C6CFF"/>
<ellipse cx="726.731" cy="156.58" rx="0.963755" ry="0.955856" fill="#6C6CFF"/>
<ellipse cx="746.136" cy="156.58" rx="0.963755" ry="0.955856" fill="#6C6CFF"/>
<ellipse cx="765.536" cy="156.58" rx="0.963755" ry="0.955856" fill="#6C6CFF"/>
<ellipse cx="396.895" cy="175.823" rx="0.963755" ry="0.955856" fill="#6C6CFF"/>
<ellipse cx="416.299" cy="175.823" rx="0.963755" ry="0.955856" fill="#6C6CFF"/>
<ellipse cx="435.704" cy="175.823" rx="0.963755" ry="0.955856" fill="#6C6CFF"/>
<ellipse cx="455.102" cy="175.823" rx="0.963755" ry="0.955856" fill="#6C6CFF"/>
<ellipse cx="474.507" cy="175.823" rx="0.963755" ry="0.955856" fill="#6C6CFF"/>
<ellipse cx="493.907" cy="175.823" rx="0.963755" ry="0.955856" fill="#6C6CFF"/>
<ellipse cx="513.311" cy="175.823" rx="0.963755" ry="0.955856" fill="#6C6CFF"/>
<ellipse cx="532.709" cy="175.823" rx="0.963755" ry="0.955856" fill="#6C6CFF"/>
<ellipse cx="552.113" cy="175.823" rx="0.963755" ry="0.955856" fill="#6C6CFF"/>
<ellipse cx="571.516" cy="175.823" rx="0.963755" ry="0.955856" fill="#6C6CFF"/>
<ellipse cx="590.92" cy="175.823" rx="0.963755" ry="0.955856" fill="#6C6CFF"/>
<ellipse cx="610.32" cy="175.823" rx="0.963755" ry="0.955856" fill="#6C6CFF"/>
<ellipse cx="629.722" cy="175.823" rx="0.963755" ry="0.955856" fill="#6C6CFF"/>
<ellipse cx="649.123" cy="175.823" rx="0.963755" ry="0.955856" fill="#6C6CFF"/>
<ellipse cx="668.529" cy="175.823" rx="0.963755" ry="0.955856" fill="#6C6CFF"/>
<ellipse cx="687.927" cy="175.823" rx="0.963755" ry="0.955856" fill="#6C6CFF"/>
<ellipse cx="707.33" cy="175.823" rx="0.963755" ry="0.955856" fill="#6C6CFF"/>
<ellipse cx="726.731" cy="175.823" rx="0.963755" ry="0.955856" fill="#6C6CFF"/>
<ellipse cx="746.136" cy="175.823" rx="0.963755" ry="0.955856" fill="#6C6CFF"/>
<ellipse cx="765.536" cy="175.823" rx="0.963755" ry="0.955856" fill="#6C6CFF"/>
<ellipse cx="396.895" cy="195.066" rx="0.963755" ry="0.955856" fill="#6C6CFF"/>
<ellipse cx="416.299" cy="195.066" rx="0.963755" ry="0.955856" fill="#6C6CFF"/>
<ellipse cx="435.704" cy="195.066" rx="0.963755" ry="0.955856" fill="#6C6CFF"/>
<ellipse cx="455.102" cy="195.066" rx="0.963755" ry="0.955856" fill="#6C6CFF"/>
<ellipse cx="474.507" cy="195.066" rx="0.963755" ry="0.955856" fill="#6C6CFF"/>
<ellipse cx="493.907" cy="195.066" rx="0.963755" ry="0.955856" fill="#6C6CFF"/>
<ellipse cx="513.311" cy="195.066" rx="0.963755" ry="0.955856" fill="#6C6CFF"/>
<ellipse cx="532.709" cy="195.066" rx="0.963755" ry="0.955856" fill="#6C6CFF"/>
<ellipse cx="552.113" cy="195.066" rx="0.963755" ry="0.955856" fill="#6C6CFF"/>
<ellipse cx="571.516" cy="195.066" rx="0.963755" ry="0.955856" fill="#6C6CFF"/>
<ellipse cx="590.92" cy="195.066" rx="0.963755" ry="0.955856" fill="#6C6CFF"/>
<ellipse cx="610.32" cy="195.066" rx="0.963755" ry="0.955856" fill="#6C6CFF"/>
<ellipse cx="629.722" cy="195.066" rx="0.963755" ry="0.955856" fill="#6C6CFF"/>
<ellipse cx="649.123" cy="195.066" rx="0.963755" ry="0.955856" fill="#6C6CFF"/>
<ellipse cx="668.529" cy="195.066" rx="0.963755" ry="0.955856" fill="#6C6CFF"/>
<ellipse cx="687.927" cy="195.066" rx="0.963755" ry="0.955856" fill="#6C6CFF"/>
<ellipse cx="707.33" cy="195.066" rx="0.963755" ry="0.955856" fill="#6C6CFF"/>
<ellipse cx="726.731" cy="195.066" rx="0.963755" ry="0.955856" fill="#6C6CFF"/>
<ellipse cx="746.136" cy="195.066" rx="0.963755" ry="0.955856" fill="#6C6CFF"/>
<ellipse cx="765.536" cy="195.066" rx="0.963755" ry="0.955856" fill="#6C6CFF"/>
<ellipse cx="396.895" cy="214.31" rx="0.963755" ry="0.955856" fill="#6C6CFF"/>
<ellipse cx="416.299" cy="214.31" rx="0.963755" ry="0.955856" fill="#6C6CFF"/>
<ellipse cx="435.704" cy="214.31" rx="0.963755" ry="0.955856" fill="#6C6CFF"/>
<ellipse cx="455.102" cy="214.31" rx="0.963755" ry="0.955856" fill="#6C6CFF"/>
<ellipse cx="474.507" cy="214.31" rx="0.963755" ry="0.955856" fill="#6C6CFF"/>
<ellipse cx="493.907" cy="214.31" rx="0.963755" ry="0.955856" fill="#6C6CFF"/>
<ellipse cx="513.311" cy="214.31" rx="0.963755" ry="0.955856" fill="#6C6CFF"/>
<ellipse cx="532.709" cy="214.31" rx="0.963755" ry="0.955856" fill="#6C6CFF"/>
<ellipse cx="552.113" cy="214.31" rx="0.963755" ry="0.955856" fill="#6C6CFF"/>
<ellipse cx="571.516" cy="214.31" rx="0.963755" ry="0.955856" fill="#6C6CFF"/>
<ellipse cx="590.92" cy="214.31" rx="0.963755" ry="0.955856" fill="#6C6CFF"/>
<ellipse cx="610.32" cy="214.31" rx="0.963755" ry="0.955856" fill="#6C6CFF"/>
<ellipse cx="629.722" cy="214.31" rx="0.963755" ry="0.955856" fill="#6C6CFF"/>
<ellipse cx="649.123" cy="214.31" rx="0.963755" ry="0.955856" fill="#6C6CFF"/>
<ellipse cx="668.529" cy="214.31" rx="0.963755" ry="0.955856" fill="#6C6CFF"/>
<ellipse cx="687.927" cy="214.31" rx="0.963755" ry="0.955856" fill="#6C6CFF"/>
<ellipse cx="707.33" cy="214.31" rx="0.963755" ry="0.955856" fill="#6C6CFF"/>
<ellipse cx="726.731" cy="214.31" rx="0.963755" ry="0.955856" fill="#6C6CFF"/>
<ellipse cx="746.136" cy="214.31" rx="0.963755" ry="0.955856" fill="#6C6CFF"/>
<ellipse cx="765.536" cy="214.31" rx="0.963755" ry="0.955856" fill="#6C6CFF"/>
<ellipse cx="396.895" cy="233.552" rx="0.963755" ry="0.955856" fill="#6C6CFF"/>
<ellipse cx="416.299" cy="233.552" rx="0.963755" ry="0.955856" fill="#6C6CFF"/>
<ellipse cx="435.704" cy="233.552" rx="0.963755" ry="0.955856" fill="#6C6CFF"/>
<ellipse cx="455.102" cy="233.552" rx="0.963755" ry="0.955856" fill="#6C6CFF"/>
<ellipse cx="474.507" cy="233.552" rx="0.963755" ry="0.955856" fill="#6C6CFF"/>
<ellipse cx="493.907" cy="233.552" rx="0.963755" ry="0.955856" fill="#6C6CFF"/>
<ellipse cx="513.311" cy="233.552" rx="0.963755" ry="0.955856" fill="#6C6CFF"/>
<ellipse cx="532.709" cy="233.552" rx="0.963755" ry="0.955856" fill="#6C6CFF"/>
<ellipse cx="552.113" cy="233.552" rx="0.963755" ry="0.955856" fill="#6C6CFF"/>
<ellipse cx="571.516" cy="233.552" rx="0.963755" ry="0.955856" fill="#6C6CFF"/>
<ellipse cx="590.92" cy="233.552" rx="0.963755" ry="0.955856" fill="#6C6CFF"/>
<ellipse cx="610.32" cy="233.552" rx="0.963755" ry="0.955856" fill="#6C6CFF"/>
<ellipse cx="629.722" cy="233.552" rx="0.963755" ry="0.955856" fill="#6C6CFF"/>
<ellipse cx="649.123" cy="233.552" rx="0.963755" ry="0.955856" fill="#6C6CFF"/>
<ellipse cx="668.529" cy="233.552" rx="0.963755" ry="0.955856" fill="#6C6CFF"/>
<ellipse cx="687.927" cy="233.552" rx="0.963755" ry="0.955856" fill="#6C6CFF"/>
<ellipse cx="707.33" cy="233.552" rx="0.963755" ry="0.955856" fill="#6C6CFF"/>
<ellipse cx="726.731" cy="233.552" rx="0.963755" ry="0.955856" fill="#6C6CFF"/>
<ellipse cx="746.136" cy="233.552" rx="0.963755" ry="0.955856" fill="#6C6CFF"/>
<ellipse cx="765.536" cy="233.552" rx="0.963755" ry="0.955856" fill="#6C6CFF"/>
<ellipse cx="396.895" cy="252.794" rx="0.963755" ry="0.955856" fill="#6C6CFF"/>
<ellipse cx="416.299" cy="252.794" rx="0.963755" ry="0.955856" fill="#6C6CFF"/>
<ellipse cx="435.704" cy="252.794" rx="0.963755" ry="0.955856" fill="#6C6CFF"/>
<ellipse cx="455.102" cy="252.794" rx="0.963755" ry="0.955856" fill="#6C6CFF"/>
<ellipse cx="474.507" cy="252.794" rx="0.963755" ry="0.955856" fill="#6C6CFF"/>
<ellipse cx="493.907" cy="252.794" rx="0.963755" ry="0.955856" fill="#6C6CFF"/>
<ellipse cx="513.311" cy="252.794" rx="0.963755" ry="0.955856" fill="#6C6CFF"/>
<ellipse cx="532.709" cy="252.794" rx="0.963755" ry="0.955856" fill="#6C6CFF"/>
<ellipse cx="552.113" cy="252.794" rx="0.963755" ry="0.955856" fill="#6C6CFF"/>
<ellipse cx="571.516" cy="252.794" rx="0.963755" ry="0.955856" fill="#6C6CFF"/>
<ellipse cx="590.92" cy="252.794" rx="0.963755" ry="0.955856" fill="#6C6CFF"/>
<ellipse cx="610.32" cy="252.794" rx="0.963755" ry="0.955856" fill="#6C6CFF"/>
<ellipse cx="629.722" cy="252.794" rx="0.963755" ry="0.955856" fill="#6C6CFF"/>
<ellipse cx="649.123" cy="252.794" rx="0.963755" ry="0.955856" fill="#6C6CFF"/>
<ellipse cx="668.529" cy="252.794" rx="0.963755" ry="0.955856" fill="#6C6CFF"/>
<ellipse cx="687.927" cy="252.794" rx="0.963755" ry="0.955856" fill="#6C6CFF"/>
<ellipse cx="707.33" cy="252.794" rx="0.963755" ry="0.955856" fill="#6C6CFF"/>
<ellipse cx="726.731" cy="252.794" rx="0.963755" ry="0.955856" fill="#6C6CFF"/>
<ellipse cx="746.136" cy="252.794" rx="0.963755" ry="0.955856" fill="#6C6CFF"/>
<ellipse cx="765.536" cy="252.794" rx="0.963755" ry="0.955856" fill="#6C6CFF"/>
</g>
<g opacity="0.24">
<ellipse cx="784.464" cy="2.63466" rx="0.963755" ry="0.955856" fill="#6C6CFF"/>
<ellipse cx="803.867" cy="2.63466" rx="0.963755" ry="0.955856" fill="#6C6CFF"/>
<ellipse cx="823.272" cy="2.63466" rx="0.963755" ry="0.955856" fill="#6C6CFF"/>
<ellipse cx="842.671" cy="2.63466" rx="0.963755" ry="0.955856" fill="#6C6CFF"/>
<ellipse cx="862.075" cy="2.63466" rx="0.963755" ry="0.955856" fill="#6C6CFF"/>
<ellipse cx="881.475" cy="2.63466" rx="0.963755" ry="0.955856" fill="#6C6CFF"/>
<ellipse cx="900.88" cy="2.63466" rx="0.963755" ry="0.955856" fill="#6C6CFF"/>
<ellipse cx="920.277" cy="2.63466" rx="0.963755" ry="0.955856" fill="#6C6CFF"/>
<ellipse cx="939.682" cy="2.63466" rx="0.963755" ry="0.955856" fill="#6C6CFF"/>
<ellipse cx="959.085" cy="2.63466" rx="0.963755" ry="0.955856" fill="#6C6CFF"/>
<ellipse cx="978.488" cy="2.63466" rx="0.963755" ry="0.955856" fill="#6C6CFF"/>
<ellipse cx="997.889" cy="2.63466" rx="0.963755" ry="0.955856" fill="#6C6CFF"/>
<ellipse cx="1017.29" cy="2.63466" rx="0.963755" ry="0.955856" fill="#6C6CFF"/>
<ellipse cx="1036.69" cy="2.63466" rx="0.963755" ry="0.955856" fill="#6C6CFF"/>
<ellipse cx="1056.1" cy="2.63466" rx="0.963755" ry="0.955856" fill="#6C6CFF"/>
<ellipse cx="1075.49" cy="2.63466" rx="0.963755" ry="0.955856" fill="#6C6CFF"/>
<ellipse cx="1094.9" cy="2.63466" rx="0.963755" ry="0.955856" fill="#6C6CFF"/>
<ellipse cx="1114.3" cy="2.63466" rx="0.963755" ry="0.955856" fill="#6C6CFF"/>
<ellipse cx="1133.7" cy="2.63466" rx="0.963755" ry="0.955856" fill="#6C6CFF"/>
<ellipse cx="784.464" cy="21.8779" rx="0.963755" ry="0.955856" fill="#6C6CFF"/>
<ellipse cx="803.867" cy="21.8779" rx="0.963755" ry="0.955856" fill="#6C6CFF"/>
<ellipse cx="823.272" cy="21.8779" rx="0.963755" ry="0.955856" fill="#6C6CFF"/>
<ellipse cx="842.671" cy="21.8779" rx="0.963755" ry="0.955856" fill="#6C6CFF"/>
<ellipse cx="862.075" cy="21.8779" rx="0.963755" ry="0.955856" fill="#6C6CFF"/>
<ellipse cx="881.475" cy="21.8779" rx="0.963755" ry="0.955856" fill="#6C6CFF"/>
<ellipse cx="900.88" cy="21.8779" rx="0.963755" ry="0.955856" fill="#6C6CFF"/>
<ellipse cx="920.277" cy="21.8779" rx="0.963755" ry="0.955856" fill="#6C6CFF"/>
<ellipse cx="939.682" cy="21.8779" rx="0.963755" ry="0.955856" fill="#6C6CFF"/>
<ellipse cx="959.085" cy="21.8779" rx="0.963755" ry="0.955856" fill="#6C6CFF"/>
<ellipse cx="978.488" cy="21.8779" rx="0.963755" ry="0.955856" fill="#6C6CFF"/>
<ellipse cx="997.889" cy="21.8779" rx="0.963755" ry="0.955856" fill="#6C6CFF"/>
<ellipse cx="1017.29" cy="21.8779" rx="0.963755" ry="0.955856" fill="#6C6CFF"/>
<ellipse cx="1036.69" cy="21.8779" rx="0.963755" ry="0.955856" fill="#6C6CFF"/>
<ellipse cx="1056.1" cy="21.8779" rx="0.963755" ry="0.955856" fill="#6C6CFF"/>
<ellipse cx="1075.49" cy="21.8779" rx="0.963755" ry="0.955856" fill="#6C6CFF"/>
<ellipse cx="1094.9" cy="21.8779" rx="0.963755" ry="0.955856" fill="#6C6CFF"/>
<ellipse cx="1114.3" cy="21.8779" rx="0.963755" ry="0.955856" fill="#6C6CFF"/>
<ellipse cx="1133.7" cy="21.8779" rx="0.963755" ry="0.955856" fill="#6C6CFF"/>
<ellipse cx="784.464" cy="41.1209" rx="0.963755" ry="0.955856" fill="#6C6CFF"/>
<ellipse cx="803.867" cy="41.1209" rx="0.963755" ry="0.955856" fill="#6C6CFF"/>
<ellipse cx="823.272" cy="41.1209" rx="0.963755" ry="0.955856" fill="#6C6CFF"/>
<ellipse cx="842.671" cy="41.1209" rx="0.963755" ry="0.955856" fill="#6C6CFF"/>
<ellipse cx="862.075" cy="41.1209" rx="0.963755" ry="0.955856" fill="#6C6CFF"/>
<ellipse cx="881.475" cy="41.1209" rx="0.963755" ry="0.955856" fill="#6C6CFF"/>
<ellipse cx="900.88" cy="41.1209" rx="0.963755" ry="0.955856" fill="#6C6CFF"/>
<ellipse cx="920.277" cy="41.1209" rx="0.963755" ry="0.955856" fill="#6C6CFF"/>
<ellipse cx="939.682" cy="41.1209" rx="0.963755" ry="0.955856" fill="#6C6CFF"/>
<ellipse cx="959.085" cy="41.1209" rx="0.963755" ry="0.955856" fill="#6C6CFF"/>
<ellipse cx="978.488" cy="41.1209" rx="0.963755" ry="0.955856" fill="#6C6CFF"/>
<ellipse cx="997.889" cy="41.1209" rx="0.963755" ry="0.955856" fill="#6C6CFF"/>
<ellipse cx="1017.29" cy="41.1209" rx="0.963755" ry="0.955856" fill="#6C6CFF"/>
<ellipse cx="1036.69" cy="41.1209" rx="0.963755" ry="0.955856" fill="#6C6CFF"/>
<ellipse cx="1056.1" cy="41.1209" rx="0.963755" ry="0.955856" fill="#6C6CFF"/>
<ellipse cx="1075.49" cy="41.1209" rx="0.963755" ry="0.955856" fill="#6C6CFF"/>
<ellipse cx="1094.9" cy="41.1209" rx="0.963755" ry="0.955856" fill="#6C6CFF"/>
<ellipse cx="1114.3" cy="41.1209" rx="0.963755" ry="0.955856" fill="#6C6CFF"/>
<ellipse cx="1133.7" cy="41.1209" rx="0.963755" ry="0.955856" fill="#6C6CFF"/>
<ellipse cx="784.464" cy="60.3645" rx="0.963755" ry="0.955856" fill="#6C6CFF"/>
<ellipse cx="803.867" cy="60.3645" rx="0.963755" ry="0.955856" fill="#6C6CFF"/>
<ellipse cx="823.272" cy="60.3645" rx="0.963755" ry="0.955856" fill="#6C6CFF"/>
<ellipse cx="842.671" cy="60.3645" rx="0.963755" ry="0.955856" fill="#6C6CFF"/>
<ellipse cx="862.075" cy="60.3645" rx="0.963755" ry="0.955856" fill="#6C6CFF"/>
<ellipse cx="881.475" cy="60.3645" rx="0.963755" ry="0.955856" fill="#6C6CFF"/>
<ellipse cx="900.88" cy="60.3645" rx="0.963755" ry="0.955856" fill="#6C6CFF"/>
<ellipse cx="920.277" cy="60.3645" rx="0.963755" ry="0.955856" fill="#6C6CFF"/>
<ellipse cx="939.682" cy="60.3645" rx="0.963755" ry="0.955856" fill="#6C6CFF"/>
<ellipse cx="959.085" cy="60.3645" rx="0.963755" ry="0.955856" fill="#6C6CFF"/>
<ellipse cx="978.488" cy="60.3645" rx="0.963755" ry="0.955856" fill="#6C6CFF"/>
<ellipse cx="997.889" cy="60.3645" rx="0.963755" ry="0.955856" fill="#6C6CFF"/>
<ellipse cx="1017.29" cy="60.3645" rx="0.963755" ry="0.955856" fill="#6C6CFF"/>
<ellipse cx="1036.69" cy="60.3645" rx="0.963755" ry="0.955856" fill="#6C6CFF"/>
<ellipse cx="1056.1" cy="60.3645" rx="0.963755" ry="0.955856" fill="#6C6CFF"/>
<ellipse cx="1075.49" cy="60.3645" rx="0.963755" ry="0.955856" fill="#6C6CFF"/>
<ellipse cx="1094.9" cy="60.3645" rx="0.963755" ry="0.955856" fill="#6C6CFF"/>
<ellipse cx="1114.3" cy="60.3645" rx="0.963755" ry="0.955856" fill="#6C6CFF"/>
<ellipse cx="1133.7" cy="60.3645" rx="0.963755" ry="0.955856" fill="#6C6CFF"/>
<ellipse cx="784.464" cy="79.6079" rx="0.963755" ry="0.955856" fill="#6C6CFF"/>
<ellipse cx="803.867" cy="79.6079" rx="0.963755" ry="0.955856" fill="#6C6CFF"/>
<ellipse cx="823.272" cy="79.6079" rx="0.963755" ry="0.955856" fill="#6C6CFF"/>
<ellipse cx="842.671" cy="79.6079" rx="0.963755" ry="0.955856" fill="#6C6CFF"/>
<ellipse cx="862.075" cy="79.6079" rx="0.963755" ry="0.955856" fill="#6C6CFF"/>
<ellipse cx="881.475" cy="79.6079" rx="0.963755" ry="0.955856" fill="#6C6CFF"/>
<ellipse cx="900.88" cy="79.6079" rx="0.963755" ry="0.955856" fill="#6C6CFF"/>
<ellipse cx="920.277" cy="79.6079" rx="0.963755" ry="0.955856" fill="#6C6CFF"/>
<ellipse cx="939.682" cy="79.6079" rx="0.963755" ry="0.955856" fill="#6C6CFF"/>
<ellipse cx="959.085" cy="79.6079" rx="0.963755" ry="0.955856" fill="#6C6CFF"/>
<ellipse cx="978.488" cy="79.6079" rx="0.963755" ry="0.955856" fill="#6C6CFF"/>
<ellipse cx="997.889" cy="79.6079" rx="0.963755" ry="0.955856" fill="#6C6CFF"/>
<ellipse cx="1017.29" cy="79.6079" rx="0.963755" ry="0.955856" fill="#6C6CFF"/>
<ellipse cx="1036.69" cy="79.6079" rx="0.963755" ry="0.955856" fill="#6C6CFF"/>
<ellipse cx="1056.1" cy="79.6079" rx="0.963755" ry="0.955856" fill="#6C6CFF"/>
<ellipse cx="1075.49" cy="79.6079" rx="0.963755" ry="0.955856" fill="#6C6CFF"/>
<ellipse cx="1094.9" cy="79.6079" rx="0.963755" ry="0.955856" fill="#6C6CFF"/>
<ellipse cx="1114.3" cy="79.6079" rx="0.963755" ry="0.955856" fill="#6C6CFF"/>
<ellipse cx="1133.7" cy="79.6079" rx="0.963755" ry="0.955856" fill="#6C6CFF"/>
<ellipse cx="784.464" cy="98.8504" rx="0.963755" ry="0.955856" fill="#6C6CFF"/>
<ellipse cx="803.867" cy="98.8504" rx="0.963755" ry="0.955856" fill="#6C6CFF"/>
<ellipse cx="823.272" cy="98.8504" rx="0.963755" ry="0.955856" fill="#6C6CFF"/>
<ellipse cx="842.671" cy="98.8504" rx="0.963755" ry="0.955856" fill="#6C6CFF"/>
<ellipse cx="862.075" cy="98.8504" rx="0.963755" ry="0.955856" fill="#6C6CFF"/>
<ellipse cx="881.475" cy="98.8504" rx="0.963755" ry="0.955856" fill="#6C6CFF"/>
<ellipse cx="900.88" cy="98.8504" rx="0.963755" ry="0.955856" fill="#6C6CFF"/>
<ellipse cx="920.277" cy="98.8504" rx="0.963755" ry="0.955856" fill="#6C6CFF"/>
<ellipse cx="939.682" cy="98.8504" rx="0.963755" ry="0.955856" fill="#6C6CFF"/>
<ellipse cx="959.085" cy="98.8504" rx="0.963755" ry="0.955856" fill="#6C6CFF"/>
<ellipse cx="978.488" cy="98.8504" rx="0.963755" ry="0.955856" fill="#6C6CFF"/>
<ellipse cx="997.889" cy="98.8504" rx="0.963755" ry="0.955856" fill="#6C6CFF"/>
<ellipse cx="1017.29" cy="98.8504" rx="0.963755" ry="0.955856" fill="#6C6CFF"/>
<ellipse cx="1036.69" cy="98.8504" rx="0.963755" ry="0.955856" fill="#6C6CFF"/>
<ellipse cx="1056.1" cy="98.8504" rx="0.963755" ry="0.955856" fill="#6C6CFF"/>
<ellipse cx="1075.49" cy="98.8504" rx="0.963755" ry="0.955856" fill="#6C6CFF"/>
<ellipse cx="1094.9" cy="98.8504" rx="0.963755" ry="0.955856" fill="#6C6CFF"/>
<ellipse cx="1114.3" cy="98.8504" rx="0.963755" ry="0.955856" fill="#6C6CFF"/>
<ellipse cx="1133.7" cy="98.8504" rx="0.963755" ry="0.955856" fill="#6C6CFF"/>
<ellipse cx="784.464" cy="118.093" rx="0.963755" ry="0.955856" fill="#6C6CFF"/>
<ellipse cx="803.867" cy="118.093" rx="0.963755" ry="0.955856" fill="#6C6CFF"/>
<ellipse cx="823.272" cy="118.093" rx="0.963755" ry="0.955856" fill="#6C6CFF"/>
<ellipse cx="842.671" cy="118.093" rx="0.963755" ry="0.955856" fill="#6C6CFF"/>
<ellipse cx="862.075" cy="118.093" rx="0.963755" ry="0.955856" fill="#6C6CFF"/>
<ellipse cx="881.475" cy="118.093" rx="0.963755" ry="0.955856" fill="#6C6CFF"/>
<ellipse cx="900.88" cy="118.093" rx="0.963755" ry="0.955856" fill="#6C6CFF"/>
<ellipse cx="920.277" cy="118.093" rx="0.963755" ry="0.955856" fill="#6C6CFF"/>
<ellipse cx="939.682" cy="118.093" rx="0.963755" ry="0.955856" fill="#6C6CFF"/>
<ellipse cx="959.085" cy="118.093" rx="0.963755" ry="0.955856" fill="#6C6CFF"/>
<ellipse cx="978.488" cy="118.093" rx="0.963755" ry="0.955856" fill="#6C6CFF"/>
<ellipse cx="997.889" cy="118.093" rx="0.963755" ry="0.955856" fill="#6C6CFF"/>
<ellipse cx="1017.29" cy="118.093" rx="0.963755" ry="0.955856" fill="#6C6CFF"/>
<ellipse cx="1036.69" cy="118.093" rx="0.963755" ry="0.955856" fill="#6C6CFF"/>
<ellipse cx="1056.1" cy="118.093" rx="0.963755" ry="0.955856" fill="#6C6CFF"/>
<ellipse cx="1075.49" cy="118.093" rx="0.963755" ry="0.955856" fill="#6C6CFF"/>
<ellipse cx="1094.9" cy="118.093" rx="0.963755" ry="0.955856" fill="#6C6CFF"/>
<ellipse cx="1114.3" cy="118.093" rx="0.963755" ry="0.955856" fill="#6C6CFF"/>
<ellipse cx="1133.7" cy="118.093" rx="0.963755" ry="0.955856" fill="#6C6CFF"/>
<ellipse cx="784.464" cy="137.337" rx="0.963755" ry="0.955856" fill="#6C6CFF"/>
<ellipse cx="803.867" cy="137.337" rx="0.963755" ry="0.955856" fill="#6C6CFF"/>
<ellipse cx="823.272" cy="137.337" rx="0.963755" ry="0.955856" fill="#6C6CFF"/>
<ellipse cx="842.671" cy="137.337" rx="0.963755" ry="0.955856" fill="#6C6CFF"/>
<ellipse cx="862.075" cy="137.337" rx="0.963755" ry="0.955856" fill="#6C6CFF"/>
<ellipse cx="881.475" cy="137.337" rx="0.963755" ry="0.955856" fill="#6C6CFF"/>
<ellipse cx="900.88" cy="137.337" rx="0.963755" ry="0.955856" fill="#6C6CFF"/>
<ellipse cx="920.277" cy="137.337" rx="0.963755" ry="0.955856" fill="#6C6CFF"/>
<ellipse cx="939.682" cy="137.337" rx="0.963755" ry="0.955856" fill="#6C6CFF"/>
<ellipse cx="959.085" cy="137.337" rx="0.963755" ry="0.955856" fill="#6C6CFF"/>
<ellipse cx="978.488" cy="137.337" rx="0.963755" ry="0.955856" fill="#6C6CFF"/>
<ellipse cx="997.889" cy="137.337" rx="0.963755" ry="0.955856" fill="#6C6CFF"/>
<ellipse cx="1017.29" cy="137.337" rx="0.963755" ry="0.955856" fill="#6C6CFF"/>
<ellipse cx="1036.69" cy="137.337" rx="0.963755" ry="0.955856" fill="#6C6CFF"/>
<ellipse cx="1056.1" cy="137.337" rx="0.963755" ry="0.955856" fill="#6C6CFF"/>
<ellipse cx="1075.49" cy="137.337" rx="0.963755" ry="0.955856" fill="#6C6CFF"/>
<ellipse cx="1094.9" cy="137.337" rx="0.963755" ry="0.955856" fill="#6C6CFF"/>
<ellipse cx="1114.3" cy="137.337" rx="0.963755" ry="0.955856" fill="#6C6CFF"/>
<ellipse cx="1133.7" cy="137.337" rx="0.963755" ry="0.955856" fill="#6C6CFF"/>
<ellipse cx="784.464" cy="156.58" rx="0.963755" ry="0.955856" fill="#6C6CFF"/>
<ellipse cx="803.867" cy="156.58" rx="0.963755" ry="0.955856" fill="#6C6CFF"/>
<ellipse cx="823.272" cy="156.58" rx="0.963755" ry="0.955856" fill="#6C6CFF"/>
<ellipse cx="842.671" cy="156.58" rx="0.963755" ry="0.955856" fill="#6C6CFF"/>
<ellipse cx="862.075" cy="156.58" rx="0.963755" ry="0.955856" fill="#6C6CFF"/>
<ellipse cx="881.475" cy="156.58" rx="0.963755" ry="0.955856" fill="#6C6CFF"/>
<ellipse cx="900.88" cy="156.58" rx="0.963755" ry="0.955856" fill="#6C6CFF"/>
<ellipse cx="920.277" cy="156.58" rx="0.963755" ry="0.955856" fill="#6C6CFF"/>
<ellipse cx="939.682" cy="156.58" rx="0.963755" ry="0.955856" fill="#6C6CFF"/>
<ellipse cx="959.085" cy="156.58" rx="0.963755" ry="0.955856" fill="#6C6CFF"/>
<ellipse cx="978.488" cy="156.58" rx="0.963755" ry="0.955856" fill="#6C6CFF"/>
<ellipse cx="997.889" cy="156.58" rx="0.963755" ry="0.955856" fill="#6C6CFF"/>
<ellipse cx="1017.29" cy="156.58" rx="0.963755" ry="0.955856" fill="#6C6CFF"/>
<ellipse cx="1036.69" cy="156.58" rx="0.963755" ry="0.955856" fill="#6C6CFF"/>
<ellipse cx="1056.1" cy="156.58" rx="0.963755" ry="0.955856" fill="#6C6CFF"/>
<ellipse cx="1075.49" cy="156.58" rx="0.963755" ry="0.955856" fill="#6C6CFF"/>
<ellipse cx="1094.9" cy="156.58" rx="0.963755" ry="0.955856" fill="#6C6CFF"/>
<ellipse cx="1114.3" cy="156.58" rx="0.963755" ry="0.955856" fill="#6C6CFF"/>
<ellipse cx="1133.7" cy="156.58" rx="0.963755" ry="0.955856" fill="#6C6CFF"/>
<ellipse cx="784.464" cy="175.823" rx="0.963755" ry="0.955856" fill="#6C6CFF"/>
<ellipse cx="803.867" cy="175.823" rx="0.963755" ry="0.955856" fill="#6C6CFF"/>
<ellipse cx="823.272" cy="175.823" rx="0.963755" ry="0.955856" fill="#6C6CFF"/>
<ellipse cx="842.671" cy="175.823" rx="0.963755" ry="0.955856" fill="#6C6CFF"/>
<ellipse cx="862.075" cy="175.823" rx="0.963755" ry="0.955856" fill="#6C6CFF"/>
<ellipse cx="881.475" cy="175.823" rx="0.963755" ry="0.955856" fill="#6C6CFF"/>
<ellipse cx="900.88" cy="175.823" rx="0.963755" ry="0.955856" fill="#6C6CFF"/>
<ellipse cx="920.277" cy="175.823" rx="0.963755" ry="0.955856" fill="#6C6CFF"/>
<ellipse cx="939.682" cy="175.823" rx="0.963755" ry="0.955856" fill="#6C6CFF"/>
<ellipse cx="959.085" cy="175.823" rx="0.963755" ry="0.955856" fill="#6C6CFF"/>
<ellipse cx="978.488" cy="175.823" rx="0.963755" ry="0.955856" fill="#6C6CFF"/>
<ellipse cx="997.889" cy="175.823" rx="0.963755" ry="0.955856" fill="#6C6CFF"/>
<ellipse cx="1017.29" cy="175.823" rx="0.963755" ry="0.955856" fill="#6C6CFF"/>
<ellipse cx="1036.69" cy="175.823" rx="0.963755" ry="0.955856" fill="#6C6CFF"/>
<ellipse cx="1056.1" cy="175.823" rx="0.963755" ry="0.955856" fill="#6C6CFF"/>
<ellipse cx="1075.49" cy="175.823" rx="0.963755" ry="0.955856" fill="#6C6CFF"/>
<ellipse cx="1094.9" cy="175.823" rx="0.963755" ry="0.955856" fill="#6C6CFF"/>
<ellipse cx="1114.3" cy="175.823" rx="0.963755" ry="0.955856" fill="#6C6CFF"/>
<ellipse cx="1133.7" cy="175.823" rx="0.963755" ry="0.955856" fill="#6C6CFF"/>
<ellipse cx="784.464" cy="195.066" rx="0.963755" ry="0.955856" fill="#6C6CFF"/>
<ellipse cx="803.867" cy="195.066" rx="0.963755" ry="0.955856" fill="#6C6CFF"/>
<ellipse cx="823.272" cy="195.066" rx="0.963755" ry="0.955856" fill="#6C6CFF"/>
<ellipse cx="842.671" cy="195.066" rx="0.963755" ry="0.955856" fill="#6C6CFF"/>
<ellipse cx="862.075" cy="195.066" rx="0.963755" ry="0.955856" fill="#6C6CFF"/>
<ellipse cx="881.475" cy="195.066" rx="0.963755" ry="0.955856" fill="#6C6CFF"/>
<ellipse cx="900.88" cy="195.066" rx="0.963755" ry="0.955856" fill="#6C6CFF"/>
<ellipse cx="920.277" cy="195.066" rx="0.963755" ry="0.955856" fill="#6C6CFF"/>
<ellipse cx="939.682" cy="195.066" rx="0.963755" ry="0.955856" fill="#6C6CFF"/>
<ellipse cx="959.085" cy="195.066" rx="0.963755" ry="0.955856" fill="#6C6CFF"/>
<ellipse cx="978.488" cy="195.066" rx="0.963755" ry="0.955856" fill="#6C6CFF"/>
<ellipse cx="997.889" cy="195.066" rx="0.963755" ry="0.955856" fill="#6C6CFF"/>
<ellipse cx="1017.29" cy="195.066" rx="0.963755" ry="0.955856" fill="#6C6CFF"/>
<ellipse cx="1036.69" cy="195.066" rx="0.963755" ry="0.955856" fill="#6C6CFF"/>
<ellipse cx="1056.1" cy="195.066" rx="0.963755" ry="0.955856" fill="#6C6CFF"/>
<ellipse cx="1075.49" cy="195.066" rx="0.963755" ry="0.955856" fill="#6C6CFF"/>
<ellipse cx="1094.9" cy="195.066" rx="0.963755" ry="0.955856" fill="#6C6CFF"/>
<ellipse cx="1114.3" cy="195.066" rx="0.963755" ry="0.955856" fill="#6C6CFF"/>
<ellipse cx="1133.7" cy="195.066" rx="0.963755" ry="0.955856" fill="#6C6CFF"/>
<ellipse cx="784.464" cy="214.31" rx="0.963755" ry="0.955856" fill="#6C6CFF"/>
<ellipse cx="803.867" cy="214.31" rx="0.963755" ry="0.955856" fill="#6C6CFF"/>
<ellipse cx="823.272" cy="214.31" rx="0.963755" ry="0.955856" fill="#6C6CFF"/>
<ellipse cx="842.671" cy="214.31" rx="0.963755" ry="0.955856" fill="#6C6CFF"/>
<ellipse cx="862.075" cy="214.31" rx="0.963755" ry="0.955856" fill="#6C6CFF"/>
<ellipse cx="881.475" cy="214.31" rx="0.963755" ry="0.955856" fill="#6C6CFF"/>
<ellipse cx="900.88" cy="214.31" rx="0.963755" ry="0.955856" fill="#6C6CFF"/>
<ellipse cx="920.277" cy="214.31" rx="0.963755" ry="0.955856" fill="#6C6CFF"/>
<ellipse cx="939.682" cy="214.31" rx="0.963755" ry="0.955856" fill="#6C6CFF"/>
<ellipse cx="959.085" cy="214.31" rx="0.963755" ry="0.955856" fill="#6C6CFF"/>
<ellipse cx="978.488" cy="214.31" rx="0.963755" ry="0.955856" fill="#6C6CFF"/>
<ellipse cx="997.889" cy="214.31" rx="0.963755" ry="0.955856" fill="#6C6CFF"/>
<ellipse cx="1017.29" cy="214.31" rx="0.963755" ry="0.955856" fill="#6C6CFF"/>
<ellipse cx="1036.69" cy="214.31" rx="0.963755" ry="0.955856" fill="#6C6CFF"/>
<ellipse cx="1056.1" cy="214.31" rx="0.963755" ry="0.955856" fill="#6C6CFF"/>
<ellipse cx="1075.49" cy="214.31" rx="0.963755" ry="0.955856" fill="#6C6CFF"/>
<ellipse cx="1094.9" cy="214.31" rx="0.963755" ry="0.955856" fill="#6C6CFF"/>
<ellipse cx="1114.3" cy="214.31" rx="0.963755" ry="0.955856" fill="#6C6CFF"/>
<ellipse cx="1133.7" cy="214.31" rx="0.963755" ry="0.955856" fill="#6C6CFF"/>
<ellipse cx="784.464" cy="233.551" rx="0.963755" ry="0.955856" fill="#6C6CFF"/>
<ellipse cx="803.867" cy="233.551" rx="0.963755" ry="0.955856" fill="#6C6CFF"/>
<ellipse cx="823.272" cy="233.551" rx="0.963755" ry="0.955856" fill="#6C6CFF"/>
<ellipse cx="842.671" cy="233.551" rx="0.963755" ry="0.955856" fill="#6C6CFF"/>
<ellipse cx="862.075" cy="233.551" rx="0.963755" ry="0.955856" fill="#6C6CFF"/>
<ellipse cx="881.475" cy="233.551" rx="0.963755" ry="0.955856" fill="#6C6CFF"/>
<ellipse cx="900.88" cy="233.551" rx="0.963755" ry="0.955856" fill="#6C6CFF"/>
<ellipse cx="920.277" cy="233.551" rx="0.963755" ry="0.955856" fill="#6C6CFF"/>
<ellipse cx="939.682" cy="233.551" rx="0.963755" ry="0.955856" fill="#6C6CFF"/>
<ellipse cx="959.085" cy="233.551" rx="0.963755" ry="0.955856" fill="#6C6CFF"/>
<ellipse cx="978.488" cy="233.551" rx="0.963755" ry="0.955856" fill="#6C6CFF"/>
<ellipse cx="997.889" cy="233.551" rx="0.963755" ry="0.955856" fill="#6C6CFF"/>
<ellipse cx="1017.29" cy="233.551" rx="0.963755" ry="0.955856" fill="#6C6CFF"/>
<ellipse cx="1036.69" cy="233.551" rx="0.963755" ry="0.955856" fill="#6C6CFF"/>
<ellipse cx="1056.1" cy="233.551" rx="0.963755" ry="0.955856" fill="#6C6CFF"/>
<ellipse cx="1075.49" cy="233.551" rx="0.963755" ry="0.955856" fill="#6C6CFF"/>
<ellipse cx="1094.9" cy="233.551" rx="0.963755" ry="0.955856" fill="#6C6CFF"/>
<ellipse cx="1114.3" cy="233.551" rx="0.963755" ry="0.955856" fill="#6C6CFF"/>
<ellipse cx="1133.7" cy="233.551" rx="0.963755" ry="0.955856" fill="#6C6CFF"/>
<ellipse cx="784.464" cy="252.794" rx="0.963755" ry="0.955856" fill="#6C6CFF"/>
<ellipse cx="803.867" cy="252.794" rx="0.963755" ry="0.955856" fill="#6C6CFF"/>
<ellipse cx="823.272" cy="252.794" rx="0.963755" ry="0.955856" fill="#6C6CFF"/>
<ellipse cx="842.671" cy="252.794" rx="0.963755" ry="0.955856" fill="#6C6CFF"/>
<ellipse cx="862.075" cy="252.794" rx="0.963755" ry="0.955856" fill="#6C6CFF"/>
<ellipse cx="881.475" cy="252.794" rx="0.963755" ry="0.955856" fill="#6C6CFF"/>
<ellipse cx="900.88" cy="252.794" rx="0.963755" ry="0.955856" fill="#6C6CFF"/>
<ellipse cx="920.277" cy="252.794" rx="0.963755" ry="0.955856" fill="#6C6CFF"/>
<ellipse cx="939.682" cy="252.794" rx="0.963755" ry="0.955856" fill="#6C6CFF"/>
<ellipse cx="959.085" cy="252.794" rx="0.963755" ry="0.955856" fill="#6C6CFF"/>
<ellipse cx="978.488" cy="252.794" rx="0.963755" ry="0.955856" fill="#6C6CFF"/>
<ellipse cx="997.889" cy="252.794" rx="0.963755" ry="0.955856" fill="#6C6CFF"/>
<ellipse cx="1017.29" cy="252.794" rx="0.963755" ry="0.955856" fill="#6C6CFF"/>
<ellipse cx="1036.69" cy="252.794" rx="0.963755" ry="0.955856" fill="#6C6CFF"/>
<ellipse cx="1056.1" cy="252.794" rx="0.963755" ry="0.955856" fill="#6C6CFF"/>
<ellipse cx="1075.49" cy="252.794" rx="0.963755" ry="0.955856" fill="#6C6CFF"/>
<ellipse cx="1094.9" cy="252.794" rx="0.963755" ry="0.955856" fill="#6C6CFF"/>
<ellipse cx="1114.3" cy="252.794" rx="0.963755" ry="0.955856" fill="#6C6CFF"/>
<ellipse cx="1133.7" cy="252.794" rx="0.963755" ry="0.955856" fill="#6C6CFF"/>
</g>
<circle cx="1062.32" cy="73.7868" r="15.9278" fill="#B4B4FF"/>
<circle cx="1062.32" cy="112.949" r="15.9278" fill="#FFCC00"/>
<path d="M1046.93 182.162L1078.24 182.161L1078.24 112.949L1062.36 120.982L1060.78 120.982L1046.93 113.373L1046.93 182.162Z" fill="url(#paint0_linear_2960_79088)"/>
</g>
<defs>
<linearGradient id="paint0_linear_2960_79088" x1="1062.75" y1="99.4037" x2="1064.47" y2="162.447" gradientUnits="userSpaceOnUse">
<stop stop-color="#FFCC00"/>
<stop offset="1" stop-color="#FFCC00" stop-opacity="0"/>
</linearGradient>
<clipPath id="clip0_2960_79088">
<rect width="1141" height="263" fill="white" transform="translate(0.554688 0.341858)"/>
</clipPath>
</defs>
</svg>
