<svg width="15" height="12" viewBox="0 0 15 12" fill="none" xmlns="http://www.w3.org/2000/svg">
<path d="M14.1996 5.82539C14.1996 5.02234 13.545 4.3733 12.7365 4.3733C12.3404 4.3733 11.9884 4.53281 11.7244 4.78582C10.7288 4.13128 9.38124 3.71325 7.89064 3.65825L8.70469 1.08958L10.9158 1.60661V1.63962C10.9158 2.29416 11.4494 2.82769 12.1094 2.82769C12.7695 2.82769 13.303 2.29416 13.303 1.63962C13.303 0.985073 12.764 0.451538 12.1094 0.451538C11.6034 0.451538 11.1744 0.765059 10.9983 1.21059L8.61669 0.644051C8.51218 0.616549 8.40767 0.677053 8.37467 0.78156L7.46711 3.64725C5.90501 3.66375 4.49142 4.08728 3.45185 4.76382C3.19333 4.5218 2.84681 4.3733 2.46178 4.3733C1.65323 4.3733 0.998688 5.02784 0.998688 5.83089C0.998688 6.36443 1.29021 6.82646 1.72474 7.07947C1.69723 7.23348 1.67523 7.39299 1.67523 7.5525C1.67523 9.70315 4.32091 11.4523 7.57162 11.4523C10.8223 11.4523 13.468 9.70315 13.468 7.5525C13.468 7.40399 13.4515 7.25548 13.424 7.10697C13.8805 6.85946 14.1996 6.38643 14.1996 5.83089V5.82539ZM4.72793 6.82646C4.72793 6.34792 5.11846 5.9629 5.59699 5.9629C6.07552 5.9629 6.46605 6.35343 6.46605 6.82646C6.46605 7.29949 6.07552 7.69001 5.59699 7.69001C5.11846 7.69001 4.72793 7.29949 4.72793 6.82646ZM9.71126 9.39512C9.27123 9.82965 8.58369 10.0442 7.61012 10.0442H7.59362C6.61456 10.0442 5.92701 9.82965 5.49248 9.39512C5.40998 9.31812 5.40998 9.18611 5.49248 9.10911C5.57499 9.0266 5.7015 9.0266 5.784 9.10911C6.14153 9.46663 6.73556 9.63714 7.59912 9.63714H7.61562C8.47918 9.63714 9.07322 9.46113 9.43074 9.10911C9.51325 9.0266 9.63976 9.0321 9.72226 9.10911C9.80477 9.19161 9.80477 9.31812 9.72226 9.39512H9.71126ZM9.60675 7.69001C9.12822 7.69001 8.7377 7.29949 8.7377 6.82646C8.7377 6.35343 9.12822 5.9629 9.60675 5.9629C10.0853 5.9629 10.4758 6.35343 10.4758 6.82646C10.4758 7.29949 10.0853 7.69001 9.60675 7.69001Z" fill="#6C6CFF"/>
</svg>
