<svg width="14" height="12" viewBox="0 0 14 12" fill="none" xmlns="http://www.w3.org/2000/svg">
<path d="M6.92002 3.5659L6.9469 4.00696L6.49893 3.95296C4.86834 3.74593 3.4438 3.04383 2.23429 1.86467L1.64298 1.27959L1.49067 1.71165C1.16813 2.67478 1.3742 3.69192 2.04615 4.37601C2.40452 4.75407 2.32389 4.80807 1.70569 4.58304C1.49067 4.51103 1.30252 4.45702 1.2846 4.48403C1.22189 4.54704 1.43691 5.36615 1.60714 5.69019C1.84008 6.14025 2.31493 6.58132 2.83457 6.84235L3.27357 7.04938L2.75393 7.05838C2.25221 7.05838 2.23429 7.06738 2.28805 7.25641C2.46724 7.84149 3.17502 8.46257 3.96344 8.73261L4.51892 8.92163L4.03512 9.20967C3.31837 9.62373 2.47619 9.85776 1.63402 9.87577C1.23085 9.88477 0.899353 9.92077 0.899353 9.94777C0.899353 10.0378 1.99239 10.5419 2.6285 10.7399C4.53684 11.325 6.80355 11.0729 8.50582 10.0738C9.71533 9.3627 10.9248 7.9495 11.4893 6.58132C11.7939 5.85222 12.0985 4.52003 12.0985 3.88095C12.0985 3.46689 12.1254 3.41288 12.6271 2.91781C12.9228 2.62977 13.2005 2.31473 13.2543 2.22472C13.3439 2.0537 13.3349 2.0537 12.878 2.20672C12.1164 2.47675 12.0089 2.44075 12.3852 2.03569C12.6629 1.74765 12.9944 1.22558 12.9944 1.07256C12.9944 1.04556 12.8601 1.09056 12.7077 1.17158C12.5465 1.26159 12.1881 1.39661 11.9193 1.47762L11.4355 1.63064L10.9965 1.3336C10.7546 1.17158 10.4142 0.991551 10.235 0.937543C9.77805 0.811526 9.07922 0.829529 8.66709 0.973548C7.54717 1.3786 6.83939 2.42275 6.92002 3.5659Z" fill="#6C6CFF"/>
</svg>
